STARTFONT 2.1
FONT -mplus-gothic-bold-R-normal--10-100-75-75-C-100-jisx0208.1990-0
SIZE 10 75 75
FONTBOUNDINGBOX 10 11 0 -2
STARTPROPERTIES 23
FONTNAME_REGISTRY ""
FOUNDRY "mplus"
FAMILY_NAME "gothic"
WEIGHT_NAME "bold"
SLANT "R"
SETWIDTH_NAME "normal"
ADD_STYLE_NAME ""
PIXEL_SIZE 10
POINT_SIZE 100
RESOLUTION_X 75
RESOLUTION_Y 75
SPACING "C"
AVERAGE_WIDTH 100
CHARSET_REGISTRY "jisx0208.1990"
CHARSET_ENCODING "0"
COPYRIGHT "Copyright (C) 2002-2004 COZ"
WEIGHT 10
X_HEIGHT 11
QUAD_WIDTH 12
_XMBDFED_INFO "Edited with xmbdfed 4.5."
DEFAULT_CHAR 8481
FONT_DESCENT 2
FONT_ASCENT 9
ENDPROPERTIES
CHARS 6963
STARTCHAR 0x2121
ENCODING 8481
SWIDTH 960 0
DWIDTH 10 0
BBX 10 11 0 -2
BITMAP
0000
0000
0000
0000
0000
0000
0000
0000
0000
0000
0000
ENDCHAR
STARTCHAR 0x2122
ENCODING 8482
SWIDTH 960 0
DWIDTH 10 0
BBX 10 11 0 -2
BITMAP
0000
0000
0000
0000
0000
0000
0000
0000
6000
3000
0000
ENDCHAR
STARTCHAR 0x2123
ENCODING 8483
SWIDTH 960 0
DWIDTH 10 0
BBX 10 11 0 -2
BITMAP
0000
0000
0000
0000
0000
0000
3800
6C00
6C00
3800
0000
ENDCHAR
STARTCHAR 0x2124
ENCODING 8484
SWIDTH 960 0
DWIDTH 10 0
BBX 10 11 0 -2
BITMAP
0000
0000
0000
0000
0000
0000
0000
3800
3800
7000
0000
ENDCHAR
STARTCHAR 0x2125
ENCODING 8485
SWIDTH 960 0
DWIDTH 10 0
BBX 10 11 0 -2
BITMAP
0000
0000
0000
0000
0000
0000
0000
3800
3800
0000
0000
ENDCHAR
STARTCHAR 0x2126
ENCODING 8486
SWIDTH 960 0
DWIDTH 10 0
BBX 10 11 0 -2
BITMAP
0000
0000
0000
0000
0000
1C00
1C00
0000
0000
0000
0000
ENDCHAR
STARTCHAR 0x2127
ENCODING 8487
SWIDTH 960 0
DWIDTH 10 0
BBX 10 11 0 -2
BITMAP
0000
0000
0000
1C00
1C00
0000
0000
1C00
1C00
0000
0000
ENDCHAR
STARTCHAR 0x2128
ENCODING 8488
SWIDTH 960 0
DWIDTH 10 0
BBX 10 11 0 -2
BITMAP
0000
0000
0000
1C00
1C00
0000
0000
1C00
1C00
3800
0000
ENDCHAR
STARTCHAR 0x2129
ENCODING 8489
SWIDTH 960 0
DWIDTH 10 0
BBX 10 11 0 -2
BITMAP
0000
3E00
6300
6300
0600
0C00
1800
0000
1800
0000
0000
ENDCHAR
STARTCHAR 0x212A
ENCODING 8490
SWIDTH 960 0
DWIDTH 10 0
BBX 10 11 0 -2
BITMAP
0000
0C00
0C00
0C00
0C00
0C00
0000
0000
0C00
0000
0000
ENDCHAR
STARTCHAR 0x212B
ENCODING 8491
SWIDTH 960 0
DWIDTH 10 0
BBX 10 11 0 -2
BITMAP
1800
6C00
3000
0000
0000
0000
0000
0000
0000
0000
0000
ENDCHAR
STARTCHAR 0x212C
ENCODING 8492
SWIDTH 960 0
DWIDTH 10 0
BBX 10 11 0 -2
BITMAP
3800
6C00
6C00
3800
0000
0000
0000
0000
0000
0000
0000
ENDCHAR
STARTCHAR 0x212D
ENCODING 8493
SWIDTH 960 0
DWIDTH 10 0
BBX 10 11 0 -2
BITMAP
0C00
1800
0000
0000
0000
0000
0000
0000
0000
0000
0000
ENDCHAR
STARTCHAR 0x212E
ENCODING 8494
SWIDTH 960 0
DWIDTH 10 0
BBX 10 11 0 -2
BITMAP
1800
0C00
0000
0000
0000
0000
0000
0000
0000
0000
0000
ENDCHAR
STARTCHAR 0x212F
ENCODING 8495
SWIDTH 960 0
DWIDTH 10 0
BBX 10 11 0 -2
BITMAP
3B00
3B00
0000
0000
0000
0000
0000
0000
0000
0000
0000
ENDCHAR
STARTCHAR 0x2130
ENCODING 8496
SWIDTH 960 0
DWIDTH 10 0
BBX 10 11 0 -2
BITMAP
0C00
1A00
3300
0000
0000
0000
0000
0000
0000
0000
0000
ENDCHAR
STARTCHAR 0x2131
ENCODING 8497
SWIDTH 960 0
DWIDTH 10 0
BBX 10 11 0 -2
BITMAP
0000
FFC0
0000
0000
0000
0000
0000
0000
0000
0000
0000
ENDCHAR
STARTCHAR 0x2132
ENCODING 8498
SWIDTH 960 0
DWIDTH 10 0
BBX 10 11 0 -2
BITMAP
0000
0000
0000
0000
0000
0000
0000
0000
0000
0000
FFC0
ENDCHAR
STARTCHAR 0x2133
ENCODING 8499
SWIDTH 960 0
DWIDTH 10 0
BBX 10 11 0 -2
BITMAP
0000
0000
0000
3000
1800
0C00
0600
0600
0000
0000
0000
ENDCHAR
STARTCHAR 0x2134
ENCODING 8500
SWIDTH 960 0
DWIDTH 10 0
BBX 10 11 0 -2
BITMAP
0000
0180
06C0
3300
1800
0C00
0600
0600
0000
0000
0000
ENDCHAR
STARTCHAR 0x2135
ENCODING 8501
SWIDTH 960 0
DWIDTH 10 0
BBX 10 11 0 -2
BITMAP
0000
0000
0000
3000
1800
0C00
0600
3E00
0000
0000
0000
ENDCHAR
STARTCHAR 0x2136
ENCODING 8502
SWIDTH 960 0
DWIDTH 10 0
BBX 10 11 0 -2
BITMAP
0000
0180
06C0
3300
1800
0C00
0600
3E00
0000
0000
0000
ENDCHAR
STARTCHAR 0x2137
ENCODING 8503
SWIDTH 960 0
DWIDTH 10 0
BBX 10 11 0 -2
BITMAP
0000
0000
0000
1B00
1B00
3600
3600
0000
0000
0000
0000
ENDCHAR
STARTCHAR 0x2138
ENCODING 8504
SWIDTH 960 0
DWIDTH 10 0
BBX 10 11 0 -2
BITMAP
0000
1E00
3300
6180
C0C0
3F00
0C00
0C00
0C00
7F80
0000
ENDCHAR
STARTCHAR 0x2139
ENCODING 8505
SWIDTH 960 0
DWIDTH 10 0
BBX 10 11 0 -2
BITMAP
0000
0000
3000
3F00
6300
6300
1A00
0C00
0600
0000
0000
ENDCHAR
STARTCHAR 0x213A
ENCODING 8506
SWIDTH 960 0
DWIDTH 10 0
BBX 10 11 0 -2
BITMAP
0000
0000
00C0
0180
1D00
3600
6D00
6980
7000
6000
0000
ENDCHAR
STARTCHAR 0x213B
ENCODING 8507
SWIDTH 960 0
DWIDTH 10 0
BBX 10 11 0 -2
BITMAP
0000
0000
1E00
7380
C0C0
C0C0
C0C0
7380
1E00
0000
0000
ENDCHAR
STARTCHAR 0x213C
ENCODING 8508
SWIDTH 960 0
DWIDTH 10 0
BBX 10 11 0 -2
BITMAP
0000
0000
0000
0000
6000
3FC0
0000
0000
0000
0000
0000
ENDCHAR
STARTCHAR 0x213D
ENCODING 8509
SWIDTH 960 0
DWIDTH 10 0
BBX 10 11 0 -2
BITMAP
0000
0000
0000
0000
0000
FFC0
0000
0000
0000
0000
0000
ENDCHAR
STARTCHAR 0x213E
ENCODING 8510
SWIDTH 960 0
DWIDTH 10 0
BBX 10 11 0 -2
BITMAP
0000
0000
0000
0000
0000
1E00
0000
0000
0000
0000
0000
ENDCHAR
STARTCHAR 0x213F
ENCODING 8511
SWIDTH 960 0
DWIDTH 10 0
BBX 10 11 0 -2
BITMAP
0000
00C0
0180
0300
0600
0C00
1800
3000
6000
C000
0000
ENDCHAR
STARTCHAR 0x2140
ENCODING 8512
SWIDTH 960 0
DWIDTH 10 0
BBX 10 11 0 -2
BITMAP
0000
C000
6000
3000
1800
0C00
0600
0300
0180
00C0
0000
ENDCHAR
STARTCHAR 0x2141
ENCODING 8513
SWIDTH 960 0
DWIDTH 10 0
BBX 10 11 0 -2
BITMAP
0000
0000
0000
0000
3800
6D80
0700
0000
0000
0000
0000
ENDCHAR
STARTCHAR 0x2142
ENCODING 8514
SWIDTH 960 0
DWIDTH 10 0
BBX 10 11 0 -2
BITMAP
1A00
1A00
1A00
1A00
1A00
1A00
1A00
1A00
1A00
1A00
1A00
ENDCHAR
STARTCHAR 0x2143
ENCODING 8515
SWIDTH 960 0
DWIDTH 10 0
BBX 10 11 0 -2
BITMAP
0C00
0C00
0C00
0C00
0C00
0C00
0C00
0C00
0C00
0C00
0C00
ENDCHAR
STARTCHAR 0x2144
ENCODING 8516
SWIDTH 960 0
DWIDTH 10 0
BBX 10 11 0 -2
BITMAP
0000
0000
0000
0000
0000
ED80
ED80
0000
0000
0000
0000
ENDCHAR
STARTCHAR 0x2145
ENCODING 8517
SWIDTH 960 0
DWIDTH 10 0
BBX 10 11 0 -2
BITMAP
0000
0000
0000
0000
0000
7380
7380
0000
0000
0000
0000
ENDCHAR
STARTCHAR 0x2146
ENCODING 8518
SWIDTH 960 0
DWIDTH 10 0
BBX 10 11 0 -2
BITMAP
0E00
0700
0000
0000
0000
0000
0000
0000
0000
0000
0000
ENDCHAR
STARTCHAR 0x2147
ENCODING 8519
SWIDTH 960 0
DWIDTH 10 0
BBX 10 11 0 -2
BITMAP
1C00
3800
0000
0000
0000
0000
0000
0000
0000
0000
0000
ENDCHAR
STARTCHAR 0x2148
ENCODING 8520
SWIDTH 960 0
DWIDTH 10 0
BBX 10 11 0 -2
BITMAP
3B00
1D80
0000
0000
0000
0000
0000
0000
0000
0000
0000
ENDCHAR
STARTCHAR 0x2149
ENCODING 8521
SWIDTH 960 0
DWIDTH 10 0
BBX 10 11 0 -2
BITMAP
3B00
7600
0000
0000
0000
0000
0000
0000
0000
0000
0000
ENDCHAR
STARTCHAR 0x214A
ENCODING 8522
SWIDTH 960 0
DWIDTH 10 0
BBX 10 11 0 -2
BITMAP
0180
0300
0300
0600
0600
0600
0600
0600
0300
0300
0180
ENDCHAR
STARTCHAR 0x214B
ENCODING 8523
SWIDTH 960 0
DWIDTH 10 0
BBX 10 11 0 -2
BITMAP
6000
3000
3000
1800
1800
1800
1800
1800
3000
3000
6000
ENDCHAR
STARTCHAR 0x214C
ENCODING 8524
SWIDTH 960 0
DWIDTH 10 0
BBX 10 11 0 -2
BITMAP
0180
0300
0600
0600
0600
0600
0600
0600
0600
0300
0180
ENDCHAR
STARTCHAR 0x214D
ENCODING 8525
SWIDTH 960 0
DWIDTH 10 0
BBX 10 11 0 -2
BITMAP
6000
3000
1800
1800
1800
1800
1800
1800
1800
3000
6000
ENDCHAR
STARTCHAR 0x214E
ENCODING 8526
SWIDTH 960 0
DWIDTH 10 0
BBX 10 11 0 -2
BITMAP
0F80
0C00
0C00
0C00
0C00
0C00
0C00
0C00
0C00
0C00
0F80
ENDCHAR
STARTCHAR 0x214F
ENCODING 8527
SWIDTH 960 0
DWIDTH 10 0
BBX 10 11 0 -2
BITMAP
7C00
0C00
0C00
0C00
0C00
0C00
0C00
0C00
0C00
0C00
7C00
ENDCHAR
STARTCHAR 0x2150
ENCODING 8528
SWIDTH 960 0
DWIDTH 10 0
BBX 10 11 0 -2
BITMAP
0380
0600
0600
0600
0600
1C00
0600
0600
0600
0600
0380
ENDCHAR
STARTCHAR 0x2151
ENCODING 8529
SWIDTH 960 0
DWIDTH 10 0
BBX 10 11 0 -2
BITMAP
7000
1800
1800
1800
1800
0E00
1800
1800
1800
1800
7000
ENDCHAR
STARTCHAR 0x2152
ENCODING 8530
SWIDTH 960 0
DWIDTH 10 0
BBX 10 11 0 -2
BITMAP
0000
0180
0180
0300
0300
0600
0300
0300
0180
0180
0000
ENDCHAR
STARTCHAR 0x2153
ENCODING 8531
SWIDTH 960 0
DWIDTH 10 0
BBX 10 11 0 -2
BITMAP
0000
6000
6000
3000
3000
1800
3000
3000
6000
6000
0000
ENDCHAR
STARTCHAR 0x2154
ENCODING 8532
SWIDTH 960 0
DWIDTH 10 0
BBX 10 11 0 -2
BITMAP
0000
0680
0680
0D00
0D00
1A00
0D00
0D00
0680
0680
0000
ENDCHAR
STARTCHAR 0x2155
ENCODING 8533
SWIDTH 960 0
DWIDTH 10 0
BBX 10 11 0 -2
BITMAP
0000
6800
6800
3400
3400
1A00
3400
3400
6800
6800
0000
ENDCHAR
STARTCHAR 0x2156
ENCODING 8534
SWIDTH 960 0
DWIDTH 10 0
BBX 10 11 0 -2
BITMAP
0F80
0C00
0C00
0C00
0C00
0C00
0C00
0000
0000
0000
0000
ENDCHAR
STARTCHAR 0x2157
ENCODING 8535
SWIDTH 960 0
DWIDTH 10 0
BBX 10 11 0 -2
BITMAP
0000
0000
0000
0000
0C00
0C00
0C00
0C00
0C00
0C00
7C00
ENDCHAR
STARTCHAR 0x2158
ENCODING 8536
SWIDTH 960 0
DWIDTH 10 0
BBX 10 11 0 -2
BITMAP
1F80
1980
1B80
1A00
1A00
1A00
1A00
1E00
0000
0000
0000
ENDCHAR
STARTCHAR 0x2159
ENCODING 8537
SWIDTH 960 0
DWIDTH 10 0
BBX 10 11 0 -2
BITMAP
0000
0000
0000
1E00
1A00
1A00
1A00
1A00
7A00
6600
7E00
ENDCHAR
STARTCHAR 0x215A
ENCODING 8538
SWIDTH 960 0
DWIDTH 10 0
BBX 10 11 0 -2
BITMAP
0F80
0F00
0E00
0E00
0C00
0C00
0C00
0E00
0E00
0F00
0F80
ENDCHAR
STARTCHAR 0x215B
ENCODING 8539
SWIDTH 960 0
DWIDTH 10 0
BBX 10 11 0 -2
BITMAP
7C00
3C00
1C00
1C00
0C00
0C00
0C00
1C00
1C00
3C00
7C00
ENDCHAR
STARTCHAR 0x215C
ENCODING 8540
SWIDTH 960 0
DWIDTH 10 0
BBX 10 11 0 -2
BITMAP
0000
0000
0C00
0C00
0C00
7F80
0C00
0C00
0C00
0000
0000
ENDCHAR
STARTCHAR 0x215D
ENCODING 8541
SWIDTH 960 0
DWIDTH 10 0
BBX 10 11 0 -2
BITMAP
0000
0000
0000
0000
0000
7F80
0000
0000
0000
0000
0000
ENDCHAR
STARTCHAR 0x215E
ENCODING 8542
SWIDTH 960 0
DWIDTH 10 0
BBX 10 11 0 -2
BITMAP
0000
0C00
0C00
0C00
7F80
0C00
0C00
0C00
0000
7F80
0000
ENDCHAR
STARTCHAR 0x215F
ENCODING 8543
SWIDTH 960 0
DWIDTH 10 0
BBX 10 11 0 -2
BITMAP
0000
0000
6180
3300
1A00
0C00
1A00
3300
6180
0000
0000
ENDCHAR
STARTCHAR 0x2160
ENCODING 8544
SWIDTH 960 0
DWIDTH 10 0
BBX 10 11 0 -2
BITMAP
0000
0C00
1E00
0C00
0000
7F80
0000
0C00
1E00
0C00
0000
ENDCHAR
STARTCHAR 0x2161
ENCODING 8545
SWIDTH 960 0
DWIDTH 10 0
BBX 10 11 0 -2
BITMAP
0000
0000
0000
0000
7F80
0000
7F80
0000
0000
0000
0000
ENDCHAR
STARTCHAR 0x2162
ENCODING 8546
SWIDTH 960 0
DWIDTH 10 0
BBX 10 11 0 -2
BITMAP
0000
0000
0180
0300
7F80
0C00
7F80
3000
6000
0000
0000
ENDCHAR
STARTCHAR 0x2163
ENCODING 8547
SWIDTH 960 0
DWIDTH 10 0
BBX 10 11 0 -2
BITMAP
0000
0000
0380
0E00
3800
E000
3800
0E00
0380
0000
0000
ENDCHAR
STARTCHAR 0x2164
ENCODING 8548
SWIDTH 960 0
DWIDTH 10 0
BBX 10 11 0 -2
BITMAP
0000
0000
7000
1C00
0700
01C0
0700
1C00
7000
0000
0000
ENDCHAR
STARTCHAR 0x2165
ENCODING 8549
SWIDTH 960 0
DWIDTH 10 0
BBX 10 11 0 -2
BITMAP
0000
03C0
1E00
F000
1E00
03C0
0000
FFC0
0000
FFC0
0000
ENDCHAR
STARTCHAR 0x2166
ENCODING 8550
SWIDTH 960 0
DWIDTH 10 0
BBX 10 11 0 -2
BITMAP
0000
F000
1E00
03C0
1E00
F000
0000
FFC0
0000
FFC0
0000
ENDCHAR
STARTCHAR 0x2167
ENCODING 8551
SWIDTH 960 0
DWIDTH 10 0
BBX 10 11 0 -2
BITMAP
0000
0000
0000
7380
DAC0
CCC0
DAC0
7380
0000
0000
0000
ENDCHAR
STARTCHAR 0x2168
ENCODING 8552
SWIDTH 960 0
DWIDTH 10 0
BBX 10 11 0 -2
BITMAP
0000
0000
0C00
1E00
0C00
0000
3300
7B80
3300
0000
0000
ENDCHAR
STARTCHAR 0x2169
ENCODING 8553
SWIDTH 960 0
DWIDTH 10 0
BBX 10 11 0 -2
BITMAP
0000
0000
0FC0
01C0
0340
3EC0
66C0
6600
6600
3C00
0000
ENDCHAR
STARTCHAR 0x216A
ENCODING 8554
SWIDTH 960 0
DWIDTH 10 0
BBX 10 11 0 -2
BITMAP
0000
1E00
3300
3300
3300
1E00
0C00
7F80
0C00
0C00
0000
ENDCHAR
STARTCHAR 0x216B
ENCODING 8555
SWIDTH 960 0
DWIDTH 10 0
BBX 10 11 0 -2
BITMAP
0000
3800
6C00
6C00
3800
0000
0000
0000
0000
0000
0000
ENDCHAR
STARTCHAR 0x216C
ENCODING 8556
SWIDTH 960 0
DWIDTH 10 0
BBX 10 11 0 -2
BITMAP
0C00
1800
0000
0000
0000
0000
0000
0000
0000
0000
0000
ENDCHAR
STARTCHAR 0x216D
ENCODING 8557
SWIDTH 960 0
DWIDTH 10 0
BBX 10 11 0 -2
BITMAP
1B00
3600
0000
0000
0000
0000
0000
0000
0000
0000
0000
ENDCHAR
STARTCHAR 0x216E
ENCODING 8558
SWIDTH 960 0
DWIDTH 10 0
BBX 10 11 0 -2
BITMAP
7000
D800
DB80
74C0
1800
1800
1800
0CC0
0780
0000
0000
ENDCHAR
STARTCHAR 0x216F
ENCODING 8559
SWIDTH 960 0
DWIDTH 10 0
BBX 10 11 0 -2
BITMAP
0000
6180
3300
1A00
7F80
0C00
7F80
0C00
0C00
0000
0000
ENDCHAR
STARTCHAR 0x2170
ENCODING 8560
SWIDTH 960 0
DWIDTH 10 0
BBX 10 11 0 -2
BITMAP
0000
0C00
3F00
6D80
6C00
3F00
0D80
6D80
3F00
0C00
0000
ENDCHAR
STARTCHAR 0x2171
ENCODING 8561
SWIDTH 960 0
DWIDTH 10 0
BBX 10 11 0 -2
BITMAP
0000
0C00
0C00
3E00
6D00
6C00
6C00
3F00
0C00
0C00
0000
ENDCHAR
STARTCHAR 0x2172
ENCODING 8562
SWIDTH 960 0
DWIDTH 10 0
BBX 10 11 0 -2
BITMAP
0000
1E00
3300
3000
FE00
1800
7800
D980
7700
0000
0000
ENDCHAR
STARTCHAR 0x2173
ENCODING 8563
SWIDTH 960 0
DWIDTH 10 0
BBX 10 11 0 -2
BITMAP
0000
7300
DB00
DA00
7400
0D80
1AC0
36C0
3380
0000
0000
ENDCHAR
STARTCHAR 0x2174
ENCODING 8564
SWIDTH 960 0
DWIDTH 10 0
BBX 10 11 0 -2
BITMAP
0000
1B00
1B00
7FC0
1B00
1B00
7FC0
1B00
1B00
0000
0000
ENDCHAR
STARTCHAR 0x2175
ENCODING 8565
SWIDTH 960 0
DWIDTH 10 0
BBX 10 11 0 -2
BITMAP
0000
1C00
3600
3600
1DC0
3580
6680
6700
3DC0
0000
0000
ENDCHAR
STARTCHAR 0x2176
ENCODING 8566
SWIDTH 960 0
DWIDTH 10 0
BBX 10 11 0 -2
BITMAP
0000
0C00
6D80
3500
1E00
3500
6D80
0C00
0000
0000
0000
ENDCHAR
STARTCHAR 0x2177
ENCODING 8567
SWIDTH 960 0
DWIDTH 10 0
BBX 10 11 0 -2
BITMAP
0000
1F00
3180
6EC0
6B40
6B40
6E80
3000
1F00
0000
0000
ENDCHAR
STARTCHAR 0x2178
ENCODING 8568
SWIDTH 960 0
DWIDTH 10 0
BBX 10 11 0 -2
BITMAP
1E00
3300
3000
1E00
3300
3300
1E00
0300
3300
1E00
0000
ENDCHAR
STARTCHAR 0x2179
ENCODING 8569
SWIDTH 960 0
DWIDTH 10 0
BBX 10 11 0 -2
BITMAP
0000
0C00
0C00
1A00
FBC0
6180
3300
3500
7B80
6180
0000
ENDCHAR
STARTCHAR 0x217A
ENCODING 8570
SWIDTH 960 0
DWIDTH 10 0
BBX 10 11 0 -2
BITMAP
0000
0C00
0C00
1E00
FFC0
7F80
3F00
3F00
7B80
6180
0000
ENDCHAR
STARTCHAR 0x217B
ENCODING 8571
SWIDTH 960 0
DWIDTH 10 0
BBX 10 11 0 -2
BITMAP
0000
1E00
7380
6180
C0C0
C0C0
C0C0
6180
7380
1E00
0000
ENDCHAR
STARTCHAR 0x217C
ENCODING 8572
SWIDTH 960 0
DWIDTH 10 0
BBX 10 11 0 -2
BITMAP
0000
1E00
7F80
7F80
FFC0
FFC0
FFC0
7F80
7F80
1E00
0000
ENDCHAR
STARTCHAR 0x217D
ENCODING 8573
SWIDTH 960 0
DWIDTH 10 0
BBX 10 11 0 -2
BITMAP
0000
1E00
7380
6E80
D340
D340
D340
6E80
7380
1E00
0000
ENDCHAR
STARTCHAR 0x217E
ENCODING 8574
SWIDTH 960 0
DWIDTH 10 0
BBX 10 11 0 -2
BITMAP
0000
0C00
1A00
3300
6180
C0C0
6180
3300
1A00
0C00
0000
ENDCHAR
STARTCHAR 0x2221
ENCODING 8737
SWIDTH 960 0
DWIDTH 10 0
BBX 10 11 0 -2
BITMAP
0000
0C00
1E00
3F00
7F80
FFC0
7F80
3F00
1E00
0C00
0000
ENDCHAR
STARTCHAR 0x2222
ENCODING 8738
SWIDTH 960 0
DWIDTH 10 0
BBX 10 11 0 -2
BITMAP
0000
7FC0
60C0
60C0
60C0
60C0
60C0
60C0
7FC0
0000
0000
ENDCHAR
STARTCHAR 0x2223
ENCODING 8739
SWIDTH 960 0
DWIDTH 10 0
BBX 10 11 0 -2
BITMAP
0000
7FC0
7FC0
7FC0
7FC0
7FC0
7FC0
7FC0
7FC0
0000
0000
ENDCHAR
STARTCHAR 0x2224
ENCODING 8740
SWIDTH 960 0
DWIDTH 10 0
BBX 10 11 0 -2
BITMAP
0000
0C00
1A00
1A00
3300
3300
6180
6180
FFC0
0000
0000
ENDCHAR
STARTCHAR 0x2225
ENCODING 8741
SWIDTH 960 0
DWIDTH 10 0
BBX 10 11 0 -2
BITMAP
0000
0C00
1E00
1E00
3F00
3F00
7F80
7F80
FFC0
0000
0000
ENDCHAR
STARTCHAR 0x2226
ENCODING 8742
SWIDTH 960 0
DWIDTH 10 0
BBX 10 11 0 -2
BITMAP
0000
FFC0
6180
6180
3300
3300
1A00
1A00
0C00
0000
0000
ENDCHAR
STARTCHAR 0x2227
ENCODING 8743
SWIDTH 960 0
DWIDTH 10 0
BBX 10 11 0 -2
BITMAP
0000
FFC0
7F80
7F80
3F00
3F00
1E00
1E00
0C00
0000
0000
ENDCHAR
STARTCHAR 0x2228
ENCODING 8744
SWIDTH 960 0
DWIDTH 10 0
BBX 10 11 0 -2
BITMAP
0000
0C00
6180
3300
1A00
CCC0
1A00
3300
6180
0C00
0000
ENDCHAR
STARTCHAR 0x2229
ENCODING 8745
SWIDTH 960 0
DWIDTH 10 0
BBX 10 11 0 -2
BITMAP
0000
7F80
0000
0000
7F80
0C00
0C00
0C00
0C00
0000
0000
ENDCHAR
STARTCHAR 0x222A
ENCODING 8746
SWIDTH 960 0
DWIDTH 10 0
BBX 10 11 0 -2
BITMAP
0000
0000
0600
0300
0180
FFC0
0180
0300
0600
0000
0000
ENDCHAR
STARTCHAR 0x222B
ENCODING 8747
SWIDTH 960 0
DWIDTH 10 0
BBX 10 11 0 -2
BITMAP
0000
0000
1800
3000
6000
FFC0
6000
3000
1800
0000
0000
ENDCHAR
STARTCHAR 0x222C
ENCODING 8748
SWIDTH 960 0
DWIDTH 10 0
BBX 10 11 0 -2
BITMAP
0000
0C00
1E00
3500
6D80
0C00
0C00
0C00
0C00
0C00
0000
ENDCHAR
STARTCHAR 0x222D
ENCODING 8749
SWIDTH 960 0
DWIDTH 10 0
BBX 10 11 0 -2
BITMAP
0000
0C00
0C00
0C00
0C00
0C00
6D80
3500
1E00
0C00
0000
ENDCHAR
STARTCHAR 0x222E
ENCODING 8750
SWIDTH 960 0
DWIDTH 10 0
BBX 10 11 0 -2
BITMAP
0000
0000
0000
7F80
7F80
0000
7F80
7F80
0000
0000
0000
ENDCHAR
STARTCHAR 0x223A
ENCODING 8762
SWIDTH 960 0
DWIDTH 10 0
BBX 10 11 0 -2
BITMAP
0000
0000
1FC0
3000
6000
7FC0
6000
3000
1FC0
0000
0000
ENDCHAR
STARTCHAR 0x223B
ENCODING 8763
SWIDTH 960 0
DWIDTH 10 0
BBX 10 11 0 -2
BITMAP
0000
0000
7F00
0180
00C0
7FC0
00C0
0180
7F00
0000
0000
ENDCHAR
STARTCHAR 0x223C
ENCODING 8764
SWIDTH 960 0
DWIDTH 10 0
BBX 10 11 0 -2
BITMAP
0000
1FC0
3000
6000
6000
3000
1FC0
0000
0000
7FC0
0000
ENDCHAR
STARTCHAR 0x223D
ENCODING 8765
SWIDTH 960 0
DWIDTH 10 0
BBX 10 11 0 -2
BITMAP
0000
7F00
0180
00C0
00C0
0180
7F00
0000
0000
7FC0
0000
ENDCHAR
STARTCHAR 0x223E
ENCODING 8766
SWIDTH 960 0
DWIDTH 10 0
BBX 10 11 0 -2
BITMAP
0000
0000
1FC0
3000
6000
6000
6000
3000
1FC0
0000
0000
ENDCHAR
STARTCHAR 0x223F
ENCODING 8767
SWIDTH 960 0
DWIDTH 10 0
BBX 10 11 0 -2
BITMAP
0000
0000
7F00
0180
00C0
00C0
00C0
0180
7F00
0000
0000
ENDCHAR
STARTCHAR 0x2240
ENCODING 8768
SWIDTH 960 0
DWIDTH 10 0
BBX 10 11 0 -2
BITMAP
0000
6180
6180
6180
6180
6180
6180
3300
1E00
0000
0000
ENDCHAR
STARTCHAR 0x2241
ENCODING 8769
SWIDTH 960 0
DWIDTH 10 0
BBX 10 11 0 -2
BITMAP
0000
1E00
3300
6180
6180
6180
6180
6180
6180
0000
0000
ENDCHAR
STARTCHAR 0x224A
ENCODING 8778
SWIDTH 960 0
DWIDTH 10 0
BBX 10 11 0 -2
BITMAP
0000
0C00
0C00
1A00
1A00
3300
3300
6180
6180
0000
0000
ENDCHAR
STARTCHAR 0x224B
ENCODING 8779
SWIDTH 960 0
DWIDTH 10 0
BBX 10 11 0 -2
BITMAP
0000
6180
6180
3300
3300
1A00
1A00
0C00
0C00
0000
0000
ENDCHAR
STARTCHAR 0x224C
ENCODING 8780
SWIDTH 960 0
DWIDTH 10 0
BBX 10 11 0 -2
BITMAP
0000
0000
0000
0000
7F80
0180
0180
0180
0000
0000
0000
ENDCHAR
STARTCHAR 0x224D
ENCODING 8781
SWIDTH 960 0
DWIDTH 10 0
BBX 10 11 0 -2
BITMAP
0000
0000
0600
0300
FF80
00C0
FF80
0300
0600
0000
0000
ENDCHAR
STARTCHAR 0x224E
ENCODING 8782
SWIDTH 960 0
DWIDTH 10 0
BBX 10 11 0 -2
BITMAP
0000
0000
1A00
3300
7F80
C0C0
7F80
3300
1A00
0000
0000
ENDCHAR
STARTCHAR 0x224F
ENCODING 8783
SWIDTH 960 0
DWIDTH 10 0
BBX 10 11 0 -2
BITMAP
0000
6180
6180
3F00
3300
1A00
1A00
0C00
0C00
0000
0000
ENDCHAR
STARTCHAR 0x2250
ENCODING 8784
SWIDTH 960 0
DWIDTH 10 0
BBX 10 11 0 -2
BITMAP
0000
7F80
0180
0180
7F80
0180
0180
0180
7F80
0000
0000
ENDCHAR
STARTCHAR 0x225C
ENCODING 8796
SWIDTH 960 0
DWIDTH 10 0
BBX 10 11 0 -2
BITMAP
0000
0180
0300
0600
0C00
1800
3000
6000
FFC0
0000
0000
ENDCHAR
STARTCHAR 0x225D
ENCODING 8797
SWIDTH 960 0
DWIDTH 10 0
BBX 10 11 0 -2
BITMAP
0000
0C00
0C00
0C00
0C00
0C00
0C00
0C00
FFC0
0000
0000
ENDCHAR
STARTCHAR 0x225E
ENCODING 8798
SWIDTH 960 0
DWIDTH 10 0
BBX 10 11 0 -2
BITMAP
0000
1E00
7380
C0C0
0000
0000
0000
0000
0000
0000
0000
ENDCHAR
STARTCHAR 0x225F
ENCODING 8799
SWIDTH 960 0
DWIDTH 10 0
BBX 10 11 0 -2
BITMAP
0000
0E00
1B00
0300
0F00
1B00
3300
3300
3600
1C00
0000
ENDCHAR
STARTCHAR 0x2260
ENCODING 8800
SWIDTH 960 0
DWIDTH 10 0
BBX 10 11 0 -2
BITMAP
0000
FFC0
FFC0
7180
3300
3B00
1A00
1E00
0C00
0000
0000
ENDCHAR
STARTCHAR 0x2261
ENCODING 8801
SWIDTH 960 0
DWIDTH 10 0
BBX 10 11 0 -2
BITMAP
0000
0000
0000
7F80
0000
7F80
0000
7F80
0000
0000
0000
ENDCHAR
STARTCHAR 0x2262
ENCODING 8802
SWIDTH 960 0
DWIDTH 10 0
BBX 10 11 0 -2
BITMAP
0000
3000
7800
3000
7F80
0000
7F80
0300
0780
0300
0000
ENDCHAR
STARTCHAR 0x2263
ENCODING 8803
SWIDTH 960 0
DWIDTH 10 0
BBX 10 11 0 -2
BITMAP
0000
0CC0
1980
3300
6600
CC00
6600
3300
1980
0CC0
0000
ENDCHAR
STARTCHAR 0x2264
ENCODING 8804
SWIDTH 960 0
DWIDTH 10 0
BBX 10 11 0 -2
BITMAP
0000
CC00
6600
3300
1980
0CC0
1980
3300
6600
CC00
0000
ENDCHAR
STARTCHAR 0x2265
ENCODING 8805
SWIDTH 960 0
DWIDTH 10 0
BBX 10 11 0 -2
BITMAP
0000
07C0
0600
0600
6C00
6C00
D400
D400
1800
1800
0000
ENDCHAR
STARTCHAR 0x2266
ENCODING 8806
SWIDTH 960 0
DWIDTH 10 0
BBX 10 11 0 -2
BITMAP
0000
0000
0000
7380
C6C0
CCC0
D8C0
7380
0000
0000
0000
ENDCHAR
STARTCHAR 0x2267
ENCODING 8807
SWIDTH 960 0
DWIDTH 10 0
BBX 10 11 0 -2
BITMAP
0000
0000
0000
7380
DAC0
CC00
DAC0
7380
0000
0000
0000
ENDCHAR
STARTCHAR 0x2268
ENCODING 8808
SWIDTH 960 0
DWIDTH 10 0
BBX 10 11 0 -2
BITMAP
0000
0000
3300
7B80
3300
0000
0C00
1E00
0C00
0000
0000
ENDCHAR
STARTCHAR 0x2269
ENCODING 8809
SWIDTH 960 0
DWIDTH 10 0
BBX 10 11 0 -2
BITMAP
0000
0E00
1A00
1800
1800
0C00
0600
0600
1A00
1C00
0000
ENDCHAR
STARTCHAR 0x226A
ENCODING 8810
SWIDTH 960 0
DWIDTH 10 0
BBX 10 11 0 -2
BITMAP
0000
3B80
6A80
6600
6600
3300
1980
1980
6A80
7700
0000
ENDCHAR
STARTCHAR 0x2272
ENCODING 8818
SWIDTH 960 0
DWIDTH 10 0
BBX 10 11 0 -2
BITMAP
0E00
1B00
1B00
0E00
0C00
1A00
1E00
3300
3300
0000
0000
ENDCHAR
STARTCHAR 0x2273
ENCODING 8819
SWIDTH 960 0
DWIDTH 10 0
BBX 10 11 0 -2
BITMAP
0000
7180
DB00
DA00
7400
1D80
36C0
76C0
DD80
0000
0000
ENDCHAR
STARTCHAR 0x2274
ENCODING 8820
SWIDTH 960 0
DWIDTH 10 0
BBX 10 11 0 -2
BITMAP
0300
1B00
1B80
1F00
3B00
1B80
1F00
3B00
1B00
1800
0000
ENDCHAR
STARTCHAR 0x2275
ENCODING 8821
SWIDTH 960 0
DWIDTH 10 0
BBX 10 11 0 -2
BITMAP
0000
1800
1800
1800
1E00
1B00
1B00
1A00
1C00
0000
0000
ENDCHAR
STARTCHAR 0x2276
ENCODING 8822
SWIDTH 960 0
DWIDTH 10 0
BBX 10 11 0 -2
BITMAP
0000
0C00
0E00
0F00
0D00
0D00
3C00
7C00
3800
0000
0000
ENDCHAR
STARTCHAR 0x2277
ENCODING 8823
SWIDTH 960 0
DWIDTH 10 0
BBX 10 11 0 -2
BITMAP
0C00
0C00
3F00
0C00
0C00
1E00
1E00
0C00
0C00
0C00
0000
ENDCHAR
STARTCHAR 0x2278
ENCODING 8824
SWIDTH 960 0
DWIDTH 10 0
BBX 10 11 0 -2
BITMAP
0C00
0C00
3F00
0C00
1E00
1E00
0C00
3F00
0C00
0C00
0000
ENDCHAR
STARTCHAR 0x2279
ENCODING 8825
SWIDTH 960 0
DWIDTH 10 0
BBX 10 11 0 -2
BITMAP
0000
1F00
3D00
3D00
3D00
1D00
0D00
0D00
0D00
0000
0000
ENDCHAR
STARTCHAR 0x227E
ENCODING 8830
SWIDTH 960 0
DWIDTH 10 0
BBX 10 11 0 -2
BITMAP
0000
1E00
7380
6180
C0C0
C0C0
C0C0
6180
7380
1E00
0000
ENDCHAR
STARTCHAR 0x2330
ENCODING 9008
SWIDTH 960 0
DWIDTH 10 0
BBX 10 11 0 -2
BITMAP
0000
1F00
3180
3180
3180
3180
3180
3180
1F00
0000
0000
ENDCHAR
STARTCHAR 0x2331
ENCODING 9009
SWIDTH 960 0
DWIDTH 10 0
BBX 10 11 0 -2
BITMAP
0000
0600
0E00
1A00
0600
0600
0600
0600
0600
0000
0000
ENDCHAR
STARTCHAR 0x2332
ENCODING 9010
SWIDTH 960 0
DWIDTH 10 0
BBX 10 11 0 -2
BITMAP
0000
1F00
3180
3180
0300
0600
0C00
1800
3F80
0000
0000
ENDCHAR
STARTCHAR 0x2333
ENCODING 9011
SWIDTH 960 0
DWIDTH 10 0
BBX 10 11 0 -2
BITMAP
0000
3F80
0300
0600
0F00
0180
0180
3180
1F00
0000
0000
ENDCHAR
STARTCHAR 0x2334
ENCODING 9012
SWIDTH 960 0
DWIDTH 10 0
BBX 10 11 0 -2
BITMAP
0000
0700
0D00
1B00
3300
3300
3F80
0300
0300
0000
0000
ENDCHAR
STARTCHAR 0x2335
ENCODING 9013
SWIDTH 960 0
DWIDTH 10 0
BBX 10 11 0 -2
BITMAP
0000
3F80
3000
3000
3F00
0180
0180
3180
1F00
0000
0000
ENDCHAR
STARTCHAR 0x2336
ENCODING 9014
SWIDTH 960 0
DWIDTH 10 0
BBX 10 11 0 -2
BITMAP
0000
0F00
1800
3000
3F00
3180
3180
3180
1F00
0000
0000
ENDCHAR
STARTCHAR 0x2337
ENCODING 9015
SWIDTH 960 0
DWIDTH 10 0
BBX 10 11 0 -2
BITMAP
0000
3F80
0180
0300
0600
0600
0C00
0C00
0C00
0000
0000
ENDCHAR
STARTCHAR 0x2338
ENCODING 9016
SWIDTH 960 0
DWIDTH 10 0
BBX 10 11 0 -2
BITMAP
0000
1F00
3180
3180
1F00
3180
3180
3180
1F00
0000
0000
ENDCHAR
STARTCHAR 0x2339
ENCODING 9017
SWIDTH 960 0
DWIDTH 10 0
BBX 10 11 0 -2
BITMAP
0000
1F00
3180
3180
3180
1F80
0180
0300
1E00
0000
0000
ENDCHAR
STARTCHAR 0x2341
ENCODING 9025
SWIDTH 960 0
DWIDTH 10 0
BBX 10 11 0 -2
BITMAP
0000
0C00
0C00
1A00
1A00
3300
3F00
6180
6180
0000
0000
ENDCHAR
STARTCHAR 0x2342
ENCODING 9026
SWIDTH 960 0
DWIDTH 10 0
BBX 10 11 0 -2
BITMAP
0000
3F00
3180
3180
3F00
3180
3180
3180
3F00
0000
0000
ENDCHAR
STARTCHAR 0x2343
ENCODING 9027
SWIDTH 960 0
DWIDTH 10 0
BBX 10 11 0 -2
BITMAP
0000
1F00
3180
6000
6000
6000
6000
3180
1F00
0000
0000
ENDCHAR
STARTCHAR 0x2344
ENCODING 9028
SWIDTH 960 0
DWIDTH 10 0
BBX 10 11 0 -2
BITMAP
0000
7E00
6300
6180
6180
6180
6180
6300
7E00
0000
0000
ENDCHAR
STARTCHAR 0x2345
ENCODING 9029
SWIDTH 960 0
DWIDTH 10 0
BBX 10 11 0 -2
BITMAP
0000
3F80
3000
3000
3F00
3000
3000
3000
3F80
0000
0000
ENDCHAR
STARTCHAR 0x2346
ENCODING 9030
SWIDTH 960 0
DWIDTH 10 0
BBX 10 11 0 -2
BITMAP
0000
3F80
3000
3000
3F00
3000
3000
3000
3000
0000
0000
ENDCHAR
STARTCHAR 0x2347
ENCODING 9031
SWIDTH 960 0
DWIDTH 10 0
BBX 10 11 0 -2
BITMAP
0000
1F00
3180
6000
6780
6180
6180
3380
1E80
0000
0000
ENDCHAR
STARTCHAR 0x2348
ENCODING 9032
SWIDTH 960 0
DWIDTH 10 0
BBX 10 11 0 -2
BITMAP
0000
3180
3180
3180
3F80
3180
3180
3180
3180
0000
0000
ENDCHAR
STARTCHAR 0x2349
ENCODING 9033
SWIDTH 960 0
DWIDTH 10 0
BBX 10 11 0 -2
BITMAP
0000
0C00
0C00
0C00
0C00
0C00
0C00
0C00
0C00
0000
0000
ENDCHAR
STARTCHAR 0x234A
ENCODING 9034
SWIDTH 960 0
DWIDTH 10 0
BBX 10 11 0 -2
BITMAP
0000
0180
0180
0180
0180
3180
3180
3180
1F00
0000
0000
ENDCHAR
STARTCHAR 0x234B
ENCODING 9035
SWIDTH 960 0
DWIDTH 10 0
BBX 10 11 0 -2
BITMAP
0000
3180
3300
3600
3400
3A00
3300
3180
30C0
0000
0000
ENDCHAR
STARTCHAR 0x234C
ENCODING 9036
SWIDTH 960 0
DWIDTH 10 0
BBX 10 11 0 -2
BITMAP
0000
3000
3000
3000
3000
3000
3000
3000
3F80
0000
0000
ENDCHAR
STARTCHAR 0x234D
ENCODING 9037
SWIDTH 960 0
DWIDTH 10 0
BBX 10 11 0 -2
BITMAP
0000
6180
7380
6A80
6D80
6180
6180
6180
6180
0000
0000
ENDCHAR
STARTCHAR 0x234E
ENCODING 9038
SWIDTH 960 0
DWIDTH 10 0
BBX 10 11 0 -2
BITMAP
0000
3180
3980
3580
3680
3380
3180
3180
3180
0000
0000
ENDCHAR
STARTCHAR 0x234F
ENCODING 9039
SWIDTH 960 0
DWIDTH 10 0
BBX 10 11 0 -2
BITMAP
0000
1E00
3300
6180
6180
6180
6180
3300
1E00
0000
0000
ENDCHAR
STARTCHAR 0x2350
ENCODING 9040
SWIDTH 960 0
DWIDTH 10 0
BBX 10 11 0 -2
BITMAP
0000
3F00
3180
3180
3180
3F00
3000
3000
3000
0000
0000
ENDCHAR
STARTCHAR 0x2351
ENCODING 9041
SWIDTH 960 0
DWIDTH 10 0
BBX 10 11 0 -2
BITMAP
0000
1E00
3300
6180
6180
6180
6180
3300
1E00
0600
0380
ENDCHAR
STARTCHAR 0x2352
ENCODING 9042
SWIDTH 960 0
DWIDTH 10 0
BBX 10 11 0 -2
BITMAP
0000
3F00
3180
3180
3180
3F00
3600
3300
3180
0000
0000
ENDCHAR
STARTCHAR 0x2353
ENCODING 9043
SWIDTH 960 0
DWIDTH 10 0
BBX 10 11 0 -2
BITMAP
0000
1F00
3180
3000
1F00
0180
0180
3180
1F00
0000
0000
ENDCHAR
STARTCHAR 0x2354
ENCODING 9044
SWIDTH 960 0
DWIDTH 10 0
BBX 10 11 0 -2
BITMAP
0000
7F80
0C00
0C00
0C00
0C00
0C00
0C00
0C00
0000
0000
ENDCHAR
STARTCHAR 0x2355
ENCODING 9045
SWIDTH 960 0
DWIDTH 10 0
BBX 10 11 0 -2
BITMAP
0000
3180
3180
3180
3180
3180
3180
3180
1F00
0000
0000
ENDCHAR
STARTCHAR 0x2356
ENCODING 9046
SWIDTH 960 0
DWIDTH 10 0
BBX 10 11 0 -2
BITMAP
0000
6180
6180
3300
3300
1A00
1A00
0C00
0C00
0000
0000
ENDCHAR
STARTCHAR 0x2357
ENCODING 9047
SWIDTH 960 0
DWIDTH 10 0
BBX 10 11 0 -2
BITMAP
0000
CCC0
CCC0
CCC0
6A80
6A80
6A80
3300
3300
0000
0000
ENDCHAR
STARTCHAR 0x2358
ENCODING 9048
SWIDTH 960 0
DWIDTH 10 0
BBX 10 11 0 -2
BITMAP
0000
6180
3300
1A00
0C00
0C00
1A00
3300
6180
0000
0000
ENDCHAR
STARTCHAR 0x2359
ENCODING 9049
SWIDTH 960 0
DWIDTH 10 0
BBX 10 11 0 -2
BITMAP
0000
6180
6180
3300
1A00
0C00
0C00
0C00
0C00
0000
0000
ENDCHAR
STARTCHAR 0x235A
ENCODING 9050
SWIDTH 960 0
DWIDTH 10 0
BBX 10 11 0 -2
BITMAP
0000
3F80
0180
0300
0600
0C00
1800
3000
3F80
0000
0000
ENDCHAR
STARTCHAR 0x2361
ENCODING 9057
SWIDTH 960 0
DWIDTH 10 0
BBX 10 11 0 -2
BITMAP
0000
0000
0000
1E00
0300
1F00
3300
3300
1F00
0000
0000
ENDCHAR
STARTCHAR 0x2362
ENCODING 9058
SWIDTH 960 0
DWIDTH 10 0
BBX 10 11 0 -2
BITMAP
0000
3000
3000
3E00
3300
3300
3300
3300
3E00
0000
0000
ENDCHAR
STARTCHAR 0x2363
ENCODING 9059
SWIDTH 960 0
DWIDTH 10 0
BBX 10 11 0 -2
BITMAP
0000
0000
0000
1E00
3300
3000
3000
3300
1E00
0000
0000
ENDCHAR
STARTCHAR 0x2364
ENCODING 9060
SWIDTH 960 0
DWIDTH 10 0
BBX 10 11 0 -2
BITMAP
0000
0300
0300
1F00
3300
3300
3300
3300
1F00
0000
0000
ENDCHAR
STARTCHAR 0x2365
ENCODING 9061
SWIDTH 960 0
DWIDTH 10 0
BBX 10 11 0 -2
BITMAP
0000
0000
0000
1E00
3300
3F00
3000
3300
1E00
0000
0000
ENDCHAR
STARTCHAR 0x2366
ENCODING 9062
SWIDTH 960 0
DWIDTH 10 0
BBX 10 11 0 -2
BITMAP
0000
0700
0C00
0C00
3F00
0C00
0C00
0C00
0C00
0000
0000
ENDCHAR
STARTCHAR 0x2367
ENCODING 9063
SWIDTH 960 0
DWIDTH 10 0
BBX 10 11 0 -2
BITMAP
0000
0000
0000
1F00
3300
3300
3300
1F00
0300
3300
1E00
ENDCHAR
STARTCHAR 0x2368
ENCODING 9064
SWIDTH 960 0
DWIDTH 10 0
BBX 10 11 0 -2
BITMAP
0000
3000
3000
3600
3B00
3300
3300
3300
3300
0000
0000
ENDCHAR
STARTCHAR 0x2369
ENCODING 9065
SWIDTH 960 0
DWIDTH 10 0
BBX 10 11 0 -2
BITMAP
0C00
0C00
0000
0000
0C00
0C00
0C00
0C00
0C00
0000
0000
ENDCHAR
STARTCHAR 0x236A
ENCODING 9066
SWIDTH 960 0
DWIDTH 10 0
BBX 10 11 0 -2
BITMAP
0600
0600
0000
0000
0600
0600
0600
0600
0600
0600
3C00
ENDCHAR
STARTCHAR 0x236B
ENCODING 9067
SWIDTH 960 0
DWIDTH 10 0
BBX 10 11 0 -2
BITMAP
0000
3000
3000
3300
3600
3400
3A00
3300
3180
0000
0000
ENDCHAR
STARTCHAR 0x236C
ENCODING 9068
SWIDTH 960 0
DWIDTH 10 0
BBX 10 11 0 -2
BITMAP
0000
0C00
0C00
0C00
0C00
0C00
0C00
0C00
0C00
0000
0000
ENDCHAR
STARTCHAR 0x236D
ENCODING 9069
SWIDTH 960 0
DWIDTH 10 0
BBX 10 11 0 -2
BITMAP
0000
0000
0000
7F00
6D80
6D80
6D80
6D80
6D80
0000
0000
ENDCHAR
STARTCHAR 0x236E
ENCODING 9070
SWIDTH 960 0
DWIDTH 10 0
BBX 10 11 0 -2
BITMAP
0000
0000
0000
3600
3B00
3300
3300
3300
3300
0000
0000
ENDCHAR
STARTCHAR 0x236F
ENCODING 9071
SWIDTH 960 0
DWIDTH 10 0
BBX 10 11 0 -2
BITMAP
0000
0000
0000
1F00
3180
3180
3180
3180
1F00
0000
0000
ENDCHAR
STARTCHAR 0x2370
ENCODING 9072
SWIDTH 960 0
DWIDTH 10 0
BBX 10 11 0 -2
BITMAP
0000
0000
0000
3E00
3300
3300
3300
3300
3E00
3000
3000
ENDCHAR
STARTCHAR 0x2371
ENCODING 9073
SWIDTH 960 0
DWIDTH 10 0
BBX 10 11 0 -2
BITMAP
0000
0000
0000
1F00
3300
3300
3300
3300
1F00
0300
0300
ENDCHAR
STARTCHAR 0x2372
ENCODING 9074
SWIDTH 960 0
DWIDTH 10 0
BBX 10 11 0 -2
BITMAP
0000
0000
0000
1B00
1C00
1800
1800
1800
1800
0000
0000
ENDCHAR
STARTCHAR 0x2373
ENCODING 9075
SWIDTH 960 0
DWIDTH 10 0
BBX 10 11 0 -2
BITMAP
0000
0000
0000
1E00
3300
1E00
0300
3300
1E00
0000
0000
ENDCHAR
STARTCHAR 0x2374
ENCODING 9076
SWIDTH 960 0
DWIDTH 10 0
BBX 10 11 0 -2
BITMAP
0000
1800
1800
3E00
1800
1800
1800
1B00
0E00
0000
0000
ENDCHAR
STARTCHAR 0x2375
ENCODING 9077
SWIDTH 960 0
DWIDTH 10 0
BBX 10 11 0 -2
BITMAP
0000
0000
0000
3300
3300
3300
3300
3700
1D00
0000
0000
ENDCHAR
STARTCHAR 0x2376
ENCODING 9078
SWIDTH 960 0
DWIDTH 10 0
BBX 10 11 0 -2
BITMAP
0000
0000
0000
3300
3300
1A00
1A00
0C00
0C00
0000
0000
ENDCHAR
STARTCHAR 0x2377
ENCODING 9079
SWIDTH 960 0
DWIDTH 10 0
BBX 10 11 0 -2
BITMAP
0000
0000
0000
6D80
6D80
6A80
6A80
3300
3300
0000
0000
ENDCHAR
STARTCHAR 0x2378
ENCODING 9080
SWIDTH 960 0
DWIDTH 10 0
BBX 10 11 0 -2
BITMAP
0000
0000
0000
3300
1A00
0C00
0C00
1A00
3300
0000
0000
ENDCHAR
STARTCHAR 0x2379
ENCODING 9081
SWIDTH 960 0
DWIDTH 10 0
BBX 10 11 0 -2
BITMAP
0000
0000
0000
3300
3300
1B00
1A00
1A00
0C00
0C00
3800
ENDCHAR
STARTCHAR 0x237A
ENCODING 9082
SWIDTH 960 0
DWIDTH 10 0
BBX 10 11 0 -2
BITMAP
0000
0000
0000
3F00
0600
0C00
1800
3000
3F00
0000
0000
ENDCHAR
STARTCHAR 0x2421
ENCODING 9249
SWIDTH 960 0
DWIDTH 10 0
BBX 10 11 0 -2
BITMAP
0000
0000
0000
1800
7F80
1800
3F00
6A80
6D80
3B00
0000
ENDCHAR
STARTCHAR 0x2422
ENCODING 9250
SWIDTH 960 0
DWIDTH 10 0
BBX 10 11 0 -2
BITMAP
1800
1800
FFC0
1800
3F00
7680
D4C0
D4C0
7980
0700
0000
ENDCHAR
STARTCHAR 0x2423
ENCODING 9251
SWIDTH 960 0
DWIDTH 10 0
BBX 10 11 0 -2
BITMAP
0000
0000
0000
0000
3300
3300
6180
6180
6D80
3800
0000
ENDCHAR
STARTCHAR 0x2424
ENCODING 9252
SWIDTH 960 0
DWIDTH 10 0
BBX 10 11 0 -2
BITMAP
0000
0000
6000
6180
C180
C0C0
C0C0
6CC0
3800
0000
0000
ENDCHAR
STARTCHAR 0x2425
ENCODING 9253
SWIDTH 960 0
DWIDTH 10 0
BBX 10 11 0 -2
BITMAP
0000
0000
0000
3E00
0000
1E00
7300
0300
0600
1C00
0000
ENDCHAR
STARTCHAR 0x2426
ENCODING 9254
SWIDTH 960 0
DWIDTH 10 0
BBX 10 11 0 -2
BITMAP
0000
1C00
0700
0000
1F00
7180
0180
0180
0700
1C00
0000
ENDCHAR
STARTCHAR 0x2427
ENCODING 9255
SWIDTH 960 0
DWIDTH 10 0
BBX 10 11 0 -2
BITMAP
0000
0000
0000
1F00
0000
3F00
0600
0C00
1A00
3380
0000
ENDCHAR
STARTCHAR 0x2428
ENCODING 9256
SWIDTH 960 0
DWIDTH 10 0
BBX 10 11 0 -2
BITMAP
0000
1C00
0700
0000
7F00
0600
0C00
1A00
3600
E3C0
0000
ENDCHAR
STARTCHAR 0x2429
ENCODING 9257
SWIDTH 960 0
DWIDTH 10 0
BBX 10 11 0 -2
BITMAP
0000
0000
1800
1B00
7E80
1800
3F00
6980
6980
7700
0000
ENDCHAR
STARTCHAR 0x242A
ENCODING 9258
SWIDTH 960 0
DWIDTH 10 0
BBX 10 11 0 -2
BITMAP
1800
1800
7E80
18C0
1800
3F00
6980
D8C0
D8C0
7380
0000
ENDCHAR
STARTCHAR 0x242B
ENCODING 9259
SWIDTH 960 0
DWIDTH 10 0
BBX 10 11 0 -2
BITMAP
1800
1800
1980
FD80
36C0
36C0
36C0
6600
6600
1C00
0000
ENDCHAR
STARTCHAR 0x242C
ENCODING 9260
SWIDTH 960 0
DWIDTH 10 0
BBX 10 11 0 -2
BITMAP
1980
1AC0
1B00
FC00
3680
3680
36C0
66C0
6600
1C00
0000
ENDCHAR
STARTCHAR 0x242D
ENCODING 9261
SWIDTH 960 0
DWIDTH 10 0
BBX 10 11 0 -2
BITMAP
0C00
0D80
7E00
06C0
FF00
0600
3D00
6700
6000
3E00
0000
ENDCHAR
STARTCHAR 0x242E
ENCODING 9262
SWIDTH 960 0
DWIDTH 10 0
BBX 10 11 0 -2
BITMAP
1980
1AC0
7D00
0C00
FFC0
0600
3D00
6700
6000
3E00
0000
ENDCHAR
STARTCHAR 0x242F
ENCODING 9263
SWIDTH 960 0
DWIDTH 10 0
BBX 10 11 0 -2
BITMAP
0000
0600
0C00
1800
3000
3000
1800
0C00
0600
0600
0000
ENDCHAR
STARTCHAR 0x2430
ENCODING 9264
SWIDTH 960 0
DWIDTH 10 0
BBX 10 11 0 -2
BITMAP
0000
0C00
1980
36C0
6300
6000
3000
1800
0C00
0C00
0000
ENDCHAR
STARTCHAR 0x2431
ENCODING 9265
SWIDTH 960 0
DWIDTH 10 0
BBX 10 11 0 -2
BITMAP
0300
6300
6300
DFC0
C300
C300
C300
C300
6600
6C00
0000
ENDCHAR
STARTCHAR 0x2432
ENCODING 9266
SWIDTH 960 0
DWIDTH 10 0
BBX 10 11 0 -2
BITMAP
0180
66C0
6300
DFC0
C300
C300
C300
C300
6600
6C00
0000
ENDCHAR
STARTCHAR 0x2433
ENCODING 9267
SWIDTH 960 0
DWIDTH 10 0
BBX 10 11 0 -2
BITMAP
0000
0000
3F00
0000
0000
0000
3000
6000
6180
3F00
0000
ENDCHAR
STARTCHAR 0x2434
ENCODING 9268
SWIDTH 960 0
DWIDTH 10 0
BBX 10 11 0 -2
BITMAP
0000
0000
7E80
00C0
0300
0180
6000
C000
C300
7E00
0000
ENDCHAR
STARTCHAR 0x2435
ENCODING 9269
SWIDTH 960 0
DWIDTH 10 0
BBX 10 11 0 -2
BITMAP
0600
0600
06C0
FF00
0300
1E80
3380
3000
1800
0F00
0000
ENDCHAR
STARTCHAR 0x2436
ENCODING 9270
SWIDTH 960 0
DWIDTH 10 0
BBX 10 11 0 -2
BITMAP
0D80
0CC0
0D00
FE80
0600
3D00
6700
6000
3000
1E00
0000
ENDCHAR
STARTCHAR 0x2437
ENCODING 9271
SWIDTH 960 0
DWIDTH 10 0
BBX 10 11 0 -2
BITMAP
0000
3000
3000
3000
6000
6000
6180
6180
3300
1E00
0000
ENDCHAR
STARTCHAR 0x2438
ENCODING 9272
SWIDTH 960 0
DWIDTH 10 0
BBX 10 11 0 -2
BITMAP
0000
3180
36C0
3300
6000
6000
6180
6180
3300
1E00
0000
ENDCHAR
STARTCHAR 0x2439
ENCODING 9273
SWIDTH 960 0
DWIDTH 10 0
BBX 10 11 0 -2
BITMAP
0600
0600
FFC0
0600
1E00
3600
3600
1E00
0C00
3800
0000
ENDCHAR
STARTCHAR 0x243A
ENCODING 9274
SWIDTH 960 0
DWIDTH 10 0
BBX 10 11 0 -2
BITMAP
0600
0600
FFC0
0600
1E80
36C0
3700
1E80
0C00
3800
0000
ENDCHAR
STARTCHAR 0x243B
ENCODING 9275
SWIDTH 960 0
DWIDTH 10 0
BBX 10 11 0 -2
BITMAP
0300
3300
3300
37C0
FD00
3300
3700
3000
3000
1F80
0000
ENDCHAR
STARTCHAR 0x243C
ENCODING 9276
SWIDTH 960 0
DWIDTH 10 0
BBX 10 11 0 -2
BITMAP
0180
36C0
3300
37C0
FD00
3300
3700
3000
3000
1F80
0000
ENDCHAR
STARTCHAR 0x243D
ENCODING 9277
SWIDTH 960 0
DWIDTH 10 0
BBX 10 11 0 -2
BITMAP
0000
3F80
0300
0600
0C00
7FC0
0C00
1800
1800
0F80
0000
ENDCHAR
STARTCHAR 0x243E
ENCODING 9278
SWIDTH 960 0
DWIDTH 10 0
BBX 10 11 0 -2
BITMAP
0000
7E80
06C0
0D00
1800
FF80
1800
3000
3000
1E00
0000
ENDCHAR
STARTCHAR 0x243F
ENCODING 9279
SWIDTH 960 0
DWIDTH 10 0
BBX 10 11 0 -2
BITMAP
1800
1800
FF00
1800
1BC0
3000
3300
3600
6600
63C0
0000
ENDCHAR
STARTCHAR 0x2440
ENCODING 9280
SWIDTH 960 0
DWIDTH 10 0
BBX 10 11 0 -2
BITMAP
3180
36C0
FD00
3000
3780
6000
6600
6C00
CC00
C780
0000
ENDCHAR
STARTCHAR 0x2441
ENCODING 9281
SWIDTH 960 0
DWIDTH 10 0
BBX 10 11 0 -2
BITMAP
1800
1800
1BC0
FC00
1800
3700
3980
0180
0300
1E00
0000
ENDCHAR
STARTCHAR 0x2442
ENCODING 9282
SWIDTH 960 0
DWIDTH 10 0
BBX 10 11 0 -2
BITMAP
1980
18C0
1B00
FD80
1800
3700
3980
0180
0300
1E00
0000
ENDCHAR
STARTCHAR 0x2443
ENCODING 9283
SWIDTH 960 0
DWIDTH 10 0
BBX 10 11 0 -2
BITMAP
0000
0000
0000
0000
0E00
7B00
0180
0180
0300
1E00
0000
ENDCHAR
STARTCHAR 0x2444
ENCODING 9284
SWIDTH 960 0
DWIDTH 10 0
BBX 10 11 0 -2
BITMAP
0000
0000
1E00
F300
0180
0180
0180
0700
3C00
0000
0000
ENDCHAR
STARTCHAR 0x2445
ENCODING 9285
SWIDTH 960 0
DWIDTH 10 0
BBX 10 11 0 -2
BITMAP
0D80
06C0
1E00
F300
0180
0180
0180
0700
3C00
0000
0000
ENDCHAR
STARTCHAR 0x2446
ENCODING 9286
SWIDTH 960 0
DWIDTH 10 0
BBX 10 11 0 -2
BITMAP
0000
0000
1FC0
F600
0C00
1800
1800
1800
0C00
0700
0000
ENDCHAR
STARTCHAR 0x2447
ENCODING 9287
SWIDTH 960 0
DWIDTH 10 0
BBX 10 11 0 -2
BITMAP
0000
0000
1FC0
F400
1980
36C0
3300
3000
1800
0E00
0000
ENDCHAR
STARTCHAR 0x2448
ENCODING 9288
SWIDTH 960 0
DWIDTH 10 0
BBX 10 11 0 -2
BITMAP
0000
1800
1800
1800
0D80
0E00
1800
3000
3000
1F80
0000
ENDCHAR
STARTCHAR 0x2449
ENCODING 9289
SWIDTH 960 0
DWIDTH 10 0
BBX 10 11 0 -2
BITMAP
0180
36C0
3300
3000
1B00
1C00
3000
6000
6000
3F00
0000
ENDCHAR
STARTCHAR 0x244A
ENCODING 9290
SWIDTH 960 0
DWIDTH 10 0
BBX 10 11 0 -2
BITMAP
1800
1980
FEC0
3000
6300
6300
CF00
DB80
1B40
0E00
0000
ENDCHAR
STARTCHAR 0x244B
ENCODING 9291
SWIDTH 960 0
DWIDTH 10 0
BBX 10 11 0 -2
BITMAP
0000
3000
37C0
6000
6000
6600
6C00
6C00
37C0
3000
0000
ENDCHAR
STARTCHAR 0x244C
ENCODING 9292
SWIDTH 960 0
DWIDTH 10 0
BBX 10 11 0 -2
BITMAP
0600
6600
6600
6F00
7680
66C0
D4C0
D740
DD80
7740
0000
ENDCHAR
STARTCHAR 0x244D
ENCODING 9293
SWIDTH 960 0
DWIDTH 10 0
BBX 10 11 0 -2
BITMAP
3000
3000
3700
F580
38C0
30C0
73C0
D6C0
36C0
3380
0000
ENDCHAR
STARTCHAR 0x244E
ENCODING 9294
SWIDTH 960 0
DWIDTH 10 0
BBX 10 11 0 -2
BITMAP
0000
0000
1F00
3580
6CC0
CCC0
D8C0
D8C0
7180
0700
0000
ENDCHAR
STARTCHAR 0x244F
ENCODING 9295
SWIDTH 960 0
DWIDTH 10 0
BBX 10 11 0 -2
BITMAP
0300
6300
6300
DFC0
C300
C300
CF00
DB80
6B40
6E00
0000
ENDCHAR
STARTCHAR 0x2450
ENCODING 9296
SWIDTH 960 0
DWIDTH 10 0
BBX 10 11 0 -2
BITMAP
0180
66C0
6300
DFC0
C300
C300
CF00
DB80
6B40
6E00
0000
ENDCHAR
STARTCHAR 0x2451
ENCODING 9297
SWIDTH 960 0
DWIDTH 10 0
BBX 10 11 0 -2
BITMAP
0380
66C0
66C0
DF80
C300
C300
CF00
DB80
6B40
6E00
0000
ENDCHAR
STARTCHAR 0x2452
ENCODING 9298
SWIDTH 960 0
DWIDTH 10 0
BBX 10 11 0 -2
BITMAP
0000
0600
FA00
1B00
3380
3340
6300
6300
6600
3C00
0000
ENDCHAR
STARTCHAR 0x2453
ENCODING 9299
SWIDTH 960 0
DWIDTH 10 0
BBX 10 11 0 -2
BITMAP
0180
06C0
FB00
1800
3300
3380
6340
6300
6600
3C00
0000
ENDCHAR
STARTCHAR 0x2454
ENCODING 9300
SWIDTH 960 0
DWIDTH 10 0
BBX 10 11 0 -2
BITMAP
0380
06C0
FAC0
1B80
3340
3300
6300
6300
6600
3C00
0000
ENDCHAR
STARTCHAR 0x2455
ENCODING 9301
SWIDTH 960 0
DWIDTH 10 0
BBX 10 11 0 -2
BITMAP
0000
3F00
0300
0600
0C00
6D80
6680
C6C0
C6C0
1C00
0000
ENDCHAR
STARTCHAR 0x2456
ENCODING 9302
SWIDTH 960 0
DWIDTH 10 0
BBX 10 11 0 -2
BITMAP
0180
3EC0
0300
0680
0C00
6D80
6680
C6C0
C6C0
1C00
0000
ENDCHAR
STARTCHAR 0x2457
ENCODING 9303
SWIDTH 960 0
DWIDTH 10 0
BBX 10 11 0 -2
BITMAP
0380
3EC0
06C0
0780
0C00
6D80
6680
C6C0
C6C0
1C00
0000
ENDCHAR
STARTCHAR 0x2458
ENCODING 9304
SWIDTH 960 0
DWIDTH 10 0
BBX 10 11 0 -2
BITMAP
0000
0000
0000
0000
3C00
6600
C300
01C0
0000
0000
0000
ENDCHAR
STARTCHAR 0x2459
ENCODING 9305
SWIDTH 960 0
DWIDTH 10 0
BBX 10 11 0 -2
BITMAP
0000
0180
06C0
0300
3C00
6600
C300
01C0
0000
0000
0000
ENDCHAR
STARTCHAR 0x245A
ENCODING 9306
SWIDTH 960 0
DWIDTH 10 0
BBX 10 11 0 -2
BITMAP
0380
06C0
06C0
0380
3C00
6600
C300
01C0
0000
0000
0000
ENDCHAR
STARTCHAR 0x245B
ENCODING 9307
SWIDTH 960 0
DWIDTH 10 0
BBX 10 11 0 -2
BITMAP
0000
6FC0
6300
C300
DFC0
C300
CF00
DB80
6B40
6E00
0000
ENDCHAR
STARTCHAR 0x245C
ENCODING 9308
SWIDTH 960 0
DWIDTH 10 0
BBX 10 11 0 -2
BITMAP
00C0
6F40
6380
C300
DFC0
C300
CF00
DB80
6B40
6E00
0000
ENDCHAR
STARTCHAR 0x245D
ENCODING 9309
SWIDTH 960 0
DWIDTH 10 0
BBX 10 11 0 -2
BITMAP
0380
6EC0
66C0
C380
DF00
C300
CF00
DB80
6B40
6E00
0000
ENDCHAR
STARTCHAR 0x245E
ENCODING 9310
SWIDTH 960 0
DWIDTH 10 0
BBX 10 11 0 -2
BITMAP
0600
0600
FFC0
0600
7F80
0600
3E00
6700
6680
3C00
0000
ENDCHAR
STARTCHAR 0x245F
ENCODING 9311
SWIDTH 960 0
DWIDTH 10 0
BBX 10 11 0 -2
BITMAP
0000
7C00
0D80
0D80
0D80
7F80
D9C0
D980
7300
0E00
0000
ENDCHAR
STARTCHAR 0x2460
ENCODING 9312
SWIDTH 960 0
DWIDTH 10 0
BBX 10 11 0 -2
BITMAP
1800
1800
FD80
18C0
7800
D800
D800
7180
3180
1F00
0000
ENDCHAR
STARTCHAR 0x2461
ENCODING 9313
SWIDTH 960 0
DWIDTH 10 0
BBX 10 11 0 -2
BITMAP
0600
3600
3600
3F00
7680
D4C0
D4C0
D8C0
7180
0700
0000
ENDCHAR
STARTCHAR 0x2462
ENCODING 9314
SWIDTH 960 0
DWIDTH 10 0
BBX 10 11 0 -2
BITMAP
0C00
0C00
7F80
0C00
0C00
7F80
1800
1980
1980
0F00
0000
ENDCHAR
STARTCHAR 0x2463
ENCODING 9315
SWIDTH 960 0
DWIDTH 10 0
BBX 10 11 0 -2
BITMAP
0000
0000
0000
0600
3600
3700
7A80
1980
0D00
0C00
0000
ENDCHAR
STARTCHAR 0x2464
ENCODING 9316
SWIDTH 960 0
DWIDTH 10 0
BBX 10 11 0 -2
BITMAP
0600
3600
3600
3780
FB40
18C0
1B80
0C00
0C00
0C00
0000
ENDCHAR
STARTCHAR 0x2465
ENCODING 9317
SWIDTH 960 0
DWIDTH 10 0
BBX 10 11 0 -2
BITMAP
0000
0000
0000
0600
6F00
6A80
6A80
3700
3600
0C00
0000
ENDCHAR
STARTCHAR 0x2466
ENCODING 9318
SWIDTH 960 0
DWIDTH 10 0
BBX 10 11 0 -2
BITMAP
0600
0600
1F80
D6C0
D6C0
66C0
6AC0
6F80
0600
1C00
0000
ENDCHAR
STARTCHAR 0x2467
ENCODING 9319
SWIDTH 960 0
DWIDTH 10 0
BBX 10 11 0 -2
BITMAP
0000
0000
0000
0C00
0C00
0F00
0C00
3C00
6E00
3B00
0000
ENDCHAR
STARTCHAR 0x2468
ENCODING 9320
SWIDTH 960 0
DWIDTH 10 0
BBX 10 11 0 -2
BITMAP
0C00
0C00
0C00
0F80
0C00
0C00
3E00
6700
6680
3C00
0000
ENDCHAR
STARTCHAR 0x2469
ENCODING 9321
SWIDTH 960 0
DWIDTH 10 0
BBX 10 11 0 -2
BITMAP
0000
3800
0E00
0000
6000
6F00
7180
0180
0300
3E00
0000
ENDCHAR
STARTCHAR 0x246A
ENCODING 9322
SWIDTH 960 0
DWIDTH 10 0
BBX 10 11 0 -2
BITMAP
0000
3300
3300
3300
3300
3500
1B00
0300
0600
1C00
0000
ENDCHAR
STARTCHAR 0x246B
ENCODING 9323
SWIDTH 960 0
DWIDTH 10 0
BBX 10 11 0 -2
BITMAP
0000
3F00
0600
0C00
1E00
7300
1D80
3680
3700
1E00
0000
ENDCHAR
STARTCHAR 0x246C
ENCODING 9324
SWIDTH 960 0
DWIDTH 10 0
BBX 10 11 0 -2
BITMAP
3000
3000
3700
F580
3980
3180
7300
D300
3300
31C0
0000
ENDCHAR
STARTCHAR 0x246D
ENCODING 9325
SWIDTH 960 0
DWIDTH 10 0
BBX 10 11 0 -2
BITMAP
0000
3F00
0600
0C00
1E00
7300
0180
0180
0300
3E00
0000
ENDCHAR
STARTCHAR 0x246E
ENCODING 9326
SWIDTH 960 0
DWIDTH 10 0
BBX 10 11 0 -2
BITMAP
0000
0000
0000
1800
1800
7B00
1D80
1980
3980
6B00
0000
ENDCHAR
STARTCHAR 0x246F
ENCODING 9327
SWIDTH 960 0
DWIDTH 10 0
BBX 10 11 0 -2
BITMAP
3000
3000
3700
F580
38C0
30C0
70C0
D0C0
3180
3700
0000
ENDCHAR
STARTCHAR 0x2470
ENCODING 9328
SWIDTH 960 0
DWIDTH 10 0
BBX 10 11 0 -2
BITMAP
0000
7E00
0600
3F00
6D80
CCC0
CDC0
DAC0
76C0
0380
0000
ENDCHAR
STARTCHAR 0x2471
ENCODING 9329
SWIDTH 960 0
DWIDTH 10 0
BBX 10 11 0 -2
BITMAP
0000
7F80
0600
1F00
7180
1D80
3F00
3000
7B80
CEC0
0000
ENDCHAR
STARTCHAR 0x2472
ENCODING 9330
SWIDTH 960 0
DWIDTH 10 0
BBX 10 11 0 -2
BITMAP
0C00
0C00
7F80
1800
1DC0
3700
6D00
1B00
1800
0F80
0000
ENDCHAR
STARTCHAR 0x2473
ENCODING 9331
SWIDTH 960 0
DWIDTH 10 0
BBX 10 11 0 -2
BITMAP
0000
0C00
0C00
1800
1800
1C00
3600
36C0
66C0
6380
0000
ENDCHAR
STARTCHAR 0x2474
ENCODING 9332
SWIDTH 960 0
DWIDTH 10 0
BBX 10 11 0 -2
BITMAP
0180
38C0
0D00
0180
3E00
E300
0300
0300
0E00
3800
0000
ENDCHAR
STARTCHAR 0x2521
ENCODING 9505
SWIDTH 960 0
DWIDTH 10 0
BBX 10 11 0 -2
BITMAP
0000
0000
0000
0000
3F80
0180
0D00
0C00
0C00
3800
0000
ENDCHAR
STARTCHAR 0x2522
ENCODING 9506
SWIDTH 960 0
DWIDTH 10 0
BBX 10 11 0 -2
BITMAP
0000
0000
7FC0
00C0
0D80
0D00
0C00
0C00
1800
7000
0000
ENDCHAR
STARTCHAR 0x2523
ENCODING 9507
SWIDTH 960 0
DWIDTH 10 0
BBX 10 11 0 -2
BITMAP
0000
0000
0000
0180
0300
0E00
3A00
0600
0600
0600
0000
ENDCHAR
STARTCHAR 0x2524
ENCODING 9508
SWIDTH 960 0
DWIDTH 10 0
BBX 10 11 0 -2
BITMAP
0000
0180
0180
0300
0600
1E00
7600
0600
0600
0600
0000
ENDCHAR
STARTCHAR 0x2525
ENCODING 9509
SWIDTH 960 0
DWIDTH 10 0
BBX 10 11 0 -2
BITMAP
0000
0000
0000
0C00
0C00
3F80
3180
3180
0300
0E00
0000
ENDCHAR
STARTCHAR 0x2526
ENCODING 9510
SWIDTH 960 0
DWIDTH 10 0
BBX 10 11 0 -2
BITMAP
0C00
0C00
0C00
7FC0
60C0
60C0
0180
0180
0700
1C00
0000
ENDCHAR
STARTCHAR 0x2527
ENCODING 9511
SWIDTH 960 0
DWIDTH 10 0
BBX 10 11 0 -2
BITMAP
0000
0000
0000
0000
3F00
0C00
0C00
0C00
0C00
7F80
0000
ENDCHAR
STARTCHAR 0x2528
ENCODING 9512
SWIDTH 960 0
DWIDTH 10 0
BBX 10 11 0 -2
BITMAP
0000
0000
7F80
0C00
0C00
0C00
0C00
0C00
FFC0
0000
0000
ENDCHAR
STARTCHAR 0x2529
ENCODING 9513
SWIDTH 960 0
DWIDTH 10 0
BBX 10 11 0 -2
BITMAP
0000
0000
0000
0300
0300
3F80
0700
0D00
3B00
0700
0000
ENDCHAR
STARTCHAR 0x252A
ENCODING 9514
SWIDTH 960 0
DWIDTH 10 0
BBX 10 11 0 -2
BITMAP
0600
0600
0600
FFC0
0600
0E00
3A00
E600
0600
1E00
0000
ENDCHAR
STARTCHAR 0x252B
ENCODING 9515
SWIDTH 960 0
DWIDTH 10 0
BBX 10 11 0 -2
BITMAP
0C00
0C00
0C00
7FC0
0CC0
0CC0
0CC0
18C0
18C0
7380
0000
ENDCHAR
STARTCHAR 0x252C
ENCODING 9516
SWIDTH 960 0
DWIDTH 10 0
BBX 10 11 0 -2
BITMAP
1980
1AC0
1B00
FF80
1980
1980
1980
3180
3180
E700
0000
ENDCHAR
STARTCHAR 0x252D
ENCODING 9517
SWIDTH 960 0
DWIDTH 10 0
BBX 10 11 0 -2
BITMAP
0C00
0C00
0C00
FF80
0C00
0C00
FFC0
0600
0600
0600
0000
ENDCHAR
STARTCHAR 0x252E
ENCODING 9518
SWIDTH 960 0
DWIDTH 10 0
BBX 10 11 0 -2
BITMAP
1980
18C0
1B00
FE80
0C00
0C00
FFC0
0600
0600
0600
0000
ENDCHAR
STARTCHAR 0x252F
ENCODING 9519
SWIDTH 960 0
DWIDTH 10 0
BBX 10 11 0 -2
BITMAP
1800
1800
1F80
1980
3180
6180
0300
0300
0E00
3800
0000
ENDCHAR
STARTCHAR 0x2530
ENCODING 9520
SWIDTH 960 0
DWIDTH 10 0
BBX 10 11 0 -2
BITMAP
0180
36C0
3300
3F00
6300
C300
0600
0600
1C00
7000
0000
ENDCHAR
STARTCHAR 0x2531
ENCODING 9521
SWIDTH 960 0
DWIDTH 10 0
BBX 10 11 0 -2
BITMAP
3000
3000
3000
3FC0
6600
6600
0600
0600
0C00
3800
0000
ENDCHAR
STARTCHAR 0x2532
ENCODING 9522
SWIDTH 960 0
DWIDTH 10 0
BBX 10 11 0 -2
BITMAP
6180
66C0
6300
7F80
CC00
CC00
0C00
0C00
1800
7000
0000
ENDCHAR
STARTCHAR 0x2533
ENCODING 9523
SWIDTH 960 0
DWIDTH 10 0
BBX 10 11 0 -2
BITMAP
0000
0000
7F80
0180
0180
0180
0180
0180
7F80
0180
0000
ENDCHAR
STARTCHAR 0x2534
ENCODING 9524
SWIDTH 960 0
DWIDTH 10 0
BBX 10 11 0 -2
BITMAP
0D80
06C0
FF00
0300
0300
0300
0300
0300
FF00
0300
0000
ENDCHAR
STARTCHAR 0x2535
ENCODING 9525
SWIDTH 960 0
DWIDTH 10 0
BBX 10 11 0 -2
BITMAP
0300
3300
3300
FFC0
3300
3300
0300
0300
0600
1C00
0000
ENDCHAR
STARTCHAR 0x2536
ENCODING 9526
SWIDTH 960 0
DWIDTH 10 0
BBX 10 11 0 -2
BITMAP
0180
36C0
3300
FFC0
3300
3300
0300
0300
0600
1C00
0000
ENDCHAR
STARTCHAR 0x2537
ENCODING 9527
SWIDTH 960 0
DWIDTH 10 0
BBX 10 11 0 -2
BITMAP
0000
3800
0E00
00C0
70C0
1D80
0180
0300
0E00
3800
0000
ENDCHAR
STARTCHAR 0x2538
ENCODING 9528
SWIDTH 960 0
DWIDTH 10 0
BBX 10 11 0 -2
BITMAP
0180
76C0
1D00
0000
70C0
1CC0
0180
0300
0E00
7800
0000
ENDCHAR
STARTCHAR 0x2539
ENCODING 9529
SWIDTH 960 0
DWIDTH 10 0
BBX 10 11 0 -2
BITMAP
0000
0000
7F00
0300
0300
0600
0600
0D00
3980
E180
0000
ENDCHAR
STARTCHAR 0x253A
ENCODING 9530
SWIDTH 960 0
DWIDTH 10 0
BBX 10 11 0 -2
BITMAP
0D80
06C0
7F00
0300
0300
0600
0600
0D00
3980
E180
0000
ENDCHAR
STARTCHAR 0x253B
ENCODING 9531
SWIDTH 960 0
DWIDTH 10 0
BBX 10 11 0 -2
BITMAP
1800
1800
19C0
1B40
3CC0
E980
1B00
1800
1800
0FC0
0000
ENDCHAR
STARTCHAR 0x253C
ENCODING 9532
SWIDTH 960 0
DWIDTH 10 0
BBX 10 11 0 -2
BITMAP
1980
1AC0
1B00
1BC0
1EC0
F980
1B00
1800
1800
0FC0
0000
ENDCHAR
STARTCHAR 0x253D
ENCODING 9533
SWIDTH 960 0
DWIDTH 10 0
BBX 10 11 0 -2
BITMAP
0000
00C0
60C0
60C0
30C0
3180
0180
0300
0E00
3800
0000
ENDCHAR
STARTCHAR 0x253E
ENCODING 9534
SWIDTH 960 0
DWIDTH 10 0
BBX 10 11 0 -2
BITMAP
0D80
06C0
C000
C180
6180
6300
0300
0600
1C00
7000
0000
ENDCHAR
STARTCHAR 0x253F
ENCODING 9535
SWIDTH 960 0
DWIDTH 10 0
BBX 10 11 0 -2
BITMAP
1800
1800
1F80
1980
3580
6680
0300
0300
0E00
7800
0000
ENDCHAR
STARTCHAR 0x2540
ENCODING 9536
SWIDTH 960 0
DWIDTH 10 0
BBX 10 11 0 -2
BITMAP
0D80
36C0
3F00
3300
6B00
CD00
0600
0600
1C00
F000
0000
ENDCHAR
STARTCHAR 0x2541
ENCODING 9537
SWIDTH 960 0
DWIDTH 10 0
BBX 10 11 0 -2
BITMAP
0000
0780
7C00
0C00
0C00
FFC0
0C00
0C00
1800
7000
0000
ENDCHAR
STARTCHAR 0x2542
ENCODING 9538
SWIDTH 960 0
DWIDTH 10 0
BBX 10 11 0 -2
BITMAP
0180
06C0
7D00
0C00
0C00
FFC0
0C00
0C00
1800
7000
0000
ENDCHAR
STARTCHAR 0x2543
ENCODING 9539
SWIDTH 960 0
DWIDTH 10 0
BBX 10 11 0 -2
BITMAP
0000
0000
0000
0000
3580
3580
3580
0180
0300
1E00
0000
ENDCHAR
STARTCHAR 0x2544
ENCODING 9540
SWIDTH 960 0
DWIDTH 10 0
BBX 10 11 0 -2
BITMAP
0000
0000
6CC0
6CC0
36C0
36C0
0180
0180
0700
3C00
0000
ENDCHAR
STARTCHAR 0x2545
ENCODING 9541
SWIDTH 960 0
DWIDTH 10 0
BBX 10 11 0 -2
BITMAP
0180
06C0
DB00
D800
6D80
6D80
0300
0300
0E00
7800
0000
ENDCHAR
STARTCHAR 0x2546
ENCODING 9542
SWIDTH 960 0
DWIDTH 10 0
BBX 10 11 0 -2
BITMAP
0000
7F80
0000
0000
FFC0
0C00
0C00
0C00
1800
7000
0000
ENDCHAR
STARTCHAR 0x2547
ENCODING 9543
SWIDTH 960 0
DWIDTH 10 0
BBX 10 11 0 -2
BITMAP
0180
7EC0
0300
0000
FFC0
0C00
0C00
0C00
1800
7000
0000
ENDCHAR
STARTCHAR 0x2548
ENCODING 9544
SWIDTH 960 0
DWIDTH 10 0
BBX 10 11 0 -2
BITMAP
0000
3000
3000
3000
3800
3600
3380
3000
3000
3000
0000
ENDCHAR
STARTCHAR 0x2549
ENCODING 9545
SWIDTH 960 0
DWIDTH 10 0
BBX 10 11 0 -2
BITMAP
0180
36C0
3300
3000
3800
3600
3380
3000
3000
3000
0000
ENDCHAR
STARTCHAR 0x254A
ENCODING 9546
SWIDTH 960 0
DWIDTH 10 0
BBX 10 11 0 -2
BITMAP
0600
0600
0600
7FC0
0600
0600
0600
0600
0C00
3800
0000
ENDCHAR
STARTCHAR 0x254B
ENCODING 9547
SWIDTH 960 0
DWIDTH 10 0
BBX 10 11 0 -2
BITMAP
0000
0000
3F80
0000
0000
0000
0000
0000
7FC0
0000
0000
ENDCHAR
STARTCHAR 0x254C
ENCODING 9548
SWIDTH 960 0
DWIDTH 10 0
BBX 10 11 0 -2
BITMAP
0000
0000
7F80
0180
0180
1B00
0D00
0600
1D00
7180
0000
ENDCHAR
STARTCHAR 0x254D
ENCODING 9549
SWIDTH 960 0
DWIDTH 10 0
BBX 10 11 0 -2
BITMAP
0C00
0C00
0C00
7F80
0300
0600
1D00
F580
0CC0
0C00
0000
ENDCHAR
STARTCHAR 0x254E
ENCODING 9550
SWIDTH 960 0
DWIDTH 10 0
BBX 10 11 0 -2
BITMAP
0000
0000
0180
0180
0180
0300
0300
0600
1C00
7000
0000
ENDCHAR
STARTCHAR 0x254F
ENCODING 9551
SWIDTH 960 0
DWIDTH 10 0
BBX 10 11 0 -2
BITMAP
0000
0000
1800
1980
1980
3180
30C0
30C0
60C0
60C0
0000
ENDCHAR
STARTCHAR 0x2550
ENCODING 9552
SWIDTH 960 0
DWIDTH 10 0
BBX 10 11 0 -2
BITMAP
0180
06C0
3300
3000
3000
6300
6300
6180
C180
C180
0000
ENDCHAR
STARTCHAR 0x2551
ENCODING 9553
SWIDTH 960 0
DWIDTH 10 0
BBX 10 11 0 -2
BITMAP
0380
06C0
36C0
3380
3000
6300
6300
6180
C180
C180
0000
ENDCHAR
STARTCHAR 0x2552
ENCODING 9554
SWIDTH 960 0
DWIDTH 10 0
BBX 10 11 0 -2
BITMAP
0000
6000
6000
6380
6E00
7800
6000
6000
6000
3F80
0000
ENDCHAR
STARTCHAR 0x2553
ENCODING 9555
SWIDTH 960 0
DWIDTH 10 0
BBX 10 11 0 -2
BITMAP
0180
66C0
6300
6000
6780
7C00
6000
6000
6000
3F80
0000
ENDCHAR
STARTCHAR 0x2554
ENCODING 9556
SWIDTH 960 0
DWIDTH 10 0
BBX 10 11 0 -2
BITMAP
0380
66C0
66C0
6380
6E00
7800
6000
6000
6000
3F80
0000
ENDCHAR
STARTCHAR 0x2555
ENCODING 9557
SWIDTH 960 0
DWIDTH 10 0
BBX 10 11 0 -2
BITMAP
0000
0000
7FC0
00C0
00C0
00C0
0180
0180
0700
3C00
0000
ENDCHAR
STARTCHAR 0x2556
ENCODING 9558
SWIDTH 960 0
DWIDTH 10 0
BBX 10 11 0 -2
BITMAP
0D80
06C0
FF80
0180
0180
0180
0300
0300
0E00
7800
0000
ENDCHAR
STARTCHAR 0x2557
ENCODING 9559
SWIDTH 960 0
DWIDTH 10 0
BBX 10 11 0 -2
BITMAP
0380
06C0
FEC0
0380
0300
0300
0600
0600
1C00
7000
0000
ENDCHAR
STARTCHAR 0x2558
ENCODING 9560
SWIDTH 960 0
DWIDTH 10 0
BBX 10 11 0 -2
BITMAP
0000
0000
0000
3800
6C00
C600
0300
01C0
0000
0000
0000
ENDCHAR
STARTCHAR 0x2559
ENCODING 9561
SWIDTH 960 0
DWIDTH 10 0
BBX 10 11 0 -2
BITMAP
0000
0180
06C0
0300
3800
6C00
C600
0300
01C0
0000
0000
ENDCHAR
STARTCHAR 0x255A
ENCODING 9562
SWIDTH 960 0
DWIDTH 10 0
BBX 10 11 0 -2
BITMAP
0000
0380
06C0
06C0
3B80
6C00
C600
0300
01C0
0000
0000
ENDCHAR
STARTCHAR 0x255B
ENCODING 9563
SWIDTH 960 0
DWIDTH 10 0
BBX 10 11 0 -2
BITMAP
0C00
0C00
0C00
FFC0
0C00
0C00
6D80
CCC0
0C00
1C00
0000
ENDCHAR
STARTCHAR 0x255C
ENCODING 9564
SWIDTH 960 0
DWIDTH 10 0
BBX 10 11 0 -2
BITMAP
0680
0D40
0C00
FFC0
0C00
0C00
6D80
CCC0
0C00
1C00
0000
ENDCHAR
STARTCHAR 0x255D
ENCODING 9565
SWIDTH 960 0
DWIDTH 10 0
BBX 10 11 0 -2
BITMAP
0DC0
0D40
0D40
FFC0
0C00
0C00
6D80
CCC0
0C00
1C00
0000
ENDCHAR
STARTCHAR 0x255E
ENCODING 9566
SWIDTH 960 0
DWIDTH 10 0
BBX 10 11 0 -2
BITMAP
0000
0000
7FC0
00C0
0180
3300
1A00
0C00
0600
0300
0000
ENDCHAR
STARTCHAR 0x255F
ENCODING 9567
SWIDTH 960 0
DWIDTH 10 0
BBX 10 11 0 -2
BITMAP
0000
3C00
0780
0000
1C00
0700
0000
0000
3C00
0780
0000
ENDCHAR
STARTCHAR 0x2560
ENCODING 9568
SWIDTH 960 0
DWIDTH 10 0
BBX 10 11 0 -2
BITMAP
0000
1800
1800
1800
3180
3180
3180
6740
7CC0
00C0
0000
ENDCHAR
STARTCHAR 0x2561
ENCODING 9569
SWIDTH 960 0
DWIDTH 10 0
BBX 10 11 0 -2
BITMAP
0000
0180
0180
1980
0D80
0700
0300
0680
1CC0
7000
0000
ENDCHAR
STARTCHAR 0x2562
ENCODING 9570
SWIDTH 960 0
DWIDTH 10 0
BBX 10 11 0 -2
BITMAP
0000
0000
7F80
1800
1800
FFC0
1800
1800
1800
0F80
0000
ENDCHAR
STARTCHAR 0x2563
ENCODING 9571
SWIDTH 960 0
DWIDTH 10 0
BBX 10 11 0 -2
BITMAP
0000
0000
0000
1800
1800
1B80
3D80
0D00
0C00
0C00
0000
ENDCHAR
STARTCHAR 0x2564
ENCODING 9572
SWIDTH 960 0
DWIDTH 10 0
BBX 10 11 0 -2
BITMAP
1800
1800
1BC0
1EC0
F8C0
1980
0D80
0C00
0C00
0C00
0000
ENDCHAR
STARTCHAR 0x2565
ENCODING 9573
SWIDTH 960 0
DWIDTH 10 0
BBX 10 11 0 -2
BITMAP
0000
0000
0000
0000
3E00
0600
0600
0600
7F80
0000
0000
ENDCHAR
STARTCHAR 0x2566
ENCODING 9574
SWIDTH 960 0
DWIDTH 10 0
BBX 10 11 0 -2
BITMAP
0000
0000
7F00
0300
0300
0300
0300
0300
FFC0
0000
0000
ENDCHAR
STARTCHAR 0x2567
ENCODING 9575
SWIDTH 960 0
DWIDTH 10 0
BBX 10 11 0 -2
BITMAP
0000
0000
0000
0000
0000
3F00
0300
3F00
0300
3F00
0000
ENDCHAR
STARTCHAR 0x2568
ENCODING 9576
SWIDTH 960 0
DWIDTH 10 0
BBX 10 11 0 -2
BITMAP
0000
0000
7F80
0180
0180
7F80
0180
0180
7F80
0180
0000
ENDCHAR
STARTCHAR 0x2569
ENCODING 9577
SWIDTH 960 0
DWIDTH 10 0
BBX 10 11 0 -2
BITMAP
0000
3F80
0000
0000
7FC0
00C0
00C0
0180
0700
1C00
0000
ENDCHAR
STARTCHAR 0x256A
ENCODING 9578
SWIDTH 960 0
DWIDTH 10 0
BBX 10 11 0 -2
BITMAP
0000
3300
3300
3300
3300
3300
0300
0300
0600
1C00
0000
ENDCHAR
STARTCHAR 0x256B
ENCODING 9579
SWIDTH 960 0
DWIDTH 10 0
BBX 10 11 0 -2
BITMAP
0000
0C00
6C00
6C00
6CC0
6CC0
6D80
6D80
CD00
CE00
0000
ENDCHAR
STARTCHAR 0x256C
ENCODING 9580
SWIDTH 960 0
DWIDTH 10 0
BBX 10 11 0 -2
BITMAP
0000
3000
3000
3000
3000
3000
30C0
3180
3700
3C00
0000
ENDCHAR
STARTCHAR 0x256D
ENCODING 9581
SWIDTH 960 0
DWIDTH 10 0
BBX 10 11 0 -2
BITMAP
0000
0000
7FC0
60C0
60C0
60C0
60C0
60C0
7FC0
60C0
0000
ENDCHAR
STARTCHAR 0x256E
ENCODING 9582
SWIDTH 960 0
DWIDTH 10 0
BBX 10 11 0 -2
BITMAP
0000
0000
0000
0000
3F80
3180
3180
0180
0300
0E00
0000
ENDCHAR
STARTCHAR 0x256F
ENCODING 9583
SWIDTH 960 0
DWIDTH 10 0
BBX 10 11 0 -2
BITMAP
0000
0000
7FC0
60C0
60C0
60C0
0180
0180
0700
1C00
0000
ENDCHAR
STARTCHAR 0x2570
ENCODING 9584
SWIDTH 960 0
DWIDTH 10 0
BBX 10 11 0 -2
BITMAP
0000
0600
0600
7F80
3600
3600
3600
FFC0
0600
0600
0000
ENDCHAR
STARTCHAR 0x2571
ENCODING 9585
SWIDTH 960 0
DWIDTH 10 0
BBX 10 11 0 -2
BITMAP
0000
0000
7F80
0180
0300
0E00
0C00
0C00
FFC0
0000
0000
ENDCHAR
STARTCHAR 0x2572
ENCODING 9586
SWIDTH 960 0
DWIDTH 10 0
BBX 10 11 0 -2
BITMAP
0000
0000
7F80
0180
0180
7F80
0180
0300
0E00
3800
0000
ENDCHAR
STARTCHAR 0x2573
ENCODING 9587
SWIDTH 960 0
DWIDTH 10 0
BBX 10 11 0 -2
BITMAP
0000
0000
7000
1CC0
00C0
0180
0180
0300
0E00
3800
0000
ENDCHAR
STARTCHAR 0x2574
ENCODING 9588
SWIDTH 960 0
DWIDTH 10 0
BBX 10 11 0 -2
BITMAP
1980
1AC0
1B00
FF80
C180
C180
0300
0300
0E00
3800
0000
ENDCHAR
STARTCHAR 0x2575
ENCODING 9589
SWIDTH 960 0
DWIDTH 10 0
BBX 10 11 0 -2
BITMAP
0000
0000
0000
0C00
0C00
7F80
1980
1980
3180
3700
0000
ENDCHAR
STARTCHAR 0x2576
ENCODING 9590
SWIDTH 960 0
DWIDTH 10 0
BBX 10 11 0 -2
BITMAP
0000
0000
0000
3000
3000
3F80
6600
0600
0C00
3800
0000
ENDCHAR
STARTCHAR 0x2621
ENCODING 9761
SWIDTH 960 0
DWIDTH 10 0
BBX 10 11 0 -2
BITMAP
0000
3C00
0C00
1A00
1A00
3300
3F00
6180
6180
0000
0000
ENDCHAR
STARTCHAR 0x2622
ENCODING 9762
SWIDTH 960 0
DWIDTH 10 0
BBX 10 11 0 -2
BITMAP
0000
7E00
3300
3300
3F00
3180
3180
3180
7F00
0000
0000
ENDCHAR
STARTCHAR 0x2623
ENCODING 9763
SWIDTH 960 0
DWIDTH 10 0
BBX 10 11 0 -2
BITMAP
0000
3F80
1980
1800
1800
1800
1800
1800
3E00
0000
0000
ENDCHAR
STARTCHAR 0x2624
ENCODING 9764
SWIDTH 960 0
DWIDTH 10 0
BBX 10 11 0 -2
BITMAP
0000
0C00
0C00
1A00
1A00
3300
3300
6180
7F80
0000
0000
ENDCHAR
STARTCHAR 0x2625
ENCODING 9765
SWIDTH 960 0
DWIDTH 10 0
BBX 10 11 0 -2
BITMAP
0000
7F80
3180
3600
3E00
3600
3000
3180
7F80
0000
0000
ENDCHAR
STARTCHAR 0x2626
ENCODING 9766
SWIDTH 960 0
DWIDTH 10 0
BBX 10 11 0 -2
BITMAP
0000
3F80
3180
0300
0600
0C00
1980
3180
3F80
0000
0000
ENDCHAR
STARTCHAR 0x2627
ENCODING 9767
SWIDTH 960 0
DWIDTH 10 0
BBX 10 11 0 -2
BITMAP
0000
7BC0
3180
3180
3F80
3180
3180
3180
7BC0
0000
0000
ENDCHAR
STARTCHAR 0x2628
ENCODING 9768
SWIDTH 960 0
DWIDTH 10 0
BBX 10 11 0 -2
BITMAP
0000
1F00
3180
6B40
6F40
6B40
60C0
3180
1F00
0000
0000
ENDCHAR
STARTCHAR 0x2629
ENCODING 9769
SWIDTH 960 0
DWIDTH 10 0
BBX 10 11 0 -2
BITMAP
0000
1E00
0C00
0C00
0C00
0C00
0C00
0C00
1E00
0000
0000
ENDCHAR
STARTCHAR 0x262A
ENCODING 9770
SWIDTH 960 0
DWIDTH 10 0
BBX 10 11 0 -2
BITMAP
0000
7B80
3600
3400
3800
3400
3600
3300
7B80
0000
0000
ENDCHAR
STARTCHAR 0x262B
ENCODING 9771
SWIDTH 960 0
DWIDTH 10 0
BBX 10 11 0 -2
BITMAP
0000
3C00
0C00
1A00
1A00
3300
3300
6180
6780
0000
0000
ENDCHAR
STARTCHAR 0x262C
ENCODING 9772
SWIDTH 960 0
DWIDTH 10 0
BBX 10 11 0 -2
BITMAP
0000
F3C0
7380
6A80
6A80
6D80
6D80
6180
F3C0
0000
0000
ENDCHAR
STARTCHAR 0x262D
ENCODING 9773
SWIDTH 960 0
DWIDTH 10 0
BBX 10 11 0 -2
BITMAP
0000
7BC0
3980
3580
3580
3680
3680
3380
7B80
0000
0000
ENDCHAR
STARTCHAR 0x262E
ENCODING 9774
SWIDTH 960 0
DWIDTH 10 0
BBX 10 11 0 -2
BITMAP
0000
1FC0
3180
0000
1F00
0000
0000
3180
7F00
0000
0000
ENDCHAR
STARTCHAR 0x262F
ENCODING 9775
SWIDTH 960 0
DWIDTH 10 0
BBX 10 11 0 -2
BITMAP
0000
1E00
3300
6180
6180
6180
6180
3300
1E00
0000
0000
ENDCHAR
STARTCHAR 0x2630
ENCODING 9776
SWIDTH 960 0
DWIDTH 10 0
BBX 10 11 0 -2
BITMAP
0000
7F80
3300
3300
3300
3300
3300
3300
7B80
0000
0000
ENDCHAR
STARTCHAR 0x2631
ENCODING 9777
SWIDTH 960 0
DWIDTH 10 0
BBX 10 11 0 -2
BITMAP
0000
3F00
1980
1980
1980
1F00
1800
1800
3C00
0000
0000
ENDCHAR
STARTCHAR 0x2632
ENCODING 9778
SWIDTH 960 0
DWIDTH 10 0
BBX 10 11 0 -2
BITMAP
0000
3F80
1980
0C00
0600
0C00
1980
3180
3F80
0000
0000
ENDCHAR
STARTCHAR 0x2633
ENCODING 9779
SWIDTH 960 0
DWIDTH 10 0
BBX 10 11 0 -2
BITMAP
0000
7F80
6D80
6D80
0C00
0C00
0C00
0C00
1E00
0000
0000
ENDCHAR
STARTCHAR 0x2634
ENCODING 9780
SWIDTH 960 0
DWIDTH 10 0
BBX 10 11 0 -2
BITMAP
0000
7380
DAC0
0C00
0C00
0C00
0C00
0C00
1E00
0000
0000
ENDCHAR
STARTCHAR 0x2635
ENCODING 9781
SWIDTH 960 0
DWIDTH 10 0
BBX 10 11 0 -2
BITMAP
0000
3F00
0C00
3F00
6D80
6D80
3F00
0C00
3F00
0000
0000
ENDCHAR
STARTCHAR 0x2636
ENCODING 9782
SWIDTH 960 0
DWIDTH 10 0
BBX 10 11 0 -2
BITMAP
0000
7B80
3300
1A00
0C00
0C00
1A00
3300
7B80
0000
0000
ENDCHAR
STARTCHAR 0x2637
ENCODING 9783
SWIDTH 960 0
DWIDTH 10 0
BBX 10 11 0 -2
BITMAP
0000
1E00
6D80
D540
3500
1E00
0C00
0C00
1E00
0000
0000
ENDCHAR
STARTCHAR 0x2638
ENCODING 9784
SWIDTH 960 0
DWIDTH 10 0
BBX 10 11 0 -2
BITMAP
0000
1E00
3300
6180
6180
6180
3300
6A80
7B80
0000
0000
ENDCHAR
STARTCHAR 0x2641
ENCODING 9793
SWIDTH 960 0
DWIDTH 10 0
BBX 10 11 0 -2
BITMAP
0000
0000
0000
1CC0
3680
6700
6600
6E00
3B00
0000
0000
ENDCHAR
STARTCHAR 0x2642
ENCODING 9794
SWIDTH 960 0
DWIDTH 10 0
BBX 10 11 0 -2
BITMAP
0000
0F00
1980
1980
3700
3300
3180
6980
6F00
6000
6000
ENDCHAR
STARTCHAR 0x2643
ENCODING 9795
SWIDTH 960 0
DWIDTH 10 0
BBX 10 11 0 -2
BITMAP
0000
0000
0000
3B80
6E00
0C00
1800
1800
3000
3000
0000
ENDCHAR
STARTCHAR 0x2644
ENCODING 9796
SWIDTH 960 0
DWIDTH 10 0
BBX 10 11 0 -2
BITMAP
0000
0F00
1980
0C00
1A00
3300
6300
6600
3C00
0000
0000
ENDCHAR
STARTCHAR 0x2645
ENCODING 9797
SWIDTH 960 0
DWIDTH 10 0
BBX 10 11 0 -2
BITMAP
0000
0000
0000
0F00
1980
1E00
3000
3180
1F00
0000
0000
ENDCHAR
STARTCHAR 0x2646
ENCODING 9798
SWIDTH 960 0
DWIDTH 10 0
BBX 10 11 0 -2
BITMAP
0000
1B80
3600
1C00
1800
3000
3000
1800
0C00
0600
3C00
ENDCHAR
STARTCHAR 0x2647
ENCODING 9799
SWIDTH 960 0
DWIDTH 10 0
BBX 10 11 0 -2
BITMAP
0000
0000
0000
3B00
6D80
1980
3300
3300
6600
0600
0600
ENDCHAR
STARTCHAR 0x2648
ENCODING 9800
SWIDTH 960 0
DWIDTH 10 0
BBX 10 11 0 -2
BITMAP
0000
0F00
1980
3180
3F80
6300
6300
6600
3C00
0000
0000
ENDCHAR
STARTCHAR 0x2649
ENCODING 9801
SWIDTH 960 0
DWIDTH 10 0
BBX 10 11 0 -2
BITMAP
0000
0000
1800
1800
3000
3000
6180
6700
3C00
0000
0000
ENDCHAR
STARTCHAR 0x264A
ENCODING 9802
SWIDTH 960 0
DWIDTH 10 0
BBX 10 11 0 -2
BITMAP
0000
0000
0000
19C0
1B00
3600
3C00
6D80
6700
0000
0000
ENDCHAR
STARTCHAR 0x264B
ENCODING 9803
SWIDTH 960 0
DWIDTH 10 0
BBX 10 11 0 -2
BITMAP
0000
1C00
0600
0600
0600
1E00
3600
6300
C1C0
0000
0000
ENDCHAR
STARTCHAR 0x264C
ENCODING 9804
SWIDTH 960 0
DWIDTH 10 0
BBX 10 11 0 -2
BITMAP
0000
0000
0000
1980
1980
3300
3300
36C0
6D80
6000
6000
ENDCHAR
STARTCHAR 0x264D
ENCODING 9805
SWIDTH 960 0
DWIDTH 10 0
BBX 10 11 0 -2
BITMAP
0000
0000
0000
70C0
18C0
1980
3300
3600
3800
0000
0000
ENDCHAR
STARTCHAR 0x264E
ENCODING 9806
SWIDTH 960 0
DWIDTH 10 0
BBX 10 11 0 -2
BITMAP
0000
0780
0C00
1F80
3000
3F00
6000
3C00
0600
0600
3C00
ENDCHAR
STARTCHAR 0x264F
ENCODING 9807
SWIDTH 960 0
DWIDTH 10 0
BBX 10 11 0 -2
BITMAP
0000
0000
0000
0F00
1980
3180
3180
3300
1E00
0000
0000
ENDCHAR
STARTCHAR 0x2650
ENCODING 9808
SWIDTH 960 0
DWIDTH 10 0
BBX 10 11 0 -2
BITMAP
0000
0000
00C0
3F80
6B00
1B00
3600
36C0
6380
0000
0000
ENDCHAR
STARTCHAR 0x2651
ENCODING 9809
SWIDTH 960 0
DWIDTH 10 0
BBX 10 11 0 -2
BITMAP
0000
0000
0000
0F00
1980
3180
3180
3300
6E00
6000
6000
ENDCHAR
STARTCHAR 0x2652
ENCODING 9810
SWIDTH 960 0
DWIDTH 10 0
BBX 10 11 0 -2
BITMAP
0000
0000
00C0
1F80
3300
6300
6300
6600
3C00
0000
0000
ENDCHAR
STARTCHAR 0x2653
ENCODING 9811
SWIDTH 960 0
DWIDTH 10 0
BBX 10 11 0 -2
BITMAP
0000
0000
00C0
3F80
6C00
0C00
18C0
1980
0F00
0000
0000
ENDCHAR
STARTCHAR 0x2654
ENCODING 9812
SWIDTH 960 0
DWIDTH 10 0
BBX 10 11 0 -2
BITMAP
0000
0000
3300
3180
3180
6300
6300
6600
3C00
0000
0000
ENDCHAR
STARTCHAR 0x2655
ENCODING 9813
SWIDTH 960 0
DWIDTH 10 0
BBX 10 11 0 -2
BITMAP
0000
0600
0600
1F00
3580
6D80
6D80
6D00
3E00
1800
1800
ENDCHAR
STARTCHAR 0x2656
ENCODING 9814
SWIDTH 960 0
DWIDTH 10 0
BBX 10 11 0 -2
BITMAP
0000
0000
0000
38C0
0D80
0D00
0E00
1C00
3400
6600
C380
ENDCHAR
STARTCHAR 0x2657
ENCODING 9815
SWIDTH 960 0
DWIDTH 10 0
BBX 10 11 0 -2
BITMAP
0000
0600
0600
E6C0
34C0
3580
6D80
6D00
3E00
1800
1800
ENDCHAR
STARTCHAR 0x2658
ENCODING 9816
SWIDTH 960 0
DWIDTH 10 0
BBX 10 11 0 -2
BITMAP
0000
0000
0000
0000
60C0
6CC0
CCC0
DAC0
7380
0000
0000
ENDCHAR
STARTCHAR 0x2721
ENCODING 10017
SWIDTH 960 0
DWIDTH 10 0
BBX 10 11 0 -2
BITMAP
0000
3C00
0C00
1A00
1A00
3300
3F00
6180
6180
0000
0000
ENDCHAR
STARTCHAR 0x2722
ENCODING 10018
SWIDTH 960 0
DWIDTH 10 0
BBX 10 11 0 -2
BITMAP
0000
7F00
3180
3000
3F00
3180
3180
3180
7F00
0000
0000
ENDCHAR
STARTCHAR 0x2723
ENCODING 10019
SWIDTH 960 0
DWIDTH 10 0
BBX 10 11 0 -2
BITMAP
0000
7E00
3300
3300
3F00
3180
3180
3180
7F00
0000
0000
ENDCHAR
STARTCHAR 0x2724
ENCODING 10020
SWIDTH 960 0
DWIDTH 10 0
BBX 10 11 0 -2
BITMAP
0000
3F80
1980
18C0
1800
1800
1800
1800
3E00
0000
0000
ENDCHAR
STARTCHAR 0x2725
ENCODING 10021
SWIDTH 960 0
DWIDTH 10 0
BBX 10 11 0 -2
BITMAP
0000
3F80
1B00
1B00
1B00
1B00
3300
3300
7F80
C0C0
0000
ENDCHAR
STARTCHAR 0x2726
ENCODING 10022
SWIDTH 960 0
DWIDTH 10 0
BBX 10 11 0 -2
BITMAP
0000
7F00
3180
3600
3E00
3600
3000
3180
7F80
0000
0000
ENDCHAR
STARTCHAR 0x2727
ENCODING 10023
SWIDTH 960 0
DWIDTH 10 0
BBX 10 11 0 -2
BITMAP
3B80
0000
7F00
3180
3600
3E00
3600
3180
7F80
0000
0000
ENDCHAR
STARTCHAR 0x2728
ENCODING 10024
SWIDTH 960 0
DWIDTH 10 0
BBX 10 11 0 -2
BITMAP
0000
1E00
6D80
D540
3500
1E00
3500
6D80
EEC0
0000
0000
ENDCHAR
STARTCHAR 0x2729
ENCODING 10025
SWIDTH 960 0
DWIDTH 10 0
BBX 10 11 0 -2
BITMAP
0000
1F00
7180
6180
0F00
0300
6180
7180
1F00
0000
0000
ENDCHAR
STARTCHAR 0x272A
ENCODING 10026
SWIDTH 960 0
DWIDTH 10 0
BBX 10 11 0 -2
BITMAP
0000
7BC0
3180
3380
3680
3580
3980
3180
7BC0
0000
0000
ENDCHAR
STARTCHAR 0x272B
ENCODING 10027
SWIDTH 960 0
DWIDTH 10 0
BBX 10 11 0 -2
BITMAP
1B00
0E00
7BC0
3180
3380
3680
3980
3180
7BC0
0000
0000
ENDCHAR
STARTCHAR 0x272C
ENCODING 10028
SWIDTH 960 0
DWIDTH 10 0
BBX 10 11 0 -2
BITMAP
0000
7980
3340
3600
3C00
3600
3300
3180
7BC0
0000
0000
ENDCHAR
STARTCHAR 0x272D
ENCODING 10029
SWIDTH 960 0
DWIDTH 10 0
BBX 10 11 0 -2
BITMAP
0000
3FC0
0D80
0D80
0D80
0D80
CD80
D980
73C0
0000
0000
ENDCHAR
STARTCHAR 0x272E
ENCODING 10030
SWIDTH 960 0
DWIDTH 10 0
BBX 10 11 0 -2
BITMAP
0000
7380
3300
3300
3B00
6A80
6D80
6D80
F3C0
0000
0000
ENDCHAR
STARTCHAR 0x272F
ENCODING 10031
SWIDTH 960 0
DWIDTH 10 0
BBX 10 11 0 -2
BITMAP
0000
7BC0
3180
3180
3F80
3180
3180
3180
7BC0
0000
0000
ENDCHAR
STARTCHAR 0x2730
ENCODING 10032
SWIDTH 960 0
DWIDTH 10 0
BBX 10 11 0 -2
BITMAP
0000
1E00
3300
6180
6180
6180
6180
3300
1E00
0000
0000
ENDCHAR
STARTCHAR 0x2731
ENCODING 10033
SWIDTH 960 0
DWIDTH 10 0
BBX 10 11 0 -2
BITMAP
0000
7FC0
3180
3180
3180
3180
3180
3180
7BC0
0000
0000
ENDCHAR
STARTCHAR 0x2732
ENCODING 10034
SWIDTH 960 0
DWIDTH 10 0
BBX 10 11 0 -2
BITMAP
0000
7F00
3180
3180
3180
3F00
3000
3000
7800
0000
0000
ENDCHAR
STARTCHAR 0x2733
ENCODING 10035
SWIDTH 960 0
DWIDTH 10 0
BBX 10 11 0 -2
BITMAP
0000
1E80
3380
6180
6000
6000
6000
3180
1F00
0000
0000
ENDCHAR
STARTCHAR 0x2734
ENCODING 10036
SWIDTH 960 0
DWIDTH 10 0
BBX 10 11 0 -2
BITMAP
0000
7F80
6D80
CCC0
0C00
0C00
0C00
0C00
1E00
0000
0000
ENDCHAR
STARTCHAR 0x2735
ENCODING 10037
SWIDTH 960 0
DWIDTH 10 0
BBX 10 11 0 -2
BITMAP
0000
7BC0
3180
1980
1B00
0D00
0D00
3600
3600
1C00
0000
ENDCHAR
STARTCHAR 0x2736
ENCODING 10038
SWIDTH 960 0
DWIDTH 10 0
BBX 10 11 0 -2
BITMAP
0000
3F00
0C00
7F80
CCC0
CCC0
7F80
0C00
3F00
0000
0000
ENDCHAR
STARTCHAR 0x2737
ENCODING 10039
SWIDTH 960 0
DWIDTH 10 0
BBX 10 11 0 -2
BITMAP
0000
7BC0
3180
1B00
0E00
1B00
3180
3180
7BC0
0000
0000
ENDCHAR
STARTCHAR 0x2738
ENCODING 10040
SWIDTH 960 0
DWIDTH 10 0
BBX 10 11 0 -2
BITMAP
0000
F780
6300
6300
6300
6300
6300
6300
FF80
00C0
0000
ENDCHAR
STARTCHAR 0x2739
ENCODING 10041
SWIDTH 960 0
DWIDTH 10 0
BBX 10 11 0 -2
BITMAP
0000
7BC0
3180
3180
3180
3380
1E80
0180
03C0
0000
0000
ENDCHAR
STARTCHAR 0x273A
ENCODING 10042
SWIDTH 960 0
DWIDTH 10 0
BBX 10 11 0 -2
BITMAP
0000
EDC0
6D80
6D80
6D80
6D80
6D80
6D80
FFC0
0000
0000
ENDCHAR
STARTCHAR 0x273B
ENCODING 10043
SWIDTH 960 0
DWIDTH 10 0
BBX 10 11 0 -2
BITMAP
0000
EDC0
6D80
6D80
6D80
6D80
6D80
6D80
FFC0
0040
0000
ENDCHAR
STARTCHAR 0x273C
ENCODING 10044
SWIDTH 960 0
DWIDTH 10 0
BBX 10 11 0 -2
BITMAP
0000
7E00
6800
D800
1F80
18C0
18C0
18C0
3F80
0000
0000
ENDCHAR
STARTCHAR 0x273D
ENCODING 10045
SWIDTH 960 0
DWIDTH 10 0
BBX 10 11 0 -2
BITMAP
0000
F3C0
6180
6180
7D80
6680
6680
6680
FDC0
0000
0000
ENDCHAR
STARTCHAR 0x273E
ENCODING 10046
SWIDTH 960 0
DWIDTH 10 0
BBX 10 11 0 -2
BITMAP
0000
7C00
3000
3000
3F00
3180
3180
3180
7F00
0000
0000
ENDCHAR
STARTCHAR 0x273F
ENCODING 10047
SWIDTH 960 0
DWIDTH 10 0
BBX 10 11 0 -2
BITMAP
0000
6E00
7300
6180
1D80
3780
0180
6300
3E00
0000
0000
ENDCHAR
STARTCHAR 0x2740
ENCODING 10048
SWIDTH 960 0
DWIDTH 10 0
BBX 10 11 0 -2
BITMAP
0000
F780
6CC0
6CC0
7CC0
6CC0
6CC0
6CC0
F780
0000
0000
ENDCHAR
STARTCHAR 0x2741
ENCODING 10049
SWIDTH 960 0
DWIDTH 10 0
BBX 10 11 0 -2
BITMAP
0000
3F80
6300
6300
6300
3F00
0D00
1B00
7780
0000
0000
ENDCHAR
STARTCHAR 0x2751
ENCODING 10065
SWIDTH 960 0
DWIDTH 10 0
BBX 10 11 0 -2
BITMAP
0000
0000
0000
3E00
0300
3F00
6300
6700
3D80
0000
0000
ENDCHAR
STARTCHAR 0x2752
ENCODING 10066
SWIDTH 960 0
DWIDTH 10 0
BBX 10 11 0 -2
BITMAP
0180
0F00
1800
3700
3980
3180
3180
3180
1F00
0000
0000
ENDCHAR
STARTCHAR 0x2753
ENCODING 10067
SWIDTH 960 0
DWIDTH 10 0
BBX 10 11 0 -2
BITMAP
0000
0000
0000
7F00
3180
3F00
3180
3180
7F00
0000
0000
ENDCHAR
STARTCHAR 0x2754
ENCODING 10068
SWIDTH 960 0
DWIDTH 10 0
BBX 10 11 0 -2
BITMAP
0000
0000
0000
7F00
3300
3180
3000
3000
7800
0000
0000
ENDCHAR
STARTCHAR 0x2755
ENCODING 10069
SWIDTH 960 0
DWIDTH 10 0
BBX 10 11 0 -2
BITMAP
0000
0000
0000
3F80
1B00
1B00
1B00
3300
7F80
C0C0
0000
ENDCHAR
STARTCHAR 0x2756
ENCODING 10070
SWIDTH 960 0
DWIDTH 10 0
BBX 10 11 0 -2
BITMAP
0000
0000
0000
1F00
3180
3F80
3000
3180
1F00
0000
0000
ENDCHAR
STARTCHAR 0x2757
ENCODING 10071
SWIDTH 960 0
DWIDTH 10 0
BBX 10 11 0 -2
BITMAP
3B80
0000
0000
1F00
3180
3F80
3000
3180
1F00
0000
0000
ENDCHAR
STARTCHAR 0x2758
ENCODING 10072
SWIDTH 960 0
DWIDTH 10 0
BBX 10 11 0 -2
BITMAP
0000
0000
0000
6D80
D540
1E00
3500
3500
EDC0
0000
0000
ENDCHAR
STARTCHAR 0x2759
ENCODING 10073
SWIDTH 960 0
DWIDTH 10 0
BBX 10 11 0 -2
BITMAP
0000
0000
0000
3F00
6180
0F00
0180
6180
3F00
0000
0000
ENDCHAR
STARTCHAR 0x275A
ENCODING 10074
SWIDTH 960 0
DWIDTH 10 0
BBX 10 11 0 -2
BITMAP
0000
0000
0000
79C0
3380
3680
3580
3980
73C0
0000
0000
ENDCHAR
STARTCHAR 0x275B
ENCODING 10075
SWIDTH 960 0
DWIDTH 10 0
BBX 10 11 0 -2
BITMAP
1B00
0E00
0000
71C0
3380
3680
3580
3980
73C0
0000
0000
ENDCHAR
STARTCHAR 0x275C
ENCODING 10076
SWIDTH 960 0
DWIDTH 10 0
BBX 10 11 0 -2
BITMAP
0000
0000
0000
7B80
36C0
3C00
3700
3180
7BC0
0000
0000
ENDCHAR
STARTCHAR 0x275D
ENCODING 10077
SWIDTH 960 0
DWIDTH 10 0
BBX 10 11 0 -2
BITMAP
0000
0000
0000
3FC0
1980
1980
D980
D980
73C0
0000
0000
ENDCHAR
STARTCHAR 0x275E
ENCODING 10078
SWIDTH 960 0
DWIDTH 10 0
BBX 10 11 0 -2
BITMAP
0000
0000
0000
71C0
3180
3B80
3680
3180
7BC0
0000
0000
ENDCHAR
STARTCHAR 0x275F
ENCODING 10079
SWIDTH 960 0
DWIDTH 10 0
BBX 10 11 0 -2
BITMAP
0000
0000
0000
7BC0
3180
3F80
3180
3180
7BC0
0000
0000
ENDCHAR
STARTCHAR 0x2760
ENCODING 10080
SWIDTH 960 0
DWIDTH 10 0
BBX 10 11 0 -2
BITMAP
0000
0000
0000
1F00
3180
3180
3180
3180
1F00
0000
0000
ENDCHAR
STARTCHAR 0x2761
ENCODING 10081
SWIDTH 960 0
DWIDTH 10 0
BBX 10 11 0 -2
BITMAP
0000
0000
0000
7FC0
3180
3180
3180
3180
7BC0
0000
0000
ENDCHAR
STARTCHAR 0x2762
ENCODING 10082
SWIDTH 960 0
DWIDTH 10 0
BBX 10 11 0 -2
BITMAP
0000
0000
0000
7700
3980
3180
3180
3980
3700
3000
7800
ENDCHAR
STARTCHAR 0x2763
ENCODING 10083
SWIDTH 960 0
DWIDTH 10 0
BBX 10 11 0 -2
BITMAP
0000
0000
0000
1F00
3180
3000
3000
3180
1F00
0000
0000
ENDCHAR
STARTCHAR 0x2764
ENCODING 10084
SWIDTH 960 0
DWIDTH 10 0
BBX 10 11 0 -2
BITMAP
0000
0000
0000
7F80
6D80
CCC0
0C00
0C00
3F00
0000
0000
ENDCHAR
STARTCHAR 0x2765
ENCODING 10085
SWIDTH 960 0
DWIDTH 10 0
BBX 10 11 0 -2
BITMAP
0000
0000
0000
7B80
3300
3300
1A00
1A00
6C00
6C00
3800
ENDCHAR
STARTCHAR 0x2766
ENCODING 10086
SWIDTH 960 0
DWIDTH 10 0
BBX 10 11 0 -2
BITMAP
0000
1C00
0C00
7580
DEC0
CCC0
CCC0
DEC0
7580
0C00
1E00
ENDCHAR
STARTCHAR 0x2767
ENCODING 10087
SWIDTH 960 0
DWIDTH 10 0
BBX 10 11 0 -2
BITMAP
0000
0000
0000
7BC0
1B00
0E00
1B00
3180
7BC0
0000
0000
ENDCHAR
STARTCHAR 0x2768
ENCODING 10088
SWIDTH 960 0
DWIDTH 10 0
BBX 10 11 0 -2
BITMAP
0000
0000
0000
F780
6300
6300
6300
6300
FF80
00C0
0000
ENDCHAR
STARTCHAR 0x2769
ENCODING 10089
SWIDTH 960 0
DWIDTH 10 0
BBX 10 11 0 -2
BITMAP
0000
0000
0000
7BC0
3180
3180
3380
1E80
01C0
0000
0000
ENDCHAR
STARTCHAR 0x276A
ENCODING 10090
SWIDTH 960 0
DWIDTH 10 0
BBX 10 11 0 -2
BITMAP
0000
0000
0000
EDC0
6D80
6D80
6D80
6D80
FFC0
0000
0000
ENDCHAR
STARTCHAR 0x276B
ENCODING 10091
SWIDTH 960 0
DWIDTH 10 0
BBX 10 11 0 -2
BITMAP
0000
0000
0000
EDC0
6D80
6D80
6D80
6D80
FFC0
0040
0000
ENDCHAR
STARTCHAR 0x276C
ENCODING 10092
SWIDTH 960 0
DWIDTH 10 0
BBX 10 11 0 -2
BITMAP
0000
0000
0000
7E00
6800
DF80
18C0
18C0
3F80
0000
0000
ENDCHAR
STARTCHAR 0x276D
ENCODING 10093
SWIDTH 960 0
DWIDTH 10 0
BBX 10 11 0 -2
BITMAP
0000
0000
0000
F3C0
6180
7D80
6680
6680
FDC0
0000
0000
ENDCHAR
STARTCHAR 0x276E
ENCODING 10094
SWIDTH 960 0
DWIDTH 10 0
BBX 10 11 0 -2
BITMAP
0000
0000
0000
7C00
3000
3F00
3180
3180
7F00
0000
0000
ENDCHAR
STARTCHAR 0x276F
ENCODING 10095
SWIDTH 960 0
DWIDTH 10 0
BBX 10 11 0 -2
BITMAP
0000
0000
0000
1F00
3180
0E80
1B80
3180
1F00
0000
0000
ENDCHAR
STARTCHAR 0x2770
ENCODING 10096
SWIDTH 960 0
DWIDTH 10 0
BBX 10 11 0 -2
BITMAP
0000
0000
0000
F780
6CC0
7CC0
6CC0
6CC0
F780
0000
0000
ENDCHAR
STARTCHAR 0x2771
ENCODING 10097
SWIDTH 960 0
DWIDTH 10 0
BBX 10 11 0 -2
BITMAP
0000
0000
0000
3FC0
6180
6180
3F80
1980
73C0
0000
0000
ENDCHAR
STARTCHAR 0x2821
ENCODING 10273
SWIDTH 960 0
DWIDTH 10 0
BBX 10 11 0 -2
BITMAP
0000
0000
0000
0000
0000
FFC0
0000
0000
0000
0000
0000
ENDCHAR
STARTCHAR 0x2822
ENCODING 10274
SWIDTH 960 0
DWIDTH 10 0
BBX 10 11 0 -2
BITMAP
0C00
0C00
0C00
0C00
0C00
0C00
0C00
0C00
0C00
0C00
0C00
ENDCHAR
STARTCHAR 0x2823
ENCODING 10275
SWIDTH 960 0
DWIDTH 10 0
BBX 10 11 0 -2
BITMAP
0000
0000
0000
0000
0000
0FC0
0C00
0C00
0C00
0C00
0C00
ENDCHAR
STARTCHAR 0x2824
ENCODING 10276
SWIDTH 960 0
DWIDTH 10 0
BBX 10 11 0 -2
BITMAP
0000
0000
0000
0000
0000
FC00
0C00
0C00
0C00
0C00
0C00
ENDCHAR
STARTCHAR 0x2825
ENCODING 10277
SWIDTH 960 0
DWIDTH 10 0
BBX 10 11 0 -2
BITMAP
0C00
0C00
0C00
0C00
0C00
FC00
0000
0000
0000
0000
0000
ENDCHAR
STARTCHAR 0x2826
ENCODING 10278
SWIDTH 960 0
DWIDTH 10 0
BBX 10 11 0 -2
BITMAP
0C00
0C00
0C00
0C00
0C00
0FC0
0000
0000
0000
0000
0000
ENDCHAR
STARTCHAR 0x2827
ENCODING 10279
SWIDTH 960 0
DWIDTH 10 0
BBX 10 11 0 -2
BITMAP
0C00
0C00
0C00
0C00
0C00
0FC0
0C00
0C00
0C00
0C00
0C00
ENDCHAR
STARTCHAR 0x2828
ENCODING 10280
SWIDTH 960 0
DWIDTH 10 0
BBX 10 11 0 -2
BITMAP
0000
0000
0000
0000
0000
FFC0
0C00
0C00
0C00
0C00
0C00
ENDCHAR
STARTCHAR 0x2829
ENCODING 10281
SWIDTH 960 0
DWIDTH 10 0
BBX 10 11 0 -2
BITMAP
0C00
0C00
0C00
0C00
0C00
FC00
0C00
0C00
0C00
0C00
0C00
ENDCHAR
STARTCHAR 0x282A
ENCODING 10282
SWIDTH 960 0
DWIDTH 10 0
BBX 10 11 0 -2
BITMAP
0C00
0C00
0C00
0C00
0C00
FFC0
0000
0000
0000
0000
0000
ENDCHAR
STARTCHAR 0x282B
ENCODING 10283
SWIDTH 960 0
DWIDTH 10 0
BBX 10 11 0 -2
BITMAP
0C00
0C00
0C00
0C00
0C00
FFC0
0C00
0C00
0C00
0C00
0C00
ENDCHAR
STARTCHAR 0x282C
ENCODING 10284
SWIDTH 960 0
DWIDTH 10 0
BBX 10 11 0 -2
BITMAP
0000
0000
0000
0000
0000
FFC0
FFC0
0000
0000
0000
0000
ENDCHAR
STARTCHAR 0x282D
ENCODING 10285
SWIDTH 960 0
DWIDTH 10 0
BBX 10 11 0 -2
BITMAP
0E00
0E00
0E00
0E00
0E00
0E00
0E00
0E00
0E00
0E00
0E00
ENDCHAR
STARTCHAR 0x282E
ENCODING 10286
SWIDTH 960 0
DWIDTH 10 0
BBX 10 11 0 -2
BITMAP
0000
0000
0000
0000
0000
0FC0
0FC0
0E00
0E00
0E00
0E00
ENDCHAR
STARTCHAR 0x282F
ENCODING 10287
SWIDTH 960 0
DWIDTH 10 0
BBX 10 11 0 -2
BITMAP
0000
0000
0000
0000
0000
FE00
FE00
0E00
0E00
0E00
0E00
ENDCHAR
STARTCHAR 0x2830
ENCODING 10288
SWIDTH 960 0
DWIDTH 10 0
BBX 10 11 0 -2
BITMAP
0E00
0E00
0E00
0E00
0E00
FE00
FE00
0000
0000
0000
0000
ENDCHAR
STARTCHAR 0x2831
ENCODING 10289
SWIDTH 960 0
DWIDTH 10 0
BBX 10 11 0 -2
BITMAP
0E00
0E00
0E00
0E00
0E00
0FC0
0FC0
0000
0000
0000
0000
ENDCHAR
STARTCHAR 0x2832
ENCODING 10290
SWIDTH 960 0
DWIDTH 10 0
BBX 10 11 0 -2
BITMAP
0E00
0E00
0E00
0E00
0E00
0FC0
0FC0
0E00
0E00
0E00
0E00
ENDCHAR
STARTCHAR 0x2833
ENCODING 10291
SWIDTH 960 0
DWIDTH 10 0
BBX 10 11 0 -2
BITMAP
0000
0000
0000
0000
0000
FFC0
FFC0
0E00
0E00
0E00
0E00
ENDCHAR
STARTCHAR 0x2834
ENCODING 10292
SWIDTH 960 0
DWIDTH 10 0
BBX 10 11 0 -2
BITMAP
0E00
0E00
0E00
0E00
0E00
FE00
FE00
0E00
0E00
0E00
0E00
ENDCHAR
STARTCHAR 0x2835
ENCODING 10293
SWIDTH 960 0
DWIDTH 10 0
BBX 10 11 0 -2
BITMAP
0E00
0E00
0E00
0E00
0E00
FFC0
FFC0
0000
0000
0000
0000
ENDCHAR
STARTCHAR 0x2836
ENCODING 10294
SWIDTH 960 0
DWIDTH 10 0
BBX 10 11 0 -2
BITMAP
0E00
0E00
0E00
0E00
0E00
FFC0
FFC0
0E00
0E00
0E00
0E00
ENDCHAR
STARTCHAR 0x2837
ENCODING 10295
SWIDTH 960 0
DWIDTH 10 0
BBX 10 11 0 -2
BITMAP
0E00
0E00
0E00
0E00
0E00
0FC0
0E00
0E00
0E00
0E00
0E00
ENDCHAR
STARTCHAR 0x2838
ENCODING 10296
SWIDTH 960 0
DWIDTH 10 0
BBX 10 11 0 -2
BITMAP
0000
0000
0000
0000
0000
FFC0
FFC0
0C00
0C00
0C00
0C00
ENDCHAR
STARTCHAR 0x2839
ENCODING 10297
SWIDTH 960 0
DWIDTH 10 0
BBX 10 11 0 -2
BITMAP
0E00
0E00
0E00
0E00
0E00
FE00
0E00
0E00
0E00
0E00
0E00
ENDCHAR
STARTCHAR 0x283A
ENCODING 10298
SWIDTH 960 0
DWIDTH 10 0
BBX 10 11 0 -2
BITMAP
0C00
0C00
0C00
0C00
0C00
FFC0
FFC0
0000
0000
0000
0000
ENDCHAR
STARTCHAR 0x283B
ENCODING 10299
SWIDTH 960 0
DWIDTH 10 0
BBX 10 11 0 -2
BITMAP
0C00
0C00
0C00
0C00
0C00
FFC0
FFC0
0C00
0C00
0C00
0C00
ENDCHAR
STARTCHAR 0x283C
ENCODING 10300
SWIDTH 960 0
DWIDTH 10 0
BBX 10 11 0 -2
BITMAP
0C00
0C00
0C00
0C00
0C00
0FC0
0FC0
0C00
0C00
0C00
0C00
ENDCHAR
STARTCHAR 0x283D
ENCODING 10301
SWIDTH 960 0
DWIDTH 10 0
BBX 10 11 0 -2
BITMAP
0000
0000
0000
0000
0000
FFC0
0E00
0E00
0E00
0E00
0E00
ENDCHAR
STARTCHAR 0x283E
ENCODING 10302
SWIDTH 960 0
DWIDTH 10 0
BBX 10 11 0 -2
BITMAP
0C00
0C00
0C00
0C00
0C00
FC00
FC00
0C00
0C00
0C00
0C00
ENDCHAR
STARTCHAR 0x283F
ENCODING 10303
SWIDTH 960 0
DWIDTH 10 0
BBX 10 11 0 -2
BITMAP
0E00
0E00
0E00
0E00
0E00
FFC0
0000
0000
0000
0000
0000
ENDCHAR
STARTCHAR 0x2840
ENCODING 10304
SWIDTH 960 0
DWIDTH 10 0
BBX 10 11 0 -2
BITMAP
0E00
0E00
0E00
0E00
0E00
FFC0
0E00
0E00
0E00
0E00
0E00
ENDCHAR
STARTCHAR 0x2D21
ENCODING 11553
SWIDTH 960 0
DWIDTH 10 0
BBX 10 11 0 -2
BITMAP
0000
3F00
6180
DCC0
CCC0
CCC0
CCC0
CCC0
6180
3F00
0000
ENDCHAR
STARTCHAR 0x2D22
ENCODING 11554
SWIDTH 960 0
DWIDTH 10 0
BBX 10 11 0 -2
BITMAP
0000
3F00
6180
DEC0
C6C0
DEC0
D8C0
DEC0
6180
3F00
0000
ENDCHAR
STARTCHAR 0x2D23
ENCODING 11555
SWIDTH 960 0
DWIDTH 10 0
BBX 10 11 0 -2
BITMAP
0000
3F00
6180
DEC0
C6C0
DEC0
C6C0
DEC0
6180
3F00
0000
ENDCHAR
STARTCHAR 0x2D24
ENCODING 11556
SWIDTH 960 0
DWIDTH 10 0
BBX 10 11 0 -2
BITMAP
0000
3F00
6180
DAC0
DAC0
DAC0
DEC0
C6C0
6180
3F00
0000
ENDCHAR
STARTCHAR 0x2D25
ENCODING 11557
SWIDTH 960 0
DWIDTH 10 0
BBX 10 11 0 -2
BITMAP
0000
3F00
6180
DEC0
D8C0
DEC0
C6C0
DEC0
6180
3F00
0000
ENDCHAR
STARTCHAR 0x2D26
ENCODING 11558
SWIDTH 960 0
DWIDTH 10 0
BBX 10 11 0 -2
BITMAP
0000
3F00
6180
DEC0
D8C0
DEC0
DAC0
DEC0
6180
3F00
0000
ENDCHAR
STARTCHAR 0x2D27
ENCODING 11559
SWIDTH 960 0
DWIDTH 10 0
BBX 10 11 0 -2
BITMAP
0000
3F00
6180
DEC0
C6C0
C6C0
CCC0
CCC0
6180
3F00
0000
ENDCHAR
STARTCHAR 0x2D28
ENCODING 11560
SWIDTH 960 0
DWIDTH 10 0
BBX 10 11 0 -2
BITMAP
0000
3F00
6180
DEC0
DAC0
DEC0
DAC0
DEC0
6180
3F00
0000
ENDCHAR
STARTCHAR 0x2D29
ENCODING 11561
SWIDTH 960 0
DWIDTH 10 0
BBX 10 11 0 -2
BITMAP
0000
3F00
6180
DEC0
DAC0
DEC0
C6C0
DEC0
6180
3F00
0000
ENDCHAR
STARTCHAR 0x2D2A
ENCODING 11562
SWIDTH 960 0
DWIDTH 10 0
BBX 10 11 0 -2
BITMAP
0000
3F00
6180
D740
D540
D540
D540
D740
6180
3F00
0000
ENDCHAR
STARTCHAR 0x2D2B
ENCODING 11563
SWIDTH 960 0
DWIDTH 10 0
BBX 10 11 0 -2
BITMAP
0000
3F00
6180
DB40
DB40
DB40
DB40
DB40
6180
3F00
0000
ENDCHAR
STARTCHAR 0x2D2C
ENCODING 11564
SWIDTH 960 0
DWIDTH 10 0
BBX 10 11 0 -2
BITMAP
0000
3F00
6180
D740
D340
D740
D4C0
D740
6180
3F00
0000
ENDCHAR
STARTCHAR 0x2D2D
ENCODING 11565
SWIDTH 960 0
DWIDTH 10 0
BBX 10 11 0 -2
BITMAP
0000
3F00
6180
D740
D340
D740
D340
D740
6180
3F00
0000
ENDCHAR
STARTCHAR 0x2D2E
ENCODING 11566
SWIDTH 960 0
DWIDTH 10 0
BBX 10 11 0 -2
BITMAP
0000
3F00
6180
D540
D540
D540
D740
D340
6180
3F00
0000
ENDCHAR
STARTCHAR 0x2D2F
ENCODING 11567
SWIDTH 960 0
DWIDTH 10 0
BBX 10 11 0 -2
BITMAP
0000
3F00
6180
D740
D4C0
D740
D340
D740
6180
3F00
0000
ENDCHAR
STARTCHAR 0x2D30
ENCODING 11568
SWIDTH 960 0
DWIDTH 10 0
BBX 10 11 0 -2
BITMAP
0000
3F00
6180
D740
D4C0
D740
D540
D740
6180
3F00
0000
ENDCHAR
STARTCHAR 0x2D31
ENCODING 11569
SWIDTH 960 0
DWIDTH 10 0
BBX 10 11 0 -2
BITMAP
0000
3F00
6180
D740
D340
D340
D6C0
D6C0
6180
3F00
0000
ENDCHAR
STARTCHAR 0x2D32
ENCODING 11570
SWIDTH 960 0
DWIDTH 10 0
BBX 10 11 0 -2
BITMAP
0000
3F00
6180
D740
D540
D740
D540
D740
6180
3F00
0000
ENDCHAR
STARTCHAR 0x2D33
ENCODING 11571
SWIDTH 960 0
DWIDTH 10 0
BBX 10 11 0 -2
BITMAP
0000
3F00
6180
D740
D540
D740
D340
D740
6180
3F00
0000
ENDCHAR
STARTCHAR 0x2D34
ENCODING 11572
SWIDTH 960 0
DWIDTH 10 0
BBX 10 11 0 -2
BITMAP
0000
3F00
6180
DDC0
CD40
DD40
D340
DDC0
6180
3F00
0000
ENDCHAR
STARTCHAR 0x2D35
ENCODING 11573
SWIDTH 960 0
DWIDTH 10 0
BBX 10 11 0 -2
BITMAP
0000
1E00
0C00
0C00
0C00
0C00
0C00
0C00
1E00
0000
0000
ENDCHAR
STARTCHAR 0x2D36
ENCODING 11574
SWIDTH 960 0
DWIDTH 10 0
BBX 10 11 0 -2
BITMAP
0000
3F00
1A00
1A00
1A00
1A00
1A00
1A00
3F00
0000
0000
ENDCHAR
STARTCHAR 0x2D37
ENCODING 11575
SWIDTH 960 0
DWIDTH 10 0
BBX 10 11 0 -2
BITMAP
0000
7F80
3500
3500
3500
3500
3500
3500
7F80
0000
0000
ENDCHAR
STARTCHAR 0x2D38
ENCODING 11576
SWIDTH 960 0
DWIDTH 10 0
BBX 10 11 0 -2
BITMAP
0000
7D80
3500
3500
3500
3500
3600
3600
7A00
0000
0000
ENDCHAR
STARTCHAR 0x2D39
ENCODING 11577
SWIDTH 960 0
DWIDTH 10 0
BBX 10 11 0 -2
BITMAP
0000
7B80
3300
3300
1A00
1A00
1A00
0C00
0C00
0000
0000
ENDCHAR
STARTCHAR 0x2D3A
ENCODING 11578
SWIDTH 960 0
DWIDTH 10 0
BBX 10 11 0 -2
BITMAP
0000
7780
3500
3500
3500
3500
1B00
1B00
1B80
0000
0000
ENDCHAR
STARTCHAR 0x2D3B
ENCODING 11579
SWIDTH 960 0
DWIDTH 10 0
BBX 10 11 0 -2
BITMAP
0000
EFC0
6A80
6A80
6A80
6A80
3680
3680
37C0
0000
0000
ENDCHAR
STARTCHAR 0x2D3C
ENCODING 11580
SWIDTH 960 0
DWIDTH 10 0
BBX 10 11 0 -2
BITMAP
0000
EFC0
6D40
6D40
6D40
6D40
3540
3540
37C0
0000
0000
ENDCHAR
STARTCHAR 0x2D3D
ENCODING 11581
SWIDTH 960 0
DWIDTH 10 0
BBX 10 11 0 -2
BITMAP
0000
7D80
3500
3500
3600
3600
3500
3500
7D80
0000
0000
ENDCHAR
STARTCHAR 0x2D3E
ENCODING 11582
SWIDTH 960 0
DWIDTH 10 0
BBX 10 11 0 -2
BITMAP
0000
7B80
3300
1A00
0C00
0C00
1A00
3300
7B80
0000
0000
ENDCHAR
STARTCHAR 0x2D40
ENCODING 11584
SWIDTH 960 0
DWIDTH 10 0
BBX 10 11 0 -2
BITMAP
0000
E000
3800
E000
3AC0
E6C0
3AC0
06C0
00C0
0380
0000
ENDCHAR
STARTCHAR 0x2D41
ENCODING 11585
SWIDTH 960 0
DWIDTH 10 0
BBX 10 11 0 -2
BITMAP
0000
3000
FC00
3000
FC00
1BC0
1AC0
06C0
06C0
07C0
0000
ENDCHAR
STARTCHAR 0x2D42
ENCODING 11586
SWIDTH 960 0
DWIDTH 10 0
BBX 10 11 0 -2
BITMAP
0000
6600
FB00
68C0
60C0
3B80
0300
0FC0
0300
0600
0000
ENDCHAR
STARTCHAR 0x2D43
ENCODING 11587
SWIDTH 960 0
DWIDTH 10 0
BBX 10 11 0 -2
BITMAP
0000
1800
6BC0
3800
EC00
0000
C680
FA80
C680
CDC0
0000
ENDCHAR
STARTCHAR 0x2D44
ENCODING 11588
SWIDTH 960 0
DWIDTH 10 0
BBX 10 11 0 -2
BITMAP
0000
6DC0
7800
DBC0
18C0
30C0
ED80
0C00
1980
1F80
0000
ENDCHAR
STARTCHAR 0x2D45
ENCODING 11589
SWIDTH 960 0
DWIDTH 10 0
BBX 10 11 0 -2
BITMAP
0000
C000
C000
F800
C000
CC00
C6C0
00C0
0180
0F00
0000
ENDCHAR
STARTCHAR 0x2D46
ENCODING 11590
SWIDTH 960 0
DWIDTH 10 0
BBX 10 11 0 -2
BITMAP
0000
FC00
0C00
3000
37C0
E000
1800
6B00
6B00
DE00
0000
ENDCHAR
STARTCHAR 0x2D47
ENCODING 11591
SWIDTH 960 0
DWIDTH 10 0
BBX 10 11 0 -2
BITMAP
0000
73C0
DB40
0CC0
0380
F000
D680
FE80
3680
E6C0
0000
ENDCHAR
STARTCHAR 0x2D48
ENCODING 11592
SWIDTH 960 0
DWIDTH 10 0
BBX 10 11 0 -2
BITMAP
0000
DB40
DB40
18C0
7380
0000
C680
FA80
C680
CDC0
0000
ENDCHAR
STARTCHAR 0x2D49
ENCODING 11593
SWIDTH 960 0
DWIDTH 10 0
BBX 10 11 0 -2
BITMAP
0000
FC00
CC00
0F40
7B40
00C0
6780
7C00
6000
6000
0000
ENDCHAR
STARTCHAR 0x2D4A
ENCODING 11594
SWIDTH 960 0
DWIDTH 10 0
BBX 10 11 0 -2
BITMAP
0000
63C0
FD40
6D40
DD40
03C0
D800
D800
1BC0
7000
0000
ENDCHAR
STARTCHAR 0x2D4B
ENCODING 11595
SWIDTH 960 0
DWIDTH 10 0
BBX 10 11 0 -2
BITMAP
0000
6A00
6A00
6000
7C00
6680
6680
6680
0D80
0DC0
0000
ENDCHAR
STARTCHAR 0x2D4C
ENCODING 11596
SWIDTH 960 0
DWIDTH 10 0
BBX 10 11 0 -2
BITMAP
0000
6600
FB00
68C0
60C0
3B80
1800
1F00
1800
1800
0000
ENDCHAR
STARTCHAR 0x2D4D
ENCODING 11597
SWIDTH 960 0
DWIDTH 10 0
BBX 10 11 0 -2
BITMAP
1800
D400
DBC0
D800
0000
DD80
F180
D6C0
C680
ED80
0000
ENDCHAR
STARTCHAR 0x2D4E
ENCODING 11598
SWIDTH 960 0
DWIDTH 10 0
BBX 10 11 0 -2
BITMAP
0000
FAC0
06C0
FAC0
00C0
FB80
6A80
D680
DE80
D6C0
0000
ENDCHAR
STARTCHAR 0x2D4F
ENCODING 11599
SWIDTH 960 0
DWIDTH 10 0
BBX 10 11 0 -2
BITMAP
0C00
1A00
7400
DBC0
0C00
E340
0D40
EC00
1800
F000
0000
ENDCHAR
STARTCHAR 0x2D50
ENCODING 11600
SWIDTH 960 0
DWIDTH 10 0
BBX 10 11 0 -2
BITMAP
0000
0000
0000
FB80
D540
D540
D540
D540
D540
0000
0000
ENDCHAR
STARTCHAR 0x2D51
ENCODING 11601
SWIDTH 960 0
DWIDTH 10 0
BBX 10 11 0 -2
BITMAP
0000
0000
0000
7780
CD40
CD40
CD40
CD40
7540
0000
0000
ENDCHAR
STARTCHAR 0x2D52
ENCODING 11602
SWIDTH 960 0
DWIDTH 10 0
BBX 10 11 0 -2
BITMAP
0000
C000
C000
DF80
D540
ED40
D540
DD40
CD40
0000
0000
ENDCHAR
STARTCHAR 0x2D53
ENCODING 11603
SWIDTH 960 0
DWIDTH 10 0
BBX 10 11 0 -2
BITMAP
0000
0000
00C0
FB80
D4C0
D780
D400
D780
D4C0
0780
0000
ENDCHAR
STARTCHAR 0x2D54
ENCODING 11604
SWIDTH 960 0
DWIDTH 10 0
BBX 10 11 0 -2
BITMAP
C000
C000
C0C0
DB80
D4C0
E780
D400
DB80
CCC0
0780
0000
ENDCHAR
STARTCHAR 0x2D55
ENCODING 11605
SWIDTH 960 0
DWIDTH 10 0
BBX 10 11 0 -2
BITMAP
0000
0000
0000
7380
DAC0
C600
C600
C600
7BC0
0000
0000
ENDCHAR
STARTCHAR 0x2D56
ENCODING 11606
SWIDTH 960 0
DWIDTH 10 0
BBX 10 11 0 -2
BITMAP
0000
0380
00C0
F980
D500
D5C0
D400
D400
D400
0000
0000
ENDCHAR
STARTCHAR 0x2D5F
ENCODING 11615
SWIDTH 960 0
DWIDTH 10 0
BBX 10 11 0 -2
BITMAP
0300
FD40
37C0
D500
D540
3740
FD80
3580
3740
34C0
0000
ENDCHAR
STARTCHAR 0x2D60
ENCODING 11616
SWIDTH 960 0
DWIDTH 10 0
BBX 10 11 0 -2
BITMAP
0680
0680
0D00
0D00
0000
0000
0000
0000
0000
0000
0000
ENDCHAR
STARTCHAR 0x2D61
ENCODING 11617
SWIDTH 960 0
DWIDTH 10 0
BBX 10 11 0 -2
BITMAP
0000
0000
0000
0000
0000
3400
3400
6800
6800
0000
0000
ENDCHAR
STARTCHAR 0x2D62
ENCODING 11618
SWIDTH 960 0
DWIDTH 10 0
BBX 10 11 0 -2
BITMAP
0000
CC00
ED80
D540
DD40
CD40
CD80
CC00
CDC0
0000
0000
ENDCHAR
STARTCHAR 0x2D63
ENCODING 11619
SWIDTH 960 0
DWIDTH 10 0
BBX 10 11 0 -2
BITMAP
0000
DAC0
DAC0
D680
E700
D680
D680
DAC0
DAC0
0000
0000
ENDCHAR
STARTCHAR 0x2D64
ENCODING 11620
SWIDTH 960 0
DWIDTH 10 0
BBX 10 11 0 -2
BITMAP
0000
FD80
6180
6E80
6980
6E80
6980
6980
6EC0
0000
0000
ENDCHAR
STARTCHAR 0x2D65
ENCODING 11621
SWIDTH 960 0
DWIDTH 10 0
BBX 10 11 0 -2
BITMAP
0000
3F00
6D80
CCC0
CF40
CCC0
CCC0
DF40
6180
3F00
0000
ENDCHAR
STARTCHAR 0x2D66
ENCODING 11622
SWIDTH 960 0
DWIDTH 10 0
BBX 10 11 0 -2
BITMAP
0000
3F00
6D80
DF40
D540
D540
DF40
CCC0
6D80
3F00
0000
ENDCHAR
STARTCHAR 0x2D67
ENCODING 11623
SWIDTH 960 0
DWIDTH 10 0
BBX 10 11 0 -2
BITMAP
0000
3F00
6180
DF40
CCC0
CEC0
CD40
CCC0
6D80
3F00
0000
ENDCHAR
STARTCHAR 0x2D68
ENCODING 11624
SWIDTH 960 0
DWIDTH 10 0
BBX 10 11 0 -2
BITMAP
0000
3F00
6980
DF40
D8C0
D740
E6C0
DF40
6180
3F00
0000
ENDCHAR
STARTCHAR 0x2D69
ENCODING 11625
SWIDTH 960 0
DWIDTH 10 0
BBX 10 11 0 -2
BITMAP
0000
3F00
6D80
DF40
D8C0
DF40
EB40
DF40
6180
3F00
0000
ENDCHAR
STARTCHAR 0x2D6A
ENCODING 11626
SWIDTH 960 0
DWIDTH 10 0
BBX 10 11 0 -2
BITMAP
0000
7680
DAC0
FFC0
D6C0
DFC0
F6C0
D740
DAC0
7680
0000
ENDCHAR
STARTCHAR 0x2D6B
ENCODING 11627
SWIDTH 960 0
DWIDTH 10 0
BBX 10 11 0 -2
BITMAP
0000
6D80
DF40
CCC0
DF40
DB40
EF40
DB40
DF40
6B80
0000
ENDCHAR
STARTCHAR 0x2D6C
ENCODING 11628
SWIDTH 960 0
DWIDTH 10 0
BBX 10 11 0 -2
BITMAP
0000
6A80
DAC0
D6C0
DFC0
F6C0
D6C0
D6C0
D340
7380
0000
ENDCHAR
STARTCHAR 0x2D6D
ENCODING 11629
SWIDTH 960 0
DWIDTH 10 0
BBX 10 11 0 -2
BITMAP
0000
3D80
F700
DD40
F5C0
D600
DDC0
F540
6F40
6DC0
0000
ENDCHAR
STARTCHAR 0x2D6E
ENCODING 11630
SWIDTH 960 0
DWIDTH 10 0
BBX 10 11 0 -2
BITMAP
0000
37C0
3180
FD80
3680
36C0
6A80
6A80
DA80
DBC0
0000
ENDCHAR
STARTCHAR 0x2D6F
ENCODING 11631
SWIDTH 960 0
DWIDTH 10 0
BBX 10 11 0 -2
BITMAP
0000
7F80
3500
F7C0
DD40
F340
DF40
D540
F540
3DC0
0000
ENDCHAR
STARTCHAR 0x2D70
ENCODING 11632
SWIDTH 960 0
DWIDTH 10 0
BBX 10 11 0 -2
BITMAP
0000
3000
7800
3000
7F80
0000
7F80
0300
0780
0300
0000
ENDCHAR
STARTCHAR 0x2D71
ENCODING 11633
SWIDTH 960 0
DWIDTH 10 0
BBX 10 11 0 -2
BITMAP
0000
0000
0000
7F80
0000
7F80
0000
7F80
0000
0000
0000
ENDCHAR
STARTCHAR 0x2D72
ENCODING 11634
SWIDTH 960 0
DWIDTH 10 0
BBX 10 11 0 -2
BITMAP
0000
0E00
1A00
1800
1800
0C00
0600
0600
1A00
1C00
0000
ENDCHAR
STARTCHAR 0x2D73
ENCODING 11635
SWIDTH 960 0
DWIDTH 10 0
BBX 10 11 0 -2
BITMAP
0000
0E00
1800
1E00
3500
3500
3500
1E00
0600
1C00
0000
ENDCHAR
STARTCHAR 0x2D74
ENCODING 11636
SWIDTH 960 0
DWIDTH 10 0
BBX 10 11 0 -2
BITMAP
0000
0000
7F80
3000
1800
0C00
1800
3000
7F80
0000
0000
ENDCHAR
STARTCHAR 0x2D75
ENCODING 11637
SWIDTH 960 0
DWIDTH 10 0
BBX 10 11 0 -2
BITMAP
0000
07C0
0600
0600
6C00
6C00
D400
D400
1800
1800
0000
ENDCHAR
STARTCHAR 0x2D76
ENCODING 11638
SWIDTH 960 0
DWIDTH 10 0
BBX 10 11 0 -2
BITMAP
0000
0C00
0C00
0C00
0C00
0C00
0C00
0C00
FFC0
0000
0000
ENDCHAR
STARTCHAR 0x2D77
ENCODING 11639
SWIDTH 960 0
DWIDTH 10 0
BBX 10 11 0 -2
BITMAP
0000
0180
0300
0600
0C00
1800
3000
6000
FFC0
0000
0000
ENDCHAR
STARTCHAR 0x2D78
ENCODING 11640
SWIDTH 960 0
DWIDTH 10 0
BBX 10 11 0 -2
BITMAP
0000
6000
6000
6000
6000
6000
6000
6000
7FC0
0000
0000
ENDCHAR
STARTCHAR 0x2D79
ENCODING 11641
SWIDTH 960 0
DWIDTH 10 0
BBX 10 11 0 -2
BITMAP
0000
0180
0380
0680
0D80
1980
3180
6180
FF80
0000
0000
ENDCHAR
STARTCHAR 0x2D7A
ENCODING 11642
SWIDTH 960 0
DWIDTH 10 0
BBX 10 11 0 -2
BITMAP
0000
0000
3300
7B80
3300
0000
0C00
1E00
0C00
0000
0000
ENDCHAR
STARTCHAR 0x2D7B
ENCODING 11643
SWIDTH 960 0
DWIDTH 10 0
BBX 10 11 0 -2
BITMAP
0000
1E00
3300
6180
6180
6180
6180
6180
6180
0000
0000
ENDCHAR
STARTCHAR 0x2D7C
ENCODING 11644
SWIDTH 960 0
DWIDTH 10 0
BBX 10 11 0 -2
BITMAP
0000
6180
6180
6180
6180
6180
6180
3300
1E00
0000
0000
ENDCHAR
STARTCHAR 0x3021
ENCODING 12321
SWIDTH 960 0
DWIDTH 10 0
BBX 10 11 0 -2
BITMAP
0000
FFC0
1A00
7F80
6A80
6A80
7F80
1A00
1A00
FFC0
0000
ENDCHAR
STARTCHAR 0x3022
ENCODING 12322
SWIDTH 960 0
DWIDTH 10 0
BBX 10 11 0 -2
BITMAP
0000
3FC0
ED00
DFC0
D540
D540
DFC0
D500
ED00
3FC0
0000
ENDCHAR
STARTCHAR 0x3023
ENCODING 12323
SWIDTH 960 0
DWIDTH 10 0
BBX 10 11 0 -2
BITMAP
0300
6300
6FC0
FB00
6FC0
6B00
D7C0
F300
6B00
6FC0
0000
ENDCHAR
STARTCHAR 0x3024
ENCODING 12324
SWIDTH 960 0
DWIDTH 10 0
BBX 10 11 0 -2
BITMAP
0000
FFC0
D0C0
D740
ED40
D540
D540
EF40
C0C0
C1C0
0000
ENDCHAR
STARTCHAR 0x3025
ENCODING 12325
SWIDTH 960 0
DWIDTH 10 0
BBX 10 11 0 -2
BITMAP
0C00
0C00
FFC0
3300
3300
3F00
1AC0
F680
3300
7DC0
0000
ENDCHAR
STARTCHAR 0x3026
ENCODING 12326
SWIDTH 960 0
DWIDTH 10 0
BBX 10 11 0 -2
BITMAP
0000
7F80
6D80
3300
FFC0
D8C0
6F80
D340
1E00
F3C0
0000
ENDCHAR
STARTCHAR 0x3027
ENCODING 12327
SWIDTH 960 0
DWIDTH 10 0
BBX 10 11 0 -2
BITMAP
0600
6600
6CC0
FFC0
6C00
6FC0
7300
EFC0
6680
ECC0
0000
ENDCHAR
STARTCHAR 0x3028
ENCODING 12328
SWIDTH 960 0
DWIDTH 10 0
BBX 10 11 0 -2
BITMAP
0000
6780
6CC0
F800
6FC0
6800
D7C0
F4C0
6CC0
6FC0
0000
ENDCHAR
STARTCHAR 0x3029
ENCODING 12329
SWIDTH 960 0
DWIDTH 10 0
BBX 10 11 0 -2
BITMAP
0000
CFC0
6D80
0700
3DC0
EF80
6300
6FC0
D300
DFC0
0000
ENDCHAR
STARTCHAR 0x302A
ENCODING 12330
SWIDTH 960 0
DWIDTH 10 0
BBX 10 11 0 -2
BITMAP
3300
3300
FFC0
DA80
6B40
3F80
ECC0
7F80
1A00
F3C0
0000
ENDCHAR
STARTCHAR 0x302B
ENCODING 12331
SWIDTH 960 0
DWIDTH 10 0
BBX 10 11 0 -2
BITMAP
3300
3300
FFC0
1A00
FFC0
6A80
6A80
7780
6180
7F80
0000
ENDCHAR
STARTCHAR 0x302C
ENCODING 12332
SWIDTH 960 0
DWIDTH 10 0
BBX 10 11 0 -2
BITMAP
0000
3BC0
ED80
6FC0
F540
6FC0
7B40
EFC0
6B00
63C0
0000
ENDCHAR
STARTCHAR 0x302D
ENCODING 12333
SWIDTH 960 0
DWIDTH 10 0
BBX 10 11 0 -2
BITMAP
0000
FFC0
1A00
7F80
6A80
7F80
1A00
FFC0
6980
DF40
0000
ENDCHAR
STARTCHAR 0x302E
ENCODING 12334
SWIDTH 960 0
DWIDTH 10 0
BBX 10 11 0 -2
BITMAP
0000
6FC0
68C0
FFC0
6A80
6FC0
7B00
EFC0
6300
EFC0
0000
ENDCHAR
STARTCHAR 0x302F
ENCODING 12335
SWIDTH 960 0
DWIDTH 10 0
BBX 10 11 0 -2
BITMAP
0000
DFC0
68C0
1FC0
DA80
6FC0
1B00
3FC0
6300
DFC0
0000
ENDCHAR
STARTCHAR 0x3030
ENCODING 12336
SWIDTH 960 0
DWIDTH 10 0
BBX 10 11 0 -2
BITMAP
0000
67C0
66C0
FBC0
6AC0
6AC0
6BC0
6800
D8C0
DFC0
0000
ENDCHAR
STARTCHAR 0x3031
ENCODING 12337
SWIDTH 960 0
DWIDTH 10 0
BBX 10 11 0 -2
BITMAP
3300
3300
FFC0
0C00
7F80
1980
FFC0
3600
FFC0
0600
0000
ENDCHAR
STARTCHAR 0x3032
ENCODING 12338
SWIDTH 960 0
DWIDTH 10 0
BBX 10 11 0 -2
BITMAP
3300
3300
FFC0
3300
FFC0
3180
3180
3F80
6000
6000
0000
ENDCHAR
STARTCHAR 0x3033
ENCODING 12339
SWIDTH 960 0
DWIDTH 10 0
BBX 10 11 0 -2
BITMAP
0300
7AC0
DFC0
FB00
D7C0
FA80
D540
FA00
01C0
D700
0000
ENDCHAR
STARTCHAR 0x3034
ENCODING 12340
SWIDTH 960 0
DWIDTH 10 0
BBX 10 11 0 -2
BITMAP
0300
3300
3FC0
F580
3580
7FC0
7300
DFC0
D300
3300
0000
ENDCHAR
STARTCHAR 0x3035
ENCODING 12341
SWIDTH 960 0
DWIDTH 10 0
BBX 10 11 0 -2
BITMAP
0000
7FC0
6000
6300
6300
6FC0
6300
C300
C300
3FC0
0000
ENDCHAR
STARTCHAR 0x3036
ENCODING 12342
SWIDTH 960 0
DWIDTH 10 0
BBX 10 11 0 -2
BITMAP
0000
6700
FD80
66C0
F980
DD80
FA80
D9C0
FB80
6180
0000
ENDCHAR
STARTCHAR 0x3037
ENCODING 12343
SWIDTH 960 0
DWIDTH 10 0
BBX 10 11 0 -2
BITMAP
0000
6FC0
6D80
F500
6DC0
6CC0
7AC0
EB80
6680
ECC0
0000
ENDCHAR
STARTCHAR 0x3038
ENCODING 12344
SWIDTH 960 0
DWIDTH 10 0
BBX 10 11 0 -2
BITMAP
0C00
0C00
FFC0
C0C0
FBC0
6A80
7A80
DB80
36C0
E7C0
0000
ENDCHAR
STARTCHAR 0x3039
ENCODING 12345
SWIDTH 960 0
DWIDTH 10 0
BBX 10 11 0 -2
BITMAP
0000
67C0
66C0
FBC0
6AC0
6AC0
D7C0
FAC0
66C0
6FC0
0000
ENDCHAR
STARTCHAR 0x303A
ENCODING 12346
SWIDTH 960 0
DWIDTH 10 0
BBX 10 11 0 -2
BITMAP
0300
3300
3300
FFC0
D500
D500
FD00
3300
3500
FDC0
0000
ENDCHAR
STARTCHAR 0x303B
ENCODING 12347
SWIDTH 960 0
DWIDTH 10 0
BBX 10 11 0 -2
BITMAP
0300
7B00
C6C0
FAC0
DBC0
F800
DBC0
FAC0
D6C0
EBC0
0000
ENDCHAR
STARTCHAR 0x303C
ENCODING 12348
SWIDTH 960 0
DWIDTH 10 0
BBX 10 11 0 -2
BITMAP
0C00
6C00
CFC0
F8C0
3740
6D40
FF40
3540
D740
D380
0000
ENDCHAR
STARTCHAR 0x303D
ENCODING 12349
SWIDTH 960 0
DWIDTH 10 0
BBX 10 11 0 -2
BITMAP
0300
6300
DFC0
F300
3FC0
6D80
FB40
3580
D700
DDC0
0000
ENDCHAR
STARTCHAR 0x303E
ENCODING 12350
SWIDTH 960 0
DWIDTH 10 0
BBX 10 11 0 -2
BITMAP
0300
7B00
DB00
FDC0
D500
FD00
D7C0
FCC0
0CC0
D7C0
0000
ENDCHAR
STARTCHAR 0x303F
ENCODING 12351
SWIDTH 960 0
DWIDTH 10 0
BBX 10 11 0 -2
BITMAP
0600
06C0
FFC0
0300
7D40
6D40
7D80
0380
F6C0
1CC0
0000
ENDCHAR
STARTCHAR 0x3040
ENCODING 12352
SWIDTH 960 0
DWIDTH 10 0
BBX 10 11 0 -2
BITMAP
0000
FFC0
1A00
7F80
6A80
7F80
3500
FFC0
3500
EDC0
0000
ENDCHAR
STARTCHAR 0x3041
ENCODING 12353
SWIDTH 960 0
DWIDTH 10 0
BBX 10 11 0 -2
BITMAP
0000
6780
6CC0
F800
1FC0
3000
6FC0
F4C0
6CC0
6FC0
0000
ENDCHAR
STARTCHAR 0x3042
ENCODING 12354
SWIDTH 960 0
DWIDTH 10 0
BBX 10 11 0 -2
BITMAP
0C00
0C00
FFC0
C0C0
1800
FFC0
3300
3300
3E00
E3C0
0000
ENDCHAR
STARTCHAR 0x3043
ENCODING 12355
SWIDTH 960 0
DWIDTH 10 0
BBX 10 11 0 -2
BITMAP
0600
0600
7FC0
6D00
6B40
7FC0
6B40
6FC0
DB00
C3C0
0000
ENDCHAR
STARTCHAR 0x3044
ENCODING 12356
SWIDTH 960 0
DWIDTH 10 0
BBX 10 11 0 -2
BITMAP
0600
6600
6FC0
F8C0
6600
6FC0
7580
ED80
6700
EDC0
0000
ENDCHAR
STARTCHAR 0x3045
ENCODING 12357
SWIDTH 960 0
DWIDTH 10 0
BBX 10 11 0 -2
BITMAP
0300
0300
FFC0
D680
D680
FFC0
D4C0
D7C0
F4C0
0FC0
0000
ENDCHAR
STARTCHAR 0x3046
ENCODING 12358
SWIDTH 960 0
DWIDTH 10 0
BBX 10 11 0 -2
BITMAP
0C00
0C00
FFC0
D8C0
7F80
1B00
3580
FFC0
3500
EDC0
0000
ENDCHAR
STARTCHAR 0x3047
ENCODING 12359
SWIDTH 960 0
DWIDTH 10 0
BBX 10 11 0 -2
BITMAP
0000
FBC0
DAC0
FBC0
DAC0
FFC0
DAC0
DF40
DAC0
DEC0
0000
ENDCHAR
STARTCHAR 0x3048
ENCODING 12360
SWIDTH 960 0
DWIDTH 10 0
BBX 10 11 0 -2
BITMAP
0300
6B00
FFC0
68C0
FA00
D7C0
FD80
3580
F700
3DC0
0000
ENDCHAR
STARTCHAR 0x3049
ENCODING 12361
SWIDTH 960 0
DWIDTH 10 0
BBX 10 11 0 -2
BITMAP
0C00
0C00
FFC0
1D00
3580
ECC0
0C00
7F80
6180
7F80
0000
ENDCHAR
STARTCHAR 0x304A
ENCODING 12362
SWIDTH 960 0
DWIDTH 10 0
BBX 10 11 0 -2
BITMAP
0000
6180
6980
6D80
6180
6180
6B00
F300
0E80
38C0
0000
ENDCHAR
STARTCHAR 0x304B
ENCODING 12363
SWIDTH 960 0
DWIDTH 10 0
BBX 10 11 0 -2
BITMAP
0000
37C0
3340
6FC0
E340
6340
6FC0
6300
6300
6E00
0000
ENDCHAR
STARTCHAR 0x304C
ENCODING 12364
SWIDTH 960 0
DWIDTH 10 0
BBX 10 11 0 -2
BITMAP
0600
3600
3FC0
6000
ED80
6D80
6D80
6D00
6300
6FC0
0000
ENDCHAR
STARTCHAR 0x304D
ENCODING 12365
SWIDTH 960 0
DWIDTH 10 0
BBX 10 11 0 -2
BITMAP
0600
3600
3FC0
6600
ED40
6D40
6D80
7580
6D40
6EC0
0000
ENDCHAR
STARTCHAR 0x304E
ENCODING 12366
SWIDTH 960 0
DWIDTH 10 0
BBX 10 11 0 -2
BITMAP
0300
3300
3FC0
66C0
EFC0
6D80
6FC0
6B00
7FC0
6300
0000
ENDCHAR
STARTCHAR 0x304F
ENCODING 12367
SWIDTH 960 0
DWIDTH 10 0
BBX 10 11 0 -2
BITMAP
0000
FFC0
DAC0
DF40
DAC0
DAC0
FFC0
DAC0
D6C0
FFC0
0000
ENDCHAR
STARTCHAR 0x3050
ENCODING 12368
SWIDTH 960 0
DWIDTH 10 0
BBX 10 11 0 -2
BITMAP
0C00
0C00
FFC0
0D80
7F80
6C00
FFC0
0CC0
3B00
E1C0
0000
ENDCHAR
STARTCHAR 0x3051
ENCODING 12369
SWIDTH 960 0
DWIDTH 10 0
BBX 10 11 0 -2
BITMAP
0000
7F80
0C00
FFC0
3500
6D80
FFC0
3180
3F00
E1C0
0000
ENDCHAR
STARTCHAR 0x3052
ENCODING 12370
SWIDTH 960 0
DWIDTH 10 0
BBX 10 11 0 -2
BITMAP
0600
06C0
7FC0
6300
7F40
6B40
7E80
D580
DB40
EEC0
0000
ENDCHAR
STARTCHAR 0x3053
ENCODING 12371
SWIDTH 960 0
DWIDTH 10 0
BBX 10 11 0 -2
BITMAP
00C0
FCC0
CFC0
FCC0
C0C0
FAC0
3340
D4C0
D4C0
71C0
0000
ENDCHAR
STARTCHAR 0x3054
ENCODING 12372
SWIDTH 960 0
DWIDTH 10 0
BBX 10 11 0 -2
BITMAP
0600
3680
37C0
D580
DFC0
D580
D7C0
D580
3580
37C0
0000
ENDCHAR
STARTCHAR 0x3055
ENCODING 12373
SWIDTH 960 0
DWIDTH 10 0
BBX 10 11 0 -2
BITMAP
0C00
0C00
FFC0
1B00
FFC0
3180
3F80
0600
6980
DF40
0000
ENDCHAR
STARTCHAR 0x3056
ENCODING 12374
SWIDTH 960 0
DWIDTH 10 0
BBX 10 11 0 -2
BITMAP
00C0
FCC0
CFC0
FD40
D340
74C0
D6C0
0000
6980
DF40
0000
ENDCHAR
STARTCHAR 0x3057
ENCODING 12375
SWIDTH 960 0
DWIDTH 10 0
BBX 10 11 0 -2
BITMAP
0000
7F00
6300
7F00
6300
7F00
3000
FFC0
6CC0
DB80
0000
ENDCHAR
STARTCHAR 0x3058
ENCODING 12376
SWIDTH 960 0
DWIDTH 10 0
BBX 10 11 0 -2
BITMAP
0300
3300
3FC0
F680
34C0
7FC0
7540
D540
D740
31C0
0000
ENDCHAR
STARTCHAR 0x3059
ENCODING 12377
SWIDTH 960 0
DWIDTH 10 0
BBX 10 11 0 -2
BITMAP
3300
1B00
0600
7F00
1B00
3F80
6180
FFC0
00C0
6AC0
0000
ENDCHAR
STARTCHAR 0x305A
ENCODING 12378
SWIDTH 960 0
DWIDTH 10 0
BBX 10 11 0 -2
BITMAP
0000
7F80
6D80
7F80
6D80
7F80
0000
FFC0
3300
FDC0
0000
ENDCHAR
STARTCHAR 0x305B
ENCODING 12379
SWIDTH 960 0
DWIDTH 10 0
BBX 10 11 0 -2
BITMAP
0000
7F80
6D80
7F80
6D80
FFC0
3300
FFC0
3300
E1C0
0000
ENDCHAR
STARTCHAR 0x305C
ENCODING 12380
SWIDTH 960 0
DWIDTH 10 0
BBX 10 11 0 -2
BITMAP
0000
3BC0
ECC0
6680
FB00
67C0
ECC0
7680
6700
6C00
0000
ENDCHAR
STARTCHAR 0x305D
ENCODING 12381
SWIDTH 960 0
DWIDTH 10 0
BBX 10 11 0 -2
BITMAP
0600
6680
CFC0
FD80
37C0
6D80
FFC0
3580
D580
D7C0
0000
ENDCHAR
STARTCHAR 0x305E
ENCODING 12382
SWIDTH 960 0
DWIDTH 10 0
BBX 10 11 0 -2
BITMAP
0300
6300
DFC0
F6C0
3FC0
6D80
FFC0
3500
DFC0
D300
0000
ENDCHAR
STARTCHAR 0x305F
ENCODING 12383
SWIDTH 960 0
DWIDTH 10 0
BBX 10 11 0 -2
BITMAP
0000
7FC0
6CC0
7FC0
6CC0
7FC0
3180
3F80
3180
3380
0000
ENDCHAR
STARTCHAR 0x3060
ENCODING 12384
SWIDTH 960 0
DWIDTH 10 0
BBX 10 11 0 -2
BITMAP
3300
3300
FFC0
0C00
FFC0
1D00
F5C0
3300
1E00
F3C0
0000
ENDCHAR
STARTCHAR 0x3061
ENCODING 12385
SWIDTH 960 0
DWIDTH 10 0
BBX 10 11 0 -2
BITMAP
0C00
0C00
FFC0
1800
3600
76C0
D680
3300
3180
7CC0
0000
ENDCHAR
STARTCHAR 0x3062
ENCODING 12386
SWIDTH 960 0
DWIDTH 10 0
BBX 10 11 0 -2
BITMAP
0000
FFC0
1B40
FFC0
1B40
FFC0
0CC0
F7C0
D4C0
F5C0
0000
ENDCHAR
STARTCHAR 0x3063
ENCODING 12387
SWIDTH 960 0
DWIDTH 10 0
BBX 10 11 0 -2
BITMAP
0600
C600
6FC0
06C0
3FC0
ED80
6FC0
6300
D000
DFC0
0000
ENDCHAR
STARTCHAR 0x3064
ENCODING 12388
SWIDTH 960 0
DWIDTH 10 0
BBX 10 11 0 -2
BITMAP
0300
C300
6FC0
1B40
3FC0
ED80
6F80
6DC0
D000
DFC0
0000
ENDCHAR
STARTCHAR 0x3065
ENCODING 12389
SWIDTH 960 0
DWIDTH 10 0
BBX 10 11 0 -2
BITMAP
0000
FFC0
D800
DF80
D600
FFC0
CD00
D980
D0C0
FFC0
0000
ENDCHAR
STARTCHAR 0x3066
ENCODING 12390
SWIDTH 960 0
DWIDTH 10 0
BBX 10 11 0 -2
BITMAP
3300
3300
3300
FFC0
3300
3300
FFC0
3300
6300
6300
0000
ENDCHAR
STARTCHAR 0x3067
ENCODING 12391
SWIDTH 960 0
DWIDTH 10 0
BBX 10 11 0 -2
BITMAP
0C00
0C00
FFC0
1B00
3600
1D80
7300
0600
1D00
F180
0000
ENDCHAR
STARTCHAR 0x3068
ENCODING 12392
SWIDTH 960 0
DWIDTH 10 0
BBX 10 11 0 -2
BITMAP
0300
6340
6FC0
F300
6F40
6B40
6A80
6E80
F340
0EC0
0000
ENDCHAR
STARTCHAR 0x3069
ENCODING 12393
SWIDTH 960 0
DWIDTH 10 0
BBX 10 11 0 -2
BITMAP
0C00
0C00
FFC0
3300
FF80
61C0
7F80
6180
7F80
6180
0000
ENDCHAR
STARTCHAR 0x306A
ENCODING 12394
SWIDTH 960 0
DWIDTH 10 0
BBX 10 11 0 -2
BITMAP
3000
33C0
FF40
3340
7D80
ED40
7D40
6D40
7D80
6D00
0000
ENDCHAR
STARTCHAR 0x306B
ENCODING 12395
SWIDTH 960 0
DWIDTH 10 0
BBX 10 11 0 -2
BITMAP
0300
F580
6B40
6D80
DB40
F300
DFC0
D540
DB80
F6C0
0000
ENDCHAR
STARTCHAR 0x306C
ENCODING 12396
SWIDTH 960 0
DWIDTH 10 0
BBX 10 11 0 -2
BITMAP
0000
0000
0000
0000
00C0
FFC0
0000
0000
0000
0000
0000
ENDCHAR
STARTCHAR 0x306D
ENCODING 12397
SWIDTH 960 0
DWIDTH 10 0
BBX 10 11 0 -2
BITMAP
0C00
0C00
FFC0
0C00
FFC0
D0C0
D740
3C00
3180
3F80
0000
ENDCHAR
STARTCHAR 0x306E
ENCODING 12398
SWIDTH 960 0
DWIDTH 10 0
BBX 10 11 0 -2
BITMAP
0D80
CD00
6000
3FC0
CD80
68C0
3F80
1A80
6A80
DFC0
0000
ENDCHAR
STARTCHAR 0x306F
ENCODING 12399
SWIDTH 960 0
DWIDTH 10 0
BBX 10 11 0 -2
BITMAP
0000
CF80
6B00
3FC0
1B40
EFC0
6D00
6BC0
D000
DFC0
0000
ENDCHAR
STARTCHAR 0x3070
ENCODING 12400
SWIDTH 960 0
DWIDTH 10 0
BBX 10 11 0 -2
BITMAP
0000
3F40
E6C0
6B40
F400
67C0
EAC0
7BC0
6AC0
6BC0
0000
ENDCHAR
STARTCHAR 0x3071
ENCODING 12401
SWIDTH 960 0
DWIDTH 10 0
BBX 10 11 0 -2
BITMAP
3300
3300
FFC0
3300
CC00
6FC0
1B40
0300
6680
DCC0
0000
ENDCHAR
STARTCHAR 0x3072
ENCODING 12402
SWIDTH 960 0
DWIDTH 10 0
BBX 10 11 0 -2
BITMAP
3300
3300
FFC0
3300
0000
7F80
0C00
FFC0
0C00
1C00
0000
ENDCHAR
STARTCHAR 0x3073
ENCODING 12403
SWIDTH 960 0
DWIDTH 10 0
BBX 10 11 0 -2
BITMAP
0000
7FC0
DAC0
FEC0
D580
FEC0
DB40
F6C0
1B40
D6C0
0000
ENDCHAR
STARTCHAR 0x3074
ENCODING 12404
SWIDTH 960 0
DWIDTH 10 0
BBX 10 11 0 -2
BITMAP
0000
1800
3300
6180
FFC0
1A00
1A00
1AC0
36C0
E7C0
0000
ENDCHAR
STARTCHAR 0x3075
ENCODING 12405
SWIDTH 960 0
DWIDTH 10 0
BBX 10 11 0 -2
BITMAP
0000
3BC0
E6C0
C6C0
FAC0
C6C0
C6C0
C6C0
FAC0
0600
0000
ENDCHAR
STARTCHAR 0x3076
ENCODING 12406
SWIDTH 960 0
DWIDTH 10 0
BBX 10 11 0 -2
BITMAP
0000
3FC0
F6C0
D6C0
DFC0
D6C0
D540
D9C0
F0C0
3FC0
0000
ENDCHAR
STARTCHAR 0x3077
ENCODING 12407
SWIDTH 960 0
DWIDTH 10 0
BBX 10 11 0 -2
BITMAP
0000
3F80
3180
7FC0
60C0
7FC0
60C0
7FC0
1B00
71C0
0000
ENDCHAR
STARTCHAR 0x3078
ENCODING 12408
SWIDTH 960 0
DWIDTH 10 0
BBX 10 11 0 -2
BITMAP
0000
FFC0
CCC0
CCC0
FFC0
CCC0
DAC0
D340
C0C0
FFC0
0000
ENDCHAR
STARTCHAR 0x3079
ENCODING 12409
SWIDTH 960 0
DWIDTH 10 0
BBX 10 11 0 -2
BITMAP
0000
6FC0
6B40
FB40
6FC0
6B40
DB40
FDC0
68C0
6FC0
0000
ENDCHAR
STARTCHAR 0x307A
ENCODING 12410
SWIDTH 960 0
DWIDTH 10 0
BBX 10 11 0 -2
BITMAP
0000
F980
1980
1980
F980
C180
F980
1980
1980
7180
0000
ENDCHAR
STARTCHAR 0x307B
ENCODING 12411
SWIDTH 960 0
DWIDTH 10 0
BBX 10 11 0 -2
BITMAP
0600
7A00
C7C0
FD40
CD40
FD00
CD00
FD00
DA80
F4C0
0000
ENDCHAR
STARTCHAR 0x307C
ENCODING 12412
SWIDTH 960 0
DWIDTH 10 0
BBX 10 11 0 -2
BITMAP
0000
DF40
66C0
1B40
CC00
6FC0
0300
1FC0
6300
DFC0
0000
ENDCHAR
STARTCHAR 0x307D
ENCODING 12413
SWIDTH 960 0
DWIDTH 10 0
BBX 10 11 0 -2
BITMAP
1800
D680
DE80
D980
D680
DE80
D680
DE80
D6C0
D6C0
0000
ENDCHAR
STARTCHAR 0x307E
ENCODING 12414
SWIDTH 960 0
DWIDTH 10 0
BBX 10 11 0 -2
BITMAP
3300
3300
FFC0
1980
F7C0
D300
EFC0
D600
F4C0
DFC0
0000
ENDCHAR
STARTCHAR 0x3121
ENCODING 12577
SWIDTH 960 0
DWIDTH 10 0
BBX 10 11 0 -2
BITMAP
0600
F600
DFC0
D0C0
EFC0
D000
DFC0
ED00
CD40
DBC0
0000
ENDCHAR
STARTCHAR 0x3122
ENCODING 12578
SWIDTH 960 0
DWIDTH 10 0
BBX 10 11 0 -2
BITMAP
0000
F780
D8C0
D7C0
E000
D7C0
D180
EFC0
CD80
DF40
0000
ENDCHAR
STARTCHAR 0x3123
ENCODING 12579
SWIDTH 960 0
DWIDTH 10 0
BBX 10 11 0 -2
BITMAP
0000
FFC0
D540
D180
EFC0
D0C0
D7C0
E300
D4C0
D740
0000
ENDCHAR
STARTCHAR 0x3124
ENCODING 12580
SWIDTH 960 0
DWIDTH 10 0
BBX 10 11 0 -2
BITMAP
3000
3780
FD80
6FC0
68C0
FFC0
D8C0
FFC0
CD80
F8C0
0000
ENDCHAR
STARTCHAR 0x3125
ENCODING 12581
SWIDTH 960 0
DWIDTH 10 0
BBX 10 11 0 -2
BITMAP
0180
F180
D180
DFC0
D180
D580
D680
D180
F180
0380
0000
ENDCHAR
STARTCHAR 0x3126
ENCODING 12582
SWIDTH 960 0
DWIDTH 10 0
BBX 10 11 0 -2
BITMAP
0C00
0C00
FFC0
1800
1800
3F80
7180
D180
3180
3F80
0000
ENDCHAR
STARTCHAR 0x3127
ENCODING 12583
SWIDTH 960 0
DWIDTH 10 0
BBX 10 11 0 -2
BITMAP
0C00
0C00
FFC0
C0C0
DF40
0C00
0C00
FFC0
0C00
1C00
0000
ENDCHAR
STARTCHAR 0x3128
ENCODING 12584
SWIDTH 960 0
DWIDTH 10 0
BBX 10 11 0 -2
BITMAP
0C00
1800
7F00
6300
7FC0
6000
7FC0
00C0
6AC0
D580
0000
ENDCHAR
STARTCHAR 0x3129
ENCODING 12585
SWIDTH 960 0
DWIDTH 10 0
BBX 10 11 0 -2
BITMAP
0000
FBC0
18C0
DAC0
6B40
18C0
39C0
6B40
DAC0
39C0
0000
ENDCHAR
STARTCHAR 0x312A
ENCODING 12586
SWIDTH 960 0
DWIDTH 10 0
BBX 10 11 0 -2
BITMAP
0000
DFC0
6300
0300
1FC0
E300
6300
6700
D000
DFC0
0000
ENDCHAR
STARTCHAR 0x312B
ENCODING 12587
SWIDTH 960 0
DWIDTH 10 0
BBX 10 11 0 -2
BITMAP
0000
FFC0
0C00
FFC0
CCC0
D540
DDC0
CCC0
D540
DDC0
0000
ENDCHAR
STARTCHAR 0x312C
ENCODING 12588
SWIDTH 960 0
DWIDTH 10 0
BBX 10 11 0 -2
BITMAP
0000
3BC0
E6C0
DAC0
DAC0
DAC0
FAC0
DAC0
36C0
3600
0000
ENDCHAR
STARTCHAR 0x312D
ENCODING 12589
SWIDTH 960 0
DWIDTH 10 0
BBX 10 11 0 -2
BITMAP
0300
D600
3780
FD80
6F80
FD80
EFC0
7CC0
ED40
6AC0
0000
ENDCHAR
STARTCHAR 0x312E
ENCODING 12590
SWIDTH 960 0
DWIDTH 10 0
BBX 10 11 0 -2
BITMAP
0C00
0C00
FFC0
D6C0
6F80
FD80
6F80
FD80
6F80
D8C0
0000
ENDCHAR
STARTCHAR 0x312F
ENCODING 12591
SWIDTH 960 0
DWIDTH 10 0
BBX 10 11 0 -2
BITMAP
0000
7F00
1B00
1B00
1B00
FFC0
3300
3300
3300
FFC0
0000
ENDCHAR
STARTCHAR 0x3130
ENCODING 12592
SWIDTH 960 0
DWIDTH 10 0
BBX 10 11 0 -2
BITMAP
0600
F680
6FC0
6D80
DFC0
F580
D7C0
D580
D580
F7C0
0000
ENDCHAR
STARTCHAR 0x3131
ENCODING 12593
SWIDTH 960 0
DWIDTH 10 0
BBX 10 11 0 -2
BITMAP
0C00
1800
77C0
60C0
60C0
7BC0
60C0
60C0
60C0
7FC0
0000
ENDCHAR
STARTCHAR 0x3132
ENCODING 12594
SWIDTH 960 0
DWIDTH 10 0
BBX 10 11 0 -2
BITMAP
0000
DF80
6980
1B80
DA80
7FC0
3540
3540
7740
D1C0
0000
ENDCHAR
STARTCHAR 0x3133
ENCODING 12595
SWIDTH 960 0
DWIDTH 10 0
BBX 10 11 0 -2
BITMAP
0700
0600
FFC0
D4C0
DF80
D400
D7C0
DA80
F680
6FC0
0000
ENDCHAR
STARTCHAR 0x3134
ENCODING 12596
SWIDTH 960 0
DWIDTH 10 0
BBX 10 11 0 -2
BITMAP
0000
0FC0
F4C0
D7C0
D4C0
D4C0
D7C0
F000
0680
1CC0
0000
ENDCHAR
STARTCHAR 0x3135
ENCODING 12597
SWIDTH 960 0
DWIDTH 10 0
BBX 10 11 0 -2
BITMAP
6180
6A80
F5C0
6A80
FFC0
DAC0
FFC0
D8C0
DAC0
EAC0
0000
ENDCHAR
STARTCHAR 0x3136
ENCODING 12598
SWIDTH 960 0
DWIDTH 10 0
BBX 10 11 0 -2
BITMAP
3300
3300
FFC0
3300
FCC0
CFC0
FCC0
C6C0
FD40
D5C0
0000
ENDCHAR
STARTCHAR 0x3137
ENCODING 12599
SWIDTH 960 0
DWIDTH 10 0
BBX 10 11 0 -2
BITMAP
0000
7B80
DB80
FE80
D7C0
FD40
D7C0
FD80
0700
D5C0
0000
ENDCHAR
STARTCHAR 0x3138
ENCODING 12600
SWIDTH 960 0
DWIDTH 10 0
BBX 10 11 0 -2
BITMAP
0600
6600
6FC0
FAC0
6A80
6FC0
D600
F7C0
6A00
67C0
0000
ENDCHAR
STARTCHAR 0x3139
ENCODING 12601
SWIDTH 960 0
DWIDTH 10 0
BBX 10 11 0 -2
BITMAP
0000
FFC0
C000
FBC0
DA80
FA80
DFC0
FB80
D680
EDC0
0000
ENDCHAR
STARTCHAR 0x313A
ENCODING 12602
SWIDTH 960 0
DWIDTH 10 0
BBX 10 11 0 -2
BITMAP
0300
C340
6FC0
0300
DFC0
6B40
1FC0
1B40
6FC0
DB40
0000
ENDCHAR
STARTCHAR 0x313B
ENCODING 12603
SWIDTH 960 0
DWIDTH 10 0
BBX 10 11 0 -2
BITMAP
0000
7FC0
6D80
6D80
6D80
6D80
6D80
6D40
DF40
C0C0
0000
ENDCHAR
STARTCHAR 0x313C
ENCODING 12604
SWIDTH 960 0
DWIDTH 10 0
BBX 10 11 0 -2
BITMAP
0000
FBC0
DAC0
FBC0
DAC0
FFC0
CCC0
DF40
CCC0
DF40
0000
ENDCHAR
STARTCHAR 0x313D
ENCODING 12605
SWIDTH 960 0
DWIDTH 10 0
BBX 10 11 0 -2
BITMAP
0D80
0300
FFC0
D540
D6C0
D4C0
DFC0
D0C0
F4C0
06C0
0000
ENDCHAR
STARTCHAR 0x313E
ENCODING 12606
SWIDTH 960 0
DWIDTH 10 0
BBX 10 11 0 -2
BITMAP
0000
7F80
0000
0000
FFC0
1800
1B00
3300
6680
7D80
0000
ENDCHAR
STARTCHAR 0x313F
ENCODING 12607
SWIDTH 960 0
DWIDTH 10 0
BBX 10 11 0 -2
BITMAP
0000
1FC0
DB40
6FC0
0D40
EFC0
6D40
6FC0
D300
DFC0
0000
ENDCHAR
STARTCHAR 0x3140
ENCODING 12608
SWIDTH 960 0
DWIDTH 10 0
BBX 10 11 0 -2
BITMAP
0000
7F80
0C00
FFC0
D540
7F80
0000
FFC0
3300
7E80
0000
ENDCHAR
STARTCHAR 0x3141
ENCODING 12609
SWIDTH 960 0
DWIDTH 10 0
BBX 10 11 0 -2
BITMAP
3300
3300
FFC0
3000
37C0
6300
EFC0
6300
6300
6FC0
0000
ENDCHAR
STARTCHAR 0x3142
ENCODING 12610
SWIDTH 960 0
DWIDTH 10 0
BBX 10 11 0 -2
BITMAP
0000
77C0
C6C0
FBC0
DAC0
FBC0
DAC0
FAC0
D7C0
E8C0
0000
ENDCHAR
STARTCHAR 0x3143
ENCODING 12611
SWIDTH 960 0
DWIDTH 10 0
BBX 10 11 0 -2
BITMAP
3800
33C0
FEC0
DAC0
6D40
FB40
CE80
FD80
CD40
FEC0
0000
ENDCHAR
STARTCHAR 0x3144
ENCODING 12612
SWIDTH 960 0
DWIDTH 10 0
BBX 10 11 0 -2
BITMAP
0C00
3500
FFC0
D340
DF40
1800
7F80
6180
6180
7F80
0000
ENDCHAR
STARTCHAR 0x3145
ENCODING 12613
SWIDTH 960 0
DWIDTH 10 0
BBX 10 11 0 -2
BITMAP
0000
FBC0
DAC0
FBC0
DAC0
FBC0
6E80
F3C0
3E00
E3C0
0000
ENDCHAR
STARTCHAR 0x3146
ENCODING 12614
SWIDTH 960 0
DWIDTH 10 0
BBX 10 11 0 -2
BITMAP
0000
FCC0
CD80
FD00
CCC0
FD80
6D00
7CC0
DA80
DB00
0000
ENDCHAR
STARTCHAR 0x3147
ENCODING 12615
SWIDTH 960 0
DWIDTH 10 0
BBX 10 11 0 -2
BITMAP
0300
0300
F7C0
D540
D540
F540
DFC0
D300
F680
1CC0
0000
ENDCHAR
STARTCHAR 0x3148
ENCODING 12616
SWIDTH 960 0
DWIDTH 10 0
BBX 10 11 0 -2
BITMAP
0C00
0C00
7F80
6D80
7F80
6D80
7F80
0D00
0EC0
FBC0
0000
ENDCHAR
STARTCHAR 0x3149
ENCODING 12617
SWIDTH 960 0
DWIDTH 10 0
BBX 10 11 0 -2
BITMAP
1980
6D00
3600
FFC0
CCC0
0C00
FFC0
1D00
3580
ECC0
0000
ENDCHAR
STARTCHAR 0x314A
ENCODING 12618
SWIDTH 960 0
DWIDTH 10 0
BBX 10 11 0 -2
BITMAP
3800
0E00
0000
7D80
0D00
F600
3500
6D80
CCC0
1C00
0000
ENDCHAR
STARTCHAR 0x314B
ENCODING 12619
SWIDTH 960 0
DWIDTH 10 0
BBX 10 11 0 -2
BITMAP
0E00
C380
6000
1F00
C340
6D80
0D00
0D80
6B40
C700
0000
ENDCHAR
STARTCHAR 0x314C
ENCODING 12620
SWIDTH 960 0
DWIDTH 10 0
BBX 10 11 0 -2
BITMAP
0300
C300
6FC0
1B40
DFC0
6B40
1FC0
0300
6740
DDC0
0000
ENDCHAR
STARTCHAR 0x314D
ENCODING 12621
SWIDTH 960 0
DWIDTH 10 0
BBX 10 11 0 -2
BITMAP
0D80
0D80
FFC0
6D80
6FC0
FB40
6B40
6FC0
F680
1CC0
0000
ENDCHAR
STARTCHAR 0x314E
ENCODING 12622
SWIDTH 960 0
DWIDTH 10 0
BBX 10 11 0 -2
BITMAP
0000
FF80
6300
7DC0
D4C0
DAC0
7F80
6A80
6A80
FFC0
0000
ENDCHAR
STARTCHAR 0x314F
ENCODING 12623
SWIDTH 960 0
DWIDTH 10 0
BBX 10 11 0 -2
BITMAP
0000
CFC0
FB00
CFC0
FCC0
37C0
FCC0
37C0
7680
D4C0
0000
ENDCHAR
STARTCHAR 0x3150
ENCODING 12624
SWIDTH 960 0
DWIDTH 10 0
BBX 10 11 0 -2
BITMAP
0000
CFC0
FB00
CFC0
FCC0
0FC0
FCC0
37C0
D680
DCC0
0000
ENDCHAR
STARTCHAR 0x3151
ENCODING 12625
SWIDTH 960 0
DWIDTH 10 0
BBX 10 11 0 -2
BITMAP
3300
3300
FFC0
0C00
7F80
6D80
6D80
FFC0
3300
E1C0
0000
ENDCHAR
STARTCHAR 0x3152
ENCODING 12626
SWIDTH 960 0
DWIDTH 10 0
BBX 10 11 0 -2
BITMAP
0C00
6DC0
DF00
0D00
3FC0
6B40
EF40
6CC0
7F40
6DC0
0000
ENDCHAR
STARTCHAR 0x3153
ENCODING 12627
SWIDTH 960 0
DWIDTH 10 0
BBX 10 11 0 -2
BITMAP
0E00
F380
0000
F700
0340
FD80
0D00
F580
DB40
F700
0000
ENDCHAR
STARTCHAR 0x3154
ENCODING 12628
SWIDTH 960 0
DWIDTH 10 0
BBX 10 11 0 -2
BITMAP
06C0
7A80
C000
FFC0
34C0
FCC0
37C0
D680
3580
F9C0
0000
ENDCHAR
STARTCHAR 0x3155
ENCODING 12629
SWIDTH 960 0
DWIDTH 10 0
BBX 10 11 0 -2
BITMAP
0600
C600
7FC0
1A00
DBC0
6D40
3AC0
1A80
6B80
DEC0
0000
ENDCHAR
STARTCHAR 0x3156
ENCODING 12630
SWIDTH 960 0
DWIDTH 10 0
BBX 10 11 0 -2
BITMAP
0600
0600
7FC0
ED00
6D00
E9C0
7F80
6980
CF00
D9C0
0000
ENDCHAR
STARTCHAR 0x3157
ENCODING 12631
SWIDTH 960 0
DWIDTH 10 0
BBX 10 11 0 -2
BITMAP
3300
1A00
0000
FFC0
3300
6180
FFC0
6A80
6A80
FFC0
0000
ENDCHAR
STARTCHAR 0x3158
ENCODING 12632
SWIDTH 960 0
DWIDTH 10 0
BBX 10 11 0 -2
BITMAP
0000
FBC0
D6C0
FAC0
D6C0
D7C0
FA80
1A80
ECC0
38C0
0000
ENDCHAR
STARTCHAR 0x3159
ENCODING 12633
SWIDTH 960 0
DWIDTH 10 0
BBX 10 11 0 -2
BITMAP
0D80
3500
3000
D7C0
D4C0
D4C0
D7C0
D680
3580
39C0
0000
ENDCHAR
STARTCHAR 0x315A
ENCODING 12634
SWIDTH 960 0
DWIDTH 10 0
BBX 10 11 0 -2
BITMAP
0000
F780
0D80
F780
0D80
F7C0
1CC0
F540
D6C0
F380
0000
ENDCHAR
STARTCHAR 0x315B
ENCODING 12635
SWIDTH 960 0
DWIDTH 10 0
BBX 10 11 0 -2
BITMAP
3180
3180
FBC0
3680
FEC0
3680
DB40
D6C0
F000
DFC0
0000
ENDCHAR
STARTCHAR 0x315C
ENCODING 12636
SWIDTH 960 0
DWIDTH 10 0
BBX 10 11 0 -2
BITMAP
0000
FBC0
DAC0
FBC0
DAC0
FFC0
D340
DF40
DAC0
D740
0000
ENDCHAR
STARTCHAR 0x315D
ENCODING 12637
SWIDTH 960 0
DWIDTH 10 0
BBX 10 11 0 -2
BITMAP
0000
37C0
3300
FFC0
34C0
77C0
74C0
D7C0
DB80
36C0
0000
ENDCHAR
STARTCHAR 0x315E
ENCODING 12638
SWIDTH 960 0
DWIDTH 10 0
BBX 10 11 0 -2
BITMAP
0000
FFC0
DB00
FB40
CFC0
FB00
DB00
FB00
DA80
DCC0
0000
ENDCHAR
STARTCHAR 0x315F
ENCODING 12639
SWIDTH 960 0
DWIDTH 10 0
BBX 10 11 0 -2
BITMAP
0000
FFC0
CCC0
CCC0
CCC0
FFC0
C0C0
C0C0
C0C0
C3C0
0000
ENDCHAR
STARTCHAR 0x3160
ENCODING 12640
SWIDTH 960 0
DWIDTH 10 0
BBX 10 11 0 -2
BITMAP
0000
FFC0
CCC0
DF40
CCC0
FFC0
D340
DFC0
DAC0
FFC0
0000
ENDCHAR
STARTCHAR 0x3161
ENCODING 12641
SWIDTH 960 0
DWIDTH 10 0
BBX 10 11 0 -2
BITMAP
0000
6FC0
6AC0
FBC0
6AC0
6FC0
6AC0
6B80
FAC0
1FC0
0000
ENDCHAR
STARTCHAR 0x3162
ENCODING 12642
SWIDTH 960 0
DWIDTH 10 0
BBX 10 11 0 -2
BITMAP
0C00
0C00
FFC0
3500
6D80
FFC0
6D80
7F80
6CC0
0FC0
0000
ENDCHAR
STARTCHAR 0x3163
ENCODING 12643
SWIDTH 960 0
DWIDTH 10 0
BBX 10 11 0 -2
BITMAP
0C00
0C00
FFC0
D340
3F00
3300
FFC0
3180
3F00
E1C0
0000
ENDCHAR
STARTCHAR 0x3164
ENCODING 12644
SWIDTH 960 0
DWIDTH 10 0
BBX 10 11 0 -2
BITMAP
0000
F1C0
3700
6300
F3C0
3500
D500
6FC0
D800
CFC0
0000
ENDCHAR
STARTCHAR 0x3165
ENCODING 12645
SWIDTH 960 0
DWIDTH 10 0
BBX 10 11 0 -2
BITMAP
0000
7BC0
6AC0
DAC0
6A00
37C0
EC00
0680
68C0
DF80
0000
ENDCHAR
STARTCHAR 0x3166
ENCODING 12646
SWIDTH 960 0
DWIDTH 10 0
BBX 10 11 0 -2
BITMAP
0600
6600
7FC0
EE80
6AC0
7FC0
EAC0
6FC0
6A00
E7C0
0000
ENDCHAR
STARTCHAR 0x3167
ENCODING 12647
SWIDTH 960 0
DWIDTH 10 0
BBX 10 11 0 -2
BITMAP
0000
6FC0
6D40
F180
6FC0
6600
7FC0
ED80
6F00
F9C0
0000
ENDCHAR
STARTCHAR 0x3168
ENCODING 12648
SWIDTH 960 0
DWIDTH 10 0
BBX 10 11 0 -2
BITMAP
0000
C780
6180
0CC0
D8C0
6000
0FC0
34C0
6CC0
CFC0
0000
ENDCHAR
STARTCHAR 0x3169
ENCODING 12649
SWIDTH 960 0
DWIDTH 10 0
BBX 10 11 0 -2
BITMAP
0600
C600
7FC0
36C0
DF80
6A80
1F80
1A80
CF80
D9C0
0000
ENDCHAR
STARTCHAR 0x316A
ENCODING 12650
SWIDTH 960 0
DWIDTH 10 0
BBX 10 11 0 -2
BITMAP
0C00
6D80
6D80
3B00
E1C0
0C00
6D80
6D80
3B00
E1C0
0000
ENDCHAR
STARTCHAR 0x316B
ENCODING 12651
SWIDTH 960 0
DWIDTH 10 0
BBX 10 11 0 -2
BITMAP
0000
37C0
D4C0
D980
D7C0
3AC0
6BC0
6AC0
DAC0
DBC0
0000
ENDCHAR
STARTCHAR 0x316C
ENCODING 12652
SWIDTH 960 0
DWIDTH 10 0
BBX 10 11 0 -2
BITMAP
0000
3FC0
CD00
DFC0
D540
3FC0
6600
6FC0
C600
DFC0
0000
ENDCHAR
STARTCHAR 0x316D
ENCODING 12653
SWIDTH 960 0
DWIDTH 10 0
BBX 10 11 0 -2
BITMAP
3300
FFC0
3300
7F80
EAC0
6A80
EEC0
0000
6A80
CD40
0000
ENDCHAR
STARTCHAR 0x316E
ENCODING 12654
SWIDTH 960 0
DWIDTH 10 0
BBX 10 11 0 -2
BITMAP
0300
3300
DFC0
6300
DFC0
34C0
77C0
D6C0
3D80
EEC0
0000
ENDCHAR
STARTCHAR 0x316F
ENCODING 12655
SWIDTH 960 0
DWIDTH 10 0
BBX 10 11 0 -2
BITMAP
0000
6F80
C180
F780
6180
DFC0
F500
3B40
D580
DB40
0000
ENDCHAR
STARTCHAR 0x3170
ENCODING 12656
SWIDTH 960 0
DWIDTH 10 0
BBX 10 11 0 -2
BITMAP
3000
FB80
D580
FFC0
D540
FD40
6FC0
7C00
34C0
FFC0
0000
ENDCHAR
STARTCHAR 0x3171
ENCODING 12657
SWIDTH 960 0
DWIDTH 10 0
BBX 10 11 0 -2
BITMAP
3300
3300
FFC0
3300
FBC0
DAC0
FBC0
DA00
36C0
E7C0
0000
ENDCHAR
STARTCHAR 0x3172
ENCODING 12658
SWIDTH 960 0
DWIDTH 10 0
BBX 10 11 0 -2
BITMAP
3300
3300
FFC0
3300
FFC0
DB40
DF40
EAC0
DB40
FFC0
0000
ENDCHAR
STARTCHAR 0x3173
ENCODING 12659
SWIDTH 960 0
DWIDTH 10 0
BBX 10 11 0 -2
BITMAP
0300
C300
6FC0
0300
1FC0
ED80
6F80
6D40
D300
DFC0
0000
ENDCHAR
STARTCHAR 0x3174
ENCODING 12660
SWIDTH 960 0
DWIDTH 10 0
BBX 10 11 0 -2
BITMAP
0000
7B80
C180
FAC0
34C0
F800
37C0
D4C0
34C0
FFC0
0000
ENDCHAR
STARTCHAR 0x3175
ENCODING 12661
SWIDTH 960 0
DWIDTH 10 0
BBX 10 11 0 -2
BITMAP
0000
7BC0
6AC0
DF80
71C0
DF80
3180
3FC0
60C0
D540
0000
ENDCHAR
STARTCHAR 0x3176
ENCODING 12662
SWIDTH 960 0
DWIDTH 10 0
BBX 10 11 0 -2
BITMAP
0C00
6C00
6FC0
F580
6F80
6000
6FC0
6D40
F540
1FC0
0000
ENDCHAR
STARTCHAR 0x3177
ENCODING 12663
SWIDTH 960 0
DWIDTH 10 0
BBX 10 11 0 -2
BITMAP
0000
6780
FCC0
6000
6700
79C0
D800
D800
1B00
71C0
0000
ENDCHAR
STARTCHAR 0x3178
ENCODING 12664
SWIDTH 960 0
DWIDTH 10 0
BBX 10 11 0 -2
BITMAP
0000
DFC0
6600
0600
DFC0
6C00
0FC0
18C0
68C0
C380
0000
ENDCHAR
STARTCHAR 0x3179
ENCODING 12665
SWIDTH 960 0
DWIDTH 10 0
BBX 10 11 0 -2
BITMAP
0000
37C0
D540
FFC0
3540
FFC0
3300
3FC0
F6C0
1DC0
0000
ENDCHAR
STARTCHAR 0x317A
ENCODING 12666
SWIDTH 960 0
DWIDTH 10 0
BBX 10 11 0 -2
BITMAP
0000
FBC0
DAC0
DAC0
DAC0
DEC0
C0C0
C0C0
C0C0
FFC0
0000
ENDCHAR
STARTCHAR 0x317B
ENCODING 12667
SWIDTH 960 0
DWIDTH 10 0
BBX 10 11 0 -2
BITMAP
0C00
0C00
7F80
6D80
6D80
6D80
FFC0
1A00
3300
E1C0
0000
ENDCHAR
STARTCHAR 0x317C
ENCODING 12668
SWIDTH 960 0
DWIDTH 10 0
BBX 10 11 0 -2
BITMAP
0C00
1800
7F80
6A80
7F80
6D80
6A80
FFC0
3300
E1C0
0000
ENDCHAR
STARTCHAR 0x317D
ENCODING 12669
SWIDTH 960 0
DWIDTH 10 0
BBX 10 11 0 -2
BITMAP
0600
6300
C000
1FC0
3300
6300
EFC0
6300
6300
6FC0
0000
ENDCHAR
STARTCHAR 0x317E
ENCODING 12670
SWIDTH 960 0
DWIDTH 10 0
BBX 10 11 0 -2
BITMAP
0600
0600
7FC0
6C00
6600
6180
6CC0
6C00
D4C0
CFC0
0000
ENDCHAR
STARTCHAR 0x3221
ENCODING 12833
SWIDTH 960 0
DWIDTH 10 0
BBX 10 11 0 -2
BITMAP
0000
6FC0
6B40
FB40
6FC0
6B40
7B40
EFC0
6300
E300
0000
ENDCHAR
STARTCHAR 0x3222
ENCODING 12834
SWIDTH 960 0
DWIDTH 10 0
BBX 10 11 0 -2
BITMAP
0000
1FC0
F300
D300
D300
F7C0
D300
D300
F300
1FC0
0000
ENDCHAR
STARTCHAR 0x3223
ENCODING 12835
SWIDTH 960 0
DWIDTH 10 0
BBX 10 11 0 -2
BITMAP
0680
3680
3FC0
F680
3FC0
7540
77C0
D540
D780
38C0
0000
ENDCHAR
STARTCHAR 0x3224
ENCODING 12836
SWIDTH 960 0
DWIDTH 10 0
BBX 10 11 0 -2
BITMAP
0C00
FC00
CFC0
ED40
D340
D300
EB00
C300
F680
1CC0
0000
ENDCHAR
STARTCHAR 0x3225
ENCODING 12837
SWIDTH 960 0
DWIDTH 10 0
BBX 10 11 0 -2
BITMAP
0000
FBC0
C6C0
EAC0
D6C0
D000
EFC0
C6C0
FB80
0EC0
0000
ENDCHAR
STARTCHAR 0x3226
ENCODING 12838
SWIDTH 960 0
DWIDTH 10 0
BBX 10 11 0 -2
BITMAP
0000
FFC0
0C00
0C00
0C00
7F80
0C00
0C00
0C00
FFC0
0000
ENDCHAR
STARTCHAR 0x3227
ENCODING 12839
SWIDTH 960 0
DWIDTH 10 0
BBX 10 11 0 -2
BITMAP
0000
3700
6980
DF40
0000
FBC0
18C0
DAC0
6B40
DAC0
0000
ENDCHAR
STARTCHAR 0x3228
ENCODING 12840
SWIDTH 960 0
DWIDTH 10 0
BBX 10 11 0 -2
BITMAP
0300
6600
6FC0
FAC0
1D40
3BC0
6D40
EFC0
7680
6CC0
0000
ENDCHAR
STARTCHAR 0x3229
ENCODING 12841
SWIDTH 960 0
DWIDTH 10 0
BBX 10 11 0 -2
BITMAP
0C00
3500
FFC0
D8C0
DF40
3300
3FC0
00C0
6AC0
DAC0
0000
ENDCHAR
STARTCHAR 0x322A
ENCODING 12842
SWIDTH 960 0
DWIDTH 10 0
BBX 10 11 0 -2
BITMAP
0300
FA00
CF80
ED80
D780
D580
EFC0
C0C0
F540
1AC0
0000
ENDCHAR
STARTCHAR 0x322B
ENCODING 12843
SWIDTH 960 0
DWIDTH 10 0
BBX 10 11 0 -2
BITMAP
1B00
1B00
7FC0
1B00
FFC0
3580
3F80
3580
3F80
E0C0
0000
ENDCHAR
STARTCHAR 0x322C
ENCODING 12844
SWIDTH 960 0
DWIDTH 10 0
BBX 10 11 0 -2
BITMAP
0000
FFC0
C0C0
D340
DAC0
FFC0
CCC0
D540
DF40
C1C0
0000
ENDCHAR
STARTCHAR 0x322D
ENCODING 12845
SWIDTH 960 0
DWIDTH 10 0
BBX 10 11 0 -2
BITMAP
0300
C300
6FC0
1B40
DB40
6B40
1FC0
0300
6300
C300
0000
ENDCHAR
STARTCHAR 0x322E
ENCODING 12846
SWIDTH 960 0
DWIDTH 10 0
BBX 10 11 0 -2
BITMAP
3300
3300
FFC0
D300
6D40
D580
7300
D300
3680
ECC0
0000
ENDCHAR
STARTCHAR 0x322F
ENCODING 12847
SWIDTH 960 0
DWIDTH 10 0
BBX 10 11 0 -2
BITMAP
0300
3300
3FC0
6D80
EFC0
6CC0
6FC0
6300
34C0
6F40
0000
ENDCHAR
STARTCHAR 0x3230
ENCODING 12848
SWIDTH 960 0
DWIDTH 10 0
BBX 10 11 0 -2
BITMAP
0000
7FC0
60C0
7FC0
6980
7F80
66C0
DF80
C600
3FC0
0000
ENDCHAR
STARTCHAR 0x3231
ENCODING 12849
SWIDTH 960 0
DWIDTH 10 0
BBX 10 11 0 -2
BITMAP
0300
3300
3FC0
D580
DFC0
D4C0
D7C0
0300
34C0
6F40
0000
ENDCHAR
STARTCHAR 0x3232
ENCODING 12850
SWIDTH 960 0
DWIDTH 10 0
BBX 10 11 0 -2
BITMAP
0300
F300
DFC0
D580
FFC0
D4C0
D7C0
F300
D4C0
D740
0000
ENDCHAR
STARTCHAR 0x3233
ENCODING 12851
SWIDTH 960 0
DWIDTH 10 0
BBX 10 11 0 -2
BITMAP
0000
6F80
6180
FFC0
6B40
6FC0
EB40
7FC0
6B40
6B40
0000
ENDCHAR
STARTCHAR 0x3234
ENCODING 12852
SWIDTH 960 0
DWIDTH 10 0
BBX 10 11 0 -2
BITMAP
0300
3300
D300
FB00
D7C0
D300
3B00
F300
3300
37C0
0000
ENDCHAR
STARTCHAR 0x3235
ENCODING 12853
SWIDTH 960 0
DWIDTH 10 0
BBX 10 11 0 -2
BITMAP
0000
7F80
0180
0300
0600
0C00
18C0
30C0
60C0
7F80
0000
ENDCHAR
STARTCHAR 0x3236
ENCODING 12854
SWIDTH 960 0
DWIDTH 10 0
BBX 10 11 0 -2
BITMAP
0600
3600
3FC0
6E80
EAC0
7FC0
6AC0
6FC0
6A00
67C0
0000
ENDCHAR
STARTCHAR 0x3237
ENCODING 12855
SWIDTH 960 0
DWIDTH 10 0
BBX 10 11 0 -2
BITMAP
6000
67C0
7EC0
D6C0
FEC0
36C0
3AC0
D6C0
D6C0
FE00
0000
ENDCHAR
STARTCHAR 0x3238
ENCODING 12856
SWIDTH 960 0
DWIDTH 10 0
BBX 10 11 0 -2
BITMAP
0000
7F80
6D80
7F80
6A80
7380
7F80
0600
6980
DF40
0000
ENDCHAR
STARTCHAR 0x3239
ENCODING 12857
SWIDTH 960 0
DWIDTH 10 0
BBX 10 11 0 -2
BITMAP
0000
DF80
6980
1F80
D980
6F80
0000
3FC0
7540
DFC0
0000
ENDCHAR
STARTCHAR 0x323A
ENCODING 12858
SWIDTH 960 0
DWIDTH 10 0
BBX 10 11 0 -2
BITMAP
0000
1FC0
F540
3180
FFC0
30C0
37C0
7B00
D4C0
3740
0000
ENDCHAR
STARTCHAR 0x323B
ENCODING 12859
SWIDTH 960 0
DWIDTH 10 0
BBX 10 11 0 -2
BITMAP
0C00
0C00
7FC0
1B00
1B00
FFC0
3180
3F80
3180
3F80
0000
ENDCHAR
STARTCHAR 0x323C
ENCODING 12860
SWIDTH 960 0
DWIDTH 10 0
BBX 10 11 0 -2
BITMAP
0000
FFC0
0C00
0C00
0E00
0D00
0D80
0C00
0C00
0C00
0000
ENDCHAR
STARTCHAR 0x323D
ENCODING 12861
SWIDTH 960 0
DWIDTH 10 0
BBX 10 11 0 -2
BITMAP
0C00
3400
34C0
6D80
ED00
6E00
6C00
6CC0
6CC0
6FC0
0000
ENDCHAR
STARTCHAR 0x323E
ENCODING 12862
SWIDTH 960 0
DWIDTH 10 0
BBX 10 11 0 -2
BITMAP
0000
37C0
3400
6C00
EFC0
6CC0
6AC0
6A80
6380
6EC0
0000
ENDCHAR
STARTCHAR 0x323F
ENCODING 12863
SWIDTH 960 0
DWIDTH 10 0
BBX 10 11 0 -2
BITMAP
0000
3FC0
30C0
6F40
EB40
6B40
6B40
6F40
60C0
61C0
0000
ENDCHAR
STARTCHAR 0x3240
ENCODING 12864
SWIDTH 960 0
DWIDTH 10 0
BBX 10 11 0 -2
BITMAP
0C00
35C0
3540
6F40
ED40
6D40
6B40
6B40
6340
6FC0
0000
ENDCHAR
STARTCHAR 0x3241
ENCODING 12865
SWIDTH 960 0
DWIDTH 10 0
BBX 10 11 0 -2
BITMAP
0000
7FC0
6D00
6D00
DFC0
D540
D540
D540
D540
DFC0
0000
ENDCHAR
STARTCHAR 0x3242
ENCODING 12866
SWIDTH 960 0
DWIDTH 10 0
BBX 10 11 0 -2
BITMAP
0300
3300
37C0
6300
EFC0
6300
6FC0
6300
6300
6FC0
0000
ENDCHAR
STARTCHAR 0x3243
ENCODING 12867
SWIDTH 960 0
DWIDTH 10 0
BBX 10 11 0 -2
BITMAP
3000
3000
33C0
FD40
6D40
6D40
6D40
CD40
CD40
3BC0
0000
ENDCHAR
STARTCHAR 0x3244
ENCODING 12868
SWIDTH 960 0
DWIDTH 10 0
BBX 10 11 0 -2
BITMAP
0000
FFC0
0180
7D80
6D80
6D80
6D80
7D80
0180
0380
0000
ENDCHAR
STARTCHAR 0x3245
ENCODING 12869
SWIDTH 960 0
DWIDTH 10 0
BBX 10 11 0 -2
BITMAP
0C00
0C00
FFC0
0C00
7F80
3300
FFC0
6AC0
DAC0
DBC0
0000
ENDCHAR
STARTCHAR 0x3246
ENCODING 12870
SWIDTH 960 0
DWIDTH 10 0
BBX 10 11 0 -2
BITMAP
0000
FFC0
0C00
3F80
3180
3F80
3180
EB80
1F00
F1C0
0000
ENDCHAR
STARTCHAR 0x3247
ENCODING 12871
SWIDTH 960 0
DWIDTH 10 0
BBX 10 11 0 -2
BITMAP
0300
6300
6FC0
F8C0
6F80
6AC0
D540
F680
6D80
6740
0000
ENDCHAR
STARTCHAR 0x3248
ENCODING 12872
SWIDTH 960 0
DWIDTH 10 0
BBX 10 11 0 -2
BITMAP
0C00
0C00
FFC0
C0C0
7F80
34C0
EE80
3B00
E6C0
1C00
0000
ENDCHAR
STARTCHAR 0x3249
ENCODING 12873
SWIDTH 960 0
DWIDTH 10 0
BBX 10 11 0 -2
BITMAP
0C00
0C00
FFC0
D340
DF40
3300
7F80
DB40
1B00
7700
0000
ENDCHAR
STARTCHAR 0x324A
ENCODING 12874
SWIDTH 960 0
DWIDTH 10 0
BBX 10 11 0 -2
BITMAP
0000
3A80
E380
6D80
FA80
6180
71C0
E780
6D80
6180
0000
ENDCHAR
STARTCHAR 0x324B
ENCODING 12875
SWIDTH 960 0
DWIDTH 10 0
BBX 10 11 0 -2
BITMAP
0000
3FC0
F4C0
D5C0
DC00
F3C0
DEC0
D340
FD80
36C0
0000
ENDCHAR
STARTCHAR 0x324C
ENCODING 12876
SWIDTH 960 0
DWIDTH 10 0
BBX 10 11 0 -2
BITMAP
0000
7F80
6D80
7F80
6D80
7F80
0C00
FFC0
3500
EDC0
0000
ENDCHAR
STARTCHAR 0x324D
ENCODING 12877
SWIDTH 960 0
DWIDTH 10 0
BBX 10 11 0 -2
BITMAP
6000
67C0
FAC0
6AC0
DBC0
0C00
FFC0
1D00
3580
ECC0
0000
ENDCHAR
STARTCHAR 0x324E
ENCODING 12878
SWIDTH 960 0
DWIDTH 10 0
BBX 10 11 0 -2
BITMAP
0C00
FC00
D7C0
D540
F540
0300
FD00
D500
F680
1CC0
0000
ENDCHAR
STARTCHAR 0x324F
ENCODING 12879
SWIDTH 960 0
DWIDTH 10 0
BBX 10 11 0 -2
BITMAP
0000
DFC0
6180
1E80
DA80
6A80
1A80
1E80
6180
C380
0000
ENDCHAR
STARTCHAR 0x3250
ENCODING 12880
SWIDTH 960 0
DWIDTH 10 0
BBX 10 11 0 -2
BITMAP
0C00
0C00
0CC0
6D80
CD00
0C00
0E00
1B00
3180
E0C0
0000
ENDCHAR
STARTCHAR 0x3251
ENCODING 12881
SWIDTH 960 0
DWIDTH 10 0
BBX 10 11 0 -2
BITMAP
0000
1FC0
F0C0
6F40
6D40
F540
6D40
6F40
F0C0
03C0
0000
ENDCHAR
STARTCHAR 0x3252
ENCODING 12882
SWIDTH 960 0
DWIDTH 10 0
BBX 10 11 0 -2
BITMAP
0000
6F80
6980
FB80
1A80
3FC0
6B40
EB40
6F40
61C0
0000
ENDCHAR
STARTCHAR 0x3253
ENCODING 12883
SWIDTH 960 0
DWIDTH 10 0
BBX 10 11 0 -2
BITMAP
0000
0780
7C00
0C00
0C00
FFC0
0C00
1D00
3580
ECC0
0000
ENDCHAR
STARTCHAR 0x3254
ENCODING 12884
SWIDTH 960 0
DWIDTH 10 0
BBX 10 11 0 -2
BITMAP
0300
3B00
EFC0
68C0
FF80
66C0
7540
E680
6D80
6740
0000
ENDCHAR
STARTCHAR 0x3255
ENCODING 12885
SWIDTH 960 0
DWIDTH 10 0
BBX 10 11 0 -2
BITMAP
0600
6600
7BC0
D580
FFC0
CCC0
DF40
DAC0
DAC0
FFC0
0000
ENDCHAR
STARTCHAR 0x3256
ENCODING 12886
SWIDTH 960 0
DWIDTH 10 0
BBX 10 11 0 -2
BITMAP
3300
3300
FFC0
3300
3400
6DC0
EF00
6C00
6CC0
6FC0
0000
ENDCHAR
STARTCHAR 0x3257
ENCODING 12887
SWIDTH 960 0
DWIDTH 10 0
BBX 10 11 0 -2
BITMAP
3300
3300
FFC0
3300
FFC0
0180
7D80
6D80
7D80
0780
0000
ENDCHAR
STARTCHAR 0x3258
ENCODING 12888
SWIDTH 960 0
DWIDTH 10 0
BBX 10 11 0 -2
BITMAP
3300
3300
FFC0
3300
6000
FDC0
6D40
6D40
CD40
DBC0
0000
ENDCHAR
STARTCHAR 0x3259
ENCODING 12889
SWIDTH 960 0
DWIDTH 10 0
BBX 10 11 0 -2
BITMAP
3300
3300
FFC0
3300
3FC0
60C0
EF40
6B40
6F40
61C0
0000
ENDCHAR
STARTCHAR 0x325A
ENCODING 12890
SWIDTH 960 0
DWIDTH 10 0
BBX 10 11 0 -2
BITMAP
3300
3300
FFC0
3300
FFC0
6D80
FFC0
6D80
FFC0
0C00
0000
ENDCHAR
STARTCHAR 0x325B
ENCODING 12891
SWIDTH 960 0
DWIDTH 10 0
BBX 10 11 0 -2
BITMAP
3300
3300
FFC0
6D80
7F80
6D80
FFC0
1D00
3580
ECC0
0000
ENDCHAR
STARTCHAR 0x325C
ENCODING 12892
SWIDTH 960 0
DWIDTH 10 0
BBX 10 11 0 -2
BITMAP
0000
6FC0
6AC0
FAC0
EE00
EBC0
FEC0
6B40
6D80
FAC0
0000
ENDCHAR
STARTCHAR 0x325D
ENCODING 12893
SWIDTH 960 0
DWIDTH 10 0
BBX 10 11 0 -2
BITMAP
0000
F7C0
0D40
F7C0
0D40
F7C0
0300
FFC0
D700
F540
0000
ENDCHAR
STARTCHAR 0x325E
ENCODING 12894
SWIDTH 960 0
DWIDTH 10 0
BBX 10 11 0 -2
BITMAP
0680
0680
FFC0
D680
DFC0
D540
DFC0
D540
FFC0
0300
0000
ENDCHAR
STARTCHAR 0x325F
ENCODING 12895
SWIDTH 960 0
DWIDTH 10 0
BBX 10 11 0 -2
BITMAP
0000
35C0
6F00
ECC0
7FC0
3300
3F00
3300
3F00
E1C0
0000
ENDCHAR
STARTCHAR 0x3260
ENCODING 12896
SWIDTH 960 0
DWIDTH 10 0
BBX 10 11 0 -2
BITMAP
0C00
CC00
6DC0
1F40
0D40
ED40
6B40
6BC0
D000
DFC0
0000
ENDCHAR
STARTCHAR 0x3261
ENCODING 12897
SWIDTH 960 0
DWIDTH 10 0
BBX 10 11 0 -2
BITMAP
0000
CF80
6D80
0D80
0D00
EFC0
6AC0
6BC0
D000
DFC0
0000
ENDCHAR
STARTCHAR 0x3262
ENCODING 12898
SWIDTH 960 0
DWIDTH 10 0
BBX 10 11 0 -2
BITMAP
0000
7F80
0C00
FFC0
D540
0C00
FBC0
C6C0
FB80
CEC0
0000
ENDCHAR
STARTCHAR 0x3263
ENCODING 12899
SWIDTH 960 0
DWIDTH 10 0
BBX 10 11 0 -2
BITMAP
0300
3300
3300
FFC0
D4C0
D540
FD40
3180
3580
FEC0
0000
ENDCHAR
STARTCHAR 0x3264
ENCODING 12900
SWIDTH 960 0
DWIDTH 10 0
BBX 10 11 0 -2
BITMAP
0300
3F40
6B40
EB00
7FC0
6B00
6D40
7980
6B40
6EC0
0000
ENDCHAR
STARTCHAR 0x3265
ENCODING 12901
SWIDTH 960 0
DWIDTH 10 0
BBX 10 11 0 -2
BITMAP
0300
3F40
3540
D500
DFC0
D500
D740
DD80
F540
1EC0
0000
ENDCHAR
STARTCHAR 0x3266
ENCODING 12902
SWIDTH 960 0
DWIDTH 10 0
BBX 10 11 0 -2
BITMAP
0600
1E80
F6C0
3600
FFC0
3300
3D40
F180
3340
76C0
0000
ENDCHAR
STARTCHAR 0x3267
ENCODING 12903
SWIDTH 960 0
DWIDTH 10 0
BBX 10 11 0 -2
BITMAP
0000
7F80
3300
3300
3300
FFC0
0D00
1B00
3300
E700
0000
ENDCHAR
STARTCHAR 0x3268
ENCODING 12904
SWIDTH 960 0
DWIDTH 10 0
BBX 10 11 0 -2
BITMAP
0000
FFC0
0C00
DF40
D540
DF40
D540
DF40
C0C0
FFC0
0000
ENDCHAR
STARTCHAR 0x3269
ENCODING 12905
SWIDTH 960 0
DWIDTH 10 0
BBX 10 11 0 -2
BITMAP
0300
FD00
D300
FB00
DB00
FB00
D680
D680
FCC0
0CC0
0000
ENDCHAR
STARTCHAR 0x326A
ENCODING 12906
SWIDTH 960 0
DWIDTH 10 0
BBX 10 11 0 -2
BITMAP
3300
3300
FFC0
3300
7F80
3300
FFC0
1B00
3300
EF00
0000
ENDCHAR
STARTCHAR 0x326B
ENCODING 12907
SWIDTH 960 0
DWIDTH 10 0
BBX 10 11 0 -2
BITMAP
0300
3F40
3540
F500
DFC0
D500
F740
3D80
3540
FEC0
0000
ENDCHAR
STARTCHAR 0x326C
ENCODING 12908
SWIDTH 960 0
DWIDTH 10 0
BBX 10 11 0 -2
BITMAP
6000
67C0
FAC0
6AC0
DFC0
3300
3F00
3300
3F00
E1C0
0000
ENDCHAR
STARTCHAR 0x326D
ENCODING 12909
SWIDTH 960 0
DWIDTH 10 0
BBX 10 11 0 -2
BITMAP
0600
FA80
D7C0
D580
D7C0
FD80
37C0
7580
D580
77C0
0000
ENDCHAR
STARTCHAR 0x326E
ENCODING 12910
SWIDTH 960 0
DWIDTH 10 0
BBX 10 11 0 -2
BITMAP
0300
7740
DD40
F500
DFC0
F500
D740
FD80
D540
EEC0
0000
ENDCHAR
STARTCHAR 0x326F
ENCODING 12911
SWIDTH 960 0
DWIDTH 10 0
BBX 10 11 0 -2
BITMAP
6000
67C0
FAC0
6FC0
D600
3F80
3600
3FC0
60C0
DAC0
0000
ENDCHAR
STARTCHAR 0x3270
ENCODING 12912
SWIDTH 960 0
DWIDTH 10 0
BBX 10 11 0 -2
BITMAP
0000
1E00
3300
6180
D340
3300
3300
3300
6300
6300
0000
ENDCHAR
STARTCHAR 0x3271
ENCODING 12913
SWIDTH 960 0
DWIDTH 10 0
BBX 10 11 0 -2
BITMAP
0000
1E00
3300
6180
DF40
0000
FFC0
3300
6680
7D80
0000
ENDCHAR
STARTCHAR 0x3272
ENCODING 12914
SWIDTH 960 0
DWIDTH 10 0
BBX 10 11 0 -2
BITMAP
0000
7BC0
DB40
FD40
D6C0
FD80
D7C0
FD80
CFC0
DD80
0000
ENDCHAR
STARTCHAR 0x3273
ENCODING 12915
SWIDTH 960 0
DWIDTH 10 0
BBX 10 11 0 -2
BITMAP
0000
FFC0
C0C0
DF40
D340
D340
D340
DF40
C0C0
FFC0
0000
ENDCHAR
STARTCHAR 0x3274
ENCODING 12916
SWIDTH 960 0
DWIDTH 10 0
BBX 10 11 0 -2
BITMAP
0300
6600
6FC0
FAC0
6FC0
6AC0
6FC0
6E80
EAC0
37C0
0000
ENDCHAR
STARTCHAR 0x3275
ENCODING 12917
SWIDTH 960 0
DWIDTH 10 0
BBX 10 11 0 -2
BITMAP
0600
6600
6FC0
F540
6FC0
6600
7FC0
6D40
F980
1EC0
0000
ENDCHAR
STARTCHAR 0x3276
ENCODING 12918
SWIDTH 960 0
DWIDTH 10 0
BBX 10 11 0 -2
BITMAP
0000
F7C0
34C0
6F40
F540
3740
D4C0
6FC0
D000
DFC0
0000
ENDCHAR
STARTCHAR 0x3277
ENCODING 12919
SWIDTH 960 0
DWIDTH 10 0
BBX 10 11 0 -2
BITMAP
0300
3300
37C0
D340
D340
DFC0
D300
D300
3680
3CC0
0000
ENDCHAR
STARTCHAR 0x3278
ENCODING 12920
SWIDTH 960 0
DWIDTH 10 0
BBX 10 11 0 -2
BITMAP
0000
37C0
30C0
D580
D700
DDC0
D300
D7C0
3300
3FC0
0000
ENDCHAR
STARTCHAR 0x3279
ENCODING 12921
SWIDTH 960 0
DWIDTH 10 0
BBX 10 11 0 -2
BITMAP
0C00
3400
37C0
D800
D7C0
D540
DFC0
D540
3540
37C0
0000
ENDCHAR
STARTCHAR 0x327A
ENCODING 12922
SWIDTH 960 0
DWIDTH 10 0
BBX 10 11 0 -2
BITMAP
0000
3FC0
3300
D540
D540
D540
D300
D300
3680
3CC0
0000
ENDCHAR
STARTCHAR 0x327B
ENCODING 12923
SWIDTH 960 0
DWIDTH 10 0
BBX 10 11 0 -2
BITMAP
0600
3600
3FC0
D540
DFC0
D600
DFC0
D540
3D80
36C0
0000
ENDCHAR
STARTCHAR 0x327C
ENCODING 12924
SWIDTH 960 0
DWIDTH 10 0
BBX 10 11 0 -2
BITMAP
0600
06C0
FFC0
0300
6B40
FD40
6980
6980
C340
CEC0
0000
ENDCHAR
STARTCHAR 0x327D
ENCODING 12925
SWIDTH 960 0
DWIDTH 10 0
BBX 10 11 0 -2
BITMAP
0000
6FC0
6CC0
F4C0
6FC0
6000
EFC0
66C0
6CC0
EB80
0000
ENDCHAR
STARTCHAR 0x327E
ENCODING 12926
SWIDTH 960 0
DWIDTH 10 0
BBX 10 11 0 -2
BITMAP
0C00
0C00
F7C0
3580
3980
F680
C680
D300
F700
1DC0
0000
ENDCHAR
STARTCHAR 0x3321
ENCODING 13089
SWIDTH 960 0
DWIDTH 10 0
BBX 10 11 0 -2
BITMAP
3000
6340
FDC0
D6C0
FD40
D4C0
FDC0
36C0
7000
DFC0
0000
ENDCHAR
STARTCHAR 0x3322
ENCODING 13090
SWIDTH 960 0
DWIDTH 10 0
BBX 10 11 0 -2
BITMAP
0C00
0C00
F7C0
D800
D7C0
F540
DFC0
D540
F540
0FC0
0000
ENDCHAR
STARTCHAR 0x3323
ENCODING 13091
SWIDTH 960 0
DWIDTH 10 0
BBX 10 11 0 -2
BITMAP
0300
3340
3FC0
F300
3540
7F40
7580
D580
D340
36C0
0000
ENDCHAR
STARTCHAR 0x3324
ENCODING 13092
SWIDTH 960 0
DWIDTH 10 0
BBX 10 11 0 -2
BITMAP
0C00
CC00
6FC0
1800
DFC0
6D40
3FC0
1B40
6B40
DFC0
0000
ENDCHAR
STARTCHAR 0x3325
ENCODING 13093
SWIDTH 960 0
DWIDTH 10 0
BBX 10 11 0 -2
BITMAP
0000
7FC0
6300
6B40
6B40
6B40
6300
C680
CCC0
38C0
0000
ENDCHAR
STARTCHAR 0x3326
ENCODING 13094
SWIDTH 960 0
DWIDTH 10 0
BBX 10 11 0 -2
BITMAP
0000
7F80
6D80
7F80
6D80
7F80
3B00
EB80
1B40
7300
0000
ENDCHAR
STARTCHAR 0x3327
ENCODING 13095
SWIDTH 960 0
DWIDTH 10 0
BBX 10 11 0 -2
BITMAP
0600
6600
7BC0
6600
66C0
FFC0
6180
7F80
6180
7F80
0000
ENDCHAR
STARTCHAR 0x3328
ENCODING 13096
SWIDTH 960 0
DWIDTH 10 0
BBX 10 11 0 -2
BITMAP
0000
6780
CCC0
F800
37C0
6000
FFC0
3600
D4C0
D7C0
0000
ENDCHAR
STARTCHAR 0x3329
ENCODING 13097
SWIDTH 960 0
DWIDTH 10 0
BBX 10 11 0 -2
BITMAP
3300
3300
FFC0
3300
1E00
3300
E1C0
3300
3300
E300
0000
ENDCHAR
STARTCHAR 0x332A
ENCODING 13098
SWIDTH 960 0
DWIDTH 10 0
BBX 10 11 0 -2
BITMAP
0000
7BC0
DB40
FFC0
D500
FFC0
6D80
7F80
0CC0
FFC0
0000
ENDCHAR
STARTCHAR 0x332B
ENCODING 13099
SWIDTH 960 0
DWIDTH 10 0
BBX 10 11 0 -2
BITMAP
0000
FBC0
DAC0
FBC0
DAC0
FFC0
DAC0
DF40
DAC0
D6C0
0000
ENDCHAR
STARTCHAR 0x332C
ENCODING 13100
SWIDTH 960 0
DWIDTH 10 0
BBX 10 11 0 -2
BITMAP
0180
F580
D6C0
D580
ED80
D7C0
D4C0
EFC0
CCC0
CFC0
0000
ENDCHAR
STARTCHAR 0x332D
ENCODING 13101
SWIDTH 960 0
DWIDTH 10 0
BBX 10 11 0 -2
BITMAP
0000
7F80
6180
7F80
6180
6180
7F80
0000
3300
E1C0
0000
ENDCHAR
STARTCHAR 0x332E
ENCODING 13102
SWIDTH 960 0
DWIDTH 10 0
BBX 10 11 0 -2
BITMAP
3000
D5C0
FD40
0340
FD40
CD40
FD40
6B40
6B40
FEC0
0000
ENDCHAR
STARTCHAR 0x332F
ENCODING 13103
SWIDTH 960 0
DWIDTH 10 0
BBX 10 11 0 -2
BITMAP
3300
3300
FD00
6FC0
CD40
6B40
36C0
ECC0
38C0
ED80
0000
ENDCHAR
STARTCHAR 0x3330
ENCODING 13104
SWIDTH 960 0
DWIDTH 10 0
BBX 10 11 0 -2
BITMAP
0300
6300
7D00
6D00
D700
D580
1B40
1B00
3300
E300
0000
ENDCHAR
STARTCHAR 0x3331
ENCODING 13105
SWIDTH 960 0
DWIDTH 10 0
BBX 10 11 0 -2
BITMAP
0300
0300
FFC0
D6C0
D580
D500
D6C0
D580
F700
1DC0
0000
ENDCHAR
STARTCHAR 0x3332
ENCODING 13106
SWIDTH 960 0
DWIDTH 10 0
BBX 10 11 0 -2
BITMAP
0C00
0C00
FFC0
CCC0
7F80
0C00
FFC0
3300
3300
3F00
0000
ENDCHAR
STARTCHAR 0x3333
ENCODING 13107
SWIDTH 960 0
DWIDTH 10 0
BBX 10 11 0 -2
BITMAP
0C00
CCC0
FFC0
6600
7FC0
6600
7FC0
6600
C600
DFC0
0000
ENDCHAR
STARTCHAR 0x3334
ENCODING 13108
SWIDTH 960 0
DWIDTH 10 0
BBX 10 11 0 -2
BITMAP
0000
6FC0
6A80
EE80
FBC0
EE80
EB80
6A80
6E80
6DC0
0000
ENDCHAR
STARTCHAR 0x3335
ENCODING 13109
SWIDTH 960 0
DWIDTH 10 0
BBX 10 11 0 -2
BITMAP
0000
6FC0
6A80
FE80
6BC0
6E80
EB80
7A80
6E80
6DC0
0000
ENDCHAR
STARTCHAR 0x3336
ENCODING 13110
SWIDTH 960 0
DWIDTH 10 0
BBX 10 11 0 -2
BITMAP
0000
DFC0
6B00
1BC0
DB00
6FC0
1B00
1BC0
6300
DFC0
0000
ENDCHAR
STARTCHAR 0x3337
ENCODING 13111
SWIDTH 960 0
DWIDTH 10 0
BBX 10 11 0 -2
BITMAP
0000
F7C0
6CC0
6FC0
CCC0
FFC0
D0C0
D4C0
D6C0
F1C0
0000
ENDCHAR
STARTCHAR 0x3338
ENCODING 13112
SWIDTH 960 0
DWIDTH 10 0
BBX 10 11 0 -2
BITMAP
3300
3300
FFC0
0C00
FFC0
3180
FFC0
6A80
6A80
FFC0
0000
ENDCHAR
STARTCHAR 0x3339
ENCODING 13113
SWIDTH 960 0
DWIDTH 10 0
BBX 10 11 0 -2
BITMAP
0C00
6DC0
DE00
0C00
3EC0
6CC0
EEC0
6CC0
6CC0
6EC0
0000
ENDCHAR
STARTCHAR 0x333A
ENCODING 13114
SWIDTH 960 0
DWIDTH 10 0
BBX 10 11 0 -2
BITMAP
0300
F300
1FC0
F6C0
0D80
F500
06C0
F580
D700
FDC0
0000
ENDCHAR
STARTCHAR 0x333B
ENCODING 13115
SWIDTH 960 0
DWIDTH 10 0
BBX 10 11 0 -2
BITMAP
0300
7540
CFC0
F800
37C0
FCC0
37C0
D680
3680
FFC0
0000
ENDCHAR
STARTCHAR 0x333C
ENCODING 13116
SWIDTH 960 0
DWIDTH 10 0
BBX 10 11 0 -2
BITMAP
0300
7D00
6FC0
6AC0
FA80
CD00
7EC0
6980
7B00
6DC0
0000
ENDCHAR
STARTCHAR 0x333D
ENCODING 13117
SWIDTH 960 0
DWIDTH 10 0
BBX 10 11 0 -2
BITMAP
0000
DFC0
6B40
1FC0
DB40
6FC0
0300
1FC0
6300
DFC0
0000
ENDCHAR
STARTCHAR 0x333E
ENCODING 13118
SWIDTH 960 0
DWIDTH 10 0
BBX 10 11 0 -2
BITMAP
3000
FF80
35C0
FB00
D5C0
FF80
D500
7F80
E1C0
7F80
0000
ENDCHAR
STARTCHAR 0x333F
ENCODING 13119
SWIDTH 960 0
DWIDTH 10 0
BBX 10 11 0 -2
BITMAP
0300
3300
37C0
FB00
D7C0
D300
FFC0
3300
3500
FFC0
0000
ENDCHAR
STARTCHAR 0x3340
ENCODING 13120
SWIDTH 960 0
DWIDTH 10 0
BBX 10 11 0 -2
BITMAP
0000
6FC0
6000
F7C0
6CC0
6FC0
6CC0
6FC0
F000
1FC0
0000
ENDCHAR
STARTCHAR 0x3341
ENCODING 13121
SWIDTH 960 0
DWIDTH 10 0
BBX 10 11 0 -2
BITMAP
0300
3300
37C0
FB00
37C0
7540
7540
DD40
D540
3300
0000
ENDCHAR
STARTCHAR 0x3342
ENCODING 13122
SWIDTH 960 0
DWIDTH 10 0
BBX 10 11 0 -2
BITMAP
0000
6FC0
6800
FFC0
EA00
EBC0
FAC0
6AC0
6CC0
FB80
0000
ENDCHAR
STARTCHAR 0x3343
ENCODING 13123
SWIDTH 960 0
DWIDTH 10 0
BBX 10 11 0 -2
BITMAP
0600
7A00
C7C0
FCC0
36C0
FAC0
34C0
D740
30C0
FB80
0000
ENDCHAR
STARTCHAR 0x3344
ENCODING 13124
SWIDTH 960 0
DWIDTH 10 0
BBX 10 11 0 -2
BITMAP
0000
FCC0
6D40
FD40
6D40
FF40
D540
FD40
D4C0
FEC0
0000
ENDCHAR
STARTCHAR 0x3345
ENCODING 13125
SWIDTH 960 0
DWIDTH 10 0
BBX 10 11 0 -2
BITMAP
0D00
0D00
FFC0
D500
D500
DFC0
D680
DAC0
FA80
3680
0000
ENDCHAR
STARTCHAR 0x3346
ENCODING 13126
SWIDTH 960 0
DWIDTH 10 0
BBX 10 11 0 -2
BITMAP
0000
3F80
3180
6B00
0E00
1B00
3F80
F1C0
3180
3F80
0000
ENDCHAR
STARTCHAR 0x3347
ENCODING 13127
SWIDTH 960 0
DWIDTH 10 0
BBX 10 11 0 -2
BITMAP
0C00
0C00
FFC0
D540
DD40
CD80
DB40
FF40
DB80
DB00
0000
ENDCHAR
STARTCHAR 0x3348
ENCODING 13128
SWIDTH 960 0
DWIDTH 10 0
BBX 10 11 0 -2
BITMAP
0300
6300
6FC0
FC00
6D00
6D00
7B00
EAC0
6AC0
E7C0
0000
ENDCHAR
STARTCHAR 0x3349
ENCODING 13129
SWIDTH 960 0
DWIDTH 10 0
BBX 10 11 0 -2
BITMAP
0600
6A80
7FC0
E8C0
6F80
6980
7980
EF80
6D40
FBC0
0000
ENDCHAR
STARTCHAR 0x334A
ENCODING 13130
SWIDTH 960 0
DWIDTH 10 0
BBX 10 11 0 -2
BITMAP
0000
37C0
34C0
FA80
3380
76C0
77C0
DCC0
D4C0
37C0
0000
ENDCHAR
STARTCHAR 0x334B
ENCODING 13131
SWIDTH 960 0
DWIDTH 10 0
BBX 10 11 0 -2
BITMAP
0300
3300
3FC0
F6C0
3580
7500
76C0
D580
D700
3DC0
0000
ENDCHAR
STARTCHAR 0x334C
ENCODING 13132
SWIDTH 960 0
DWIDTH 10 0
BBX 10 11 0 -2
BITMAP
3000
37C0
FEC0
36C0
FEC0
CC00
7BC0
6AC0
DB80
DEC0
0000
ENDCHAR
STARTCHAR 0x334D
ENCODING 13133
SWIDTH 960 0
DWIDTH 10 0
BBX 10 11 0 -2
BITMAP
0600
3680
D7C0
6D80
D7C0
3580
77C0
DD80
3700
EDC0
0000
ENDCHAR
STARTCHAR 0x334E
ENCODING 13134
SWIDTH 960 0
DWIDTH 10 0
BBX 10 11 0 -2
BITMAP
0300
F300
6FC0
6AC0
C680
F7C0
DD00
D7C0
D500
F7C0
0000
ENDCHAR
STARTCHAR 0x334F
ENCODING 13135
SWIDTH 960 0
DWIDTH 10 0
BBX 10 11 0 -2
BITMAP
0600
3A80
EFC0
6D80
F7C0
6D80
77C0
ED80
6700
6DC0
0000
ENDCHAR
STARTCHAR 0x3350
ENCODING 13136
SWIDTH 960 0
DWIDTH 10 0
BBX 10 11 0 -2
BITMAP
0C00
3500
FFC0
D340
DF40
3300
3300
3F00
36C0
E7C0
0000
ENDCHAR
STARTCHAR 0x3351
ENCODING 13137
SWIDTH 960 0
DWIDTH 10 0
BBX 10 11 0 -2
BITMAP
0000
3F80
6300
FFC0
6CC0
7FC0
6CC0
7FC0
C0C0
C1C0
0000
ENDCHAR
STARTCHAR 0x3352
ENCODING 13138
SWIDTH 960 0
DWIDTH 10 0
BBX 10 11 0 -2
BITMAP
3300
3300
FFC0
3300
3300
FFC0
6A80
6AC0
DA80
DB80
0000
ENDCHAR
STARTCHAR 0x3353
ENCODING 13139
SWIDTH 960 0
DWIDTH 10 0
BBX 10 11 0 -2
BITMAP
0300
3300
FFC0
D580
F8C0
D400
FD80
3680
F700
3DC0
0000
ENDCHAR
STARTCHAR 0x3354
ENCODING 13140
SWIDTH 960 0
DWIDTH 10 0
BBX 10 11 0 -2
BITMAP
3000
37C0
FEC0
DA80
FB00
1A80
36C0
FEC0
3780
7600
0000
ENDCHAR
STARTCHAR 0x3355
ENCODING 13141
SWIDTH 960 0
DWIDTH 10 0
BBX 10 11 0 -2
BITMAP
0000
FBC0
DAC0
FBC0
DEC0
FBC0
DEC0
DB40
EAC0
DEC0
0000
ENDCHAR
STARTCHAR 0x3356
ENCODING 13142
SWIDTH 960 0
DWIDTH 10 0
BBX 10 11 0 -2
BITMAP
0000
FFC0
D580
D780
E000
DFC0
D540
F9C0
D740
D6C0
0000
ENDCHAR
STARTCHAR 0x3357
ENCODING 13143
SWIDTH 960 0
DWIDTH 10 0
BBX 10 11 0 -2
BITMAP
3300
3300
FFC0
3300
7F80
6D80
7F80
0C00
FFC0
0C00
0000
ENDCHAR
STARTCHAR 0x3358
ENCODING 13144
SWIDTH 960 0
DWIDTH 10 0
BBX 10 11 0 -2
BITMAP
0C00
3500
FFC0
C0C0
DF40
0600
0C00
FFC0
0C00
1C00
0000
ENDCHAR
STARTCHAR 0x3359
ENCODING 13145
SWIDTH 960 0
DWIDTH 10 0
BBX 10 11 0 -2
BITMAP
0000
3F80
3000
3FC0
3300
3300
FFC0
0600
66C0
7FC0
0000
ENDCHAR
STARTCHAR 0x335A
ENCODING 13146
SWIDTH 960 0
DWIDTH 10 0
BBX 10 11 0 -2
BITMAP
0C00
1800
DF40
7380
DF40
3300
FFC0
1D00
3580
ECC0
0000
ENDCHAR
STARTCHAR 0x335B
ENCODING 13147
SWIDTH 960 0
DWIDTH 10 0
BBX 10 11 0 -2
BITMAP
6000
6FC0
FB00
D7C0
6CC0
D7C0
1CC0
F7C0
D680
FCC0
0000
ENDCHAR
STARTCHAR 0x335C
ENCODING 13148
SWIDTH 960 0
DWIDTH 10 0
BBX 10 11 0 -2
BITMAP
0000
FFC0
D500
FFC0
0CC0
FFC0
6CC0
FFC0
CD80
38C0
0000
ENDCHAR
STARTCHAR 0x335D
ENCODING 13149
SWIDTH 960 0
DWIDTH 10 0
BBX 10 11 0 -2
BITMAP
0C00
6D80
6E80
ED80
7F80
6DC0
EE80
6D80
6D80
EE80
0000
ENDCHAR
STARTCHAR 0x335E
ENCODING 13150
SWIDTH 960 0
DWIDTH 10 0
BBX 10 11 0 -2
BITMAP
0600
6600
7BC0
D580
0C00
7F80
3300
3300
0600
FFC0
0000
ENDCHAR
STARTCHAR 0x335F
ENCODING 13151
SWIDTH 960 0
DWIDTH 10 0
BBX 10 11 0 -2
BITMAP
0000
6FC0
6AC0
FF40
6B80
6F40
EA00
7FC0
6300
6FC0
0000
ENDCHAR
STARTCHAR 0x3360
ENCODING 13152
SWIDTH 960 0
DWIDTH 10 0
BBX 10 11 0 -2
BITMAP
0000
3FC0
3540
F7C0
3000
7FC0
7540
D7C0
D540
3FC0
0000
ENDCHAR
STARTCHAR 0x3361
ENCODING 13153
SWIDTH 960 0
DWIDTH 10 0
BBX 10 11 0 -2
BITMAP
0000
37C0
34C0
FFC0
3500
77C0
7500
D7C0
DB00
33C0
0000
ENDCHAR
STARTCHAR 0x3362
ENCODING 13154
SWIDTH 960 0
DWIDTH 10 0
BBX 10 11 0 -2
BITMAP
0300
7F00
CD40
FD40
D740
FD80
D500
FD00
0E80
D4C0
0000
ENDCHAR
STARTCHAR 0x3363
ENCODING 13155
SWIDTH 960 0
DWIDTH 10 0
BBX 10 11 0 -2
BITMAP
0300
C600
6D80
1980
DD80
6980
1FC0
00C0
6AC0
DAC0
0000
ENDCHAR
STARTCHAR 0x3364
ENCODING 13156
SWIDTH 960 0
DWIDTH 10 0
BBX 10 11 0 -2
BITMAP
1800
18C0
FF40
DB40
7F40
1B40
FF40
66C0
66C0
7EC0
0000
ENDCHAR
STARTCHAR 0x3365
ENCODING 13157
SWIDTH 960 0
DWIDTH 10 0
BBX 10 11 0 -2
BITMAP
0000
1F80
F980
DF80
D980
DFC0
CCC0
DB40
FEC0
0380
0000
ENDCHAR
STARTCHAR 0x3366
ENCODING 13158
SWIDTH 960 0
DWIDTH 10 0
BBX 10 11 0 -2
BITMAP
0000
3780
34C0
D800
D7C0
D000
D7C0
D4C0
34C0
37C0
0000
ENDCHAR
STARTCHAR 0x3367
ENCODING 13159
SWIDTH 960 0
DWIDTH 10 0
BBX 10 11 0 -2
BITMAP
0000
6FC0
6300
F300
6FC0
6300
77C0
ECC0
6CC0
EFC0
0000
ENDCHAR
STARTCHAR 0x3368
ENCODING 13160
SWIDTH 960 0
DWIDTH 10 0
BBX 10 11 0 -2
BITMAP
0000
CFC0
6300
0300
DFC0
6300
0FC0
34C0
6CC0
CFC0
0000
ENDCHAR
STARTCHAR 0x3369
ENCODING 13161
SWIDTH 960 0
DWIDTH 10 0
BBX 10 11 0 -2
BITMAP
0000
DF80
6980
1F80
D980
6FC0
0CC0
1B40
6EC0
C380
0000
ENDCHAR
STARTCHAR 0x336A
ENCODING 13162
SWIDTH 960 0
DWIDTH 10 0
BBX 10 11 0 -2
BITMAP
0000
DF80
6980
1B00
DFC0
60C0
1F80
1980
6F80
D980
0000
ENDCHAR
STARTCHAR 0x336B
ENCODING 13163
SWIDTH 960 0
DWIDTH 10 0
BBX 10 11 0 -2
BITMAP
1A00
1A00
FFC0
3300
3F00
3300
3FC0
68C0
D6C0
3D80
0000
ENDCHAR
STARTCHAR 0x336C
ENCODING 13164
SWIDTH 960 0
DWIDTH 10 0
BBX 10 11 0 -2
BITMAP
0000
6F80
6980
FF80
1980
3FC0
6CC0
EB40
6EC0
6380
0000
ENDCHAR
STARTCHAR 0x336D
ENCODING 13165
SWIDTH 960 0
DWIDTH 10 0
BBX 10 11 0 -2
BITMAP
0300
3300
FFC0
D540
FBC0
D300
FFC0
34C0
FCC0
37C0
0000
ENDCHAR
STARTCHAR 0x336E
ENCODING 13166
SWIDTH 960 0
DWIDTH 10 0
BBX 10 11 0 -2
BITMAP
0000
3F80
3180
3F80
3180
3180
3F80
3180
3180
7FC0
0000
ENDCHAR
STARTCHAR 0x336F
ENCODING 13167
SWIDTH 960 0
DWIDTH 10 0
BBX 10 11 0 -2
BITMAP
0000
7FC0
D4C0
FF40
D680
FE80
D540
FFC0
0300
D7C0
0000
ENDCHAR
STARTCHAR 0x3370
ENCODING 13168
SWIDTH 960 0
DWIDTH 10 0
BBX 10 11 0 -2
BITMAP
0300
0300
F300
D300
DFC0
D300
D300
D300
F300
0300
0000
ENDCHAR
STARTCHAR 0x3371
ENCODING 13169
SWIDTH 960 0
DWIDTH 10 0
BBX 10 11 0 -2
BITMAP
0D80
3580
3FC0
F580
3500
7D40
7580
D500
D540
35C0
0000
ENDCHAR
STARTCHAR 0x3372
ENCODING 13170
SWIDTH 960 0
DWIDTH 10 0
BBX 10 11 0 -2
BITMAP
0D80
3580
3FC0
F580
3FC0
7580
7FC0
D300
DFC0
3300
0000
ENDCHAR
STARTCHAR 0x3373
ENCODING 13171
SWIDTH 960 0
DWIDTH 10 0
BBX 10 11 0 -2
BITMAP
0600
6A00
FBC0
6CC0
FBC0
D580
FF80
3600
FEC0
37C0
0000
ENDCHAR
STARTCHAR 0x3374
ENCODING 13172
SWIDTH 960 0
DWIDTH 10 0
BBX 10 11 0 -2
BITMAP
0300
3500
37C0
FD00
3300
7FC0
7300
D780
D540
3B00
0000
ENDCHAR
STARTCHAR 0x3375
ENCODING 13173
SWIDTH 960 0
DWIDTH 10 0
BBX 10 11 0 -2
BITMAP
0C00
1800
EEC0
D340
DF40
D340
EEC0
0000
36C0
E7C0
0000
ENDCHAR
STARTCHAR 0x3376
ENCODING 13174
SWIDTH 960 0
DWIDTH 10 0
BBX 10 11 0 -2
BITMAP
0C00
0C00
FFC0
DAC0
7F80
3500
7F80
6D80
7D80
6FC0
0000
ENDCHAR
STARTCHAR 0x3377
ENCODING 13175
SWIDTH 960 0
DWIDTH 10 0
BBX 10 11 0 -2
BITMAP
3300
3300
FFC0
6300
3FC0
DB40
6FC0
1B40
6FC0
DB40
0000
ENDCHAR
STARTCHAR 0x3378
ENCODING 13176
SWIDTH 960 0
DWIDTH 10 0
BBX 10 11 0 -2
BITMAP
1A00
3500
EEC0
3300
7F80
CCC0
7F80
6D80
3500
FFC0
0000
ENDCHAR
STARTCHAR 0x3379
ENCODING 13177
SWIDTH 960 0
DWIDTH 10 0
BBX 10 11 0 -2
BITMAP
0D80
7300
DFC0
F540
6FC0
F540
6FC0
ED00
6D80
F540
0000
ENDCHAR
STARTCHAR 0x337A
ENCODING 13178
SWIDTH 960 0
DWIDTH 10 0
BBX 10 11 0 -2
BITMAP
0700
3600
FFC0
DA80
D6C0
DFC0
D6C0
DAC0
F6C0
3FC0
0000
ENDCHAR
STARTCHAR 0x337B
ENCODING 13179
SWIDTH 960 0
DWIDTH 10 0
BBX 10 11 0 -2
BITMAP
0300
FA00
D780
D580
FF80
D580
D7C0
F8C0
3540
3AC0
0000
ENDCHAR
STARTCHAR 0x337C
ENCODING 13180
SWIDTH 960 0
DWIDTH 10 0
BBX 10 11 0 -2
BITMAP
0000
37C0
3300
FA00
37C0
74C0
77C0
DCC0
D4C0
37C0
0000
ENDCHAR
STARTCHAR 0x337D
ENCODING 13181
SWIDTH 960 0
DWIDTH 10 0
BBX 10 11 0 -2
BITMAP
3300
3300
FFC0
3300
7F80
0300
FFC0
1AC0
3680
EE00
0000
ENDCHAR
STARTCHAR 0x337E
ENCODING 13182
SWIDTH 960 0
DWIDTH 10 0
BBX 10 11 0 -2
BITMAP
3300
3300
FFC0
0C00
FFC0
D340
DF40
3300
3300
FFC0
0000
ENDCHAR
STARTCHAR 0x3421
ENCODING 13345
SWIDTH 960 0
DWIDTH 10 0
BBX 10 11 0 -2
BITMAP
0000
EDC0
7540
EEC0
CD80
DF80
EDC0
6EC0
7540
EDC0
0000
ENDCHAR
STARTCHAR 0x3422
ENCODING 13346
SWIDTH 960 0
DWIDTH 10 0
BBX 10 11 0 -2
BITMAP
0000
18C0
1AC0
DAC0
6AC0
36C0
36C0
6AC0
6CC0
C1C0
0000
ENDCHAR
STARTCHAR 0x3423
ENCODING 13347
SWIDTH 960 0
DWIDTH 10 0
BBX 10 11 0 -2
BITMAP
3300
3300
FFC0
1800
DAC0
6AC0
36C0
36C0
68C0
CDC0
0000
ENDCHAR
STARTCHAR 0x3424
ENCODING 13348
SWIDTH 960 0
DWIDTH 10 0
BBX 10 11 0 -2
BITMAP
0000
FFC0
3000
3F00
3300
3B00
3500
3340
3F40
E3C0
0000
ENDCHAR
STARTCHAR 0x3425
ENCODING 13349
SWIDTH 960 0
DWIDTH 10 0
BBX 10 11 0 -2
BITMAP
0600
6600
FBC0
6C00
FBC0
D980
FB00
DAC0
FCC0
6FC0
0000
ENDCHAR
STARTCHAR 0x3426
ENCODING 13350
SWIDTH 960 0
DWIDTH 10 0
BBX 10 11 0 -2
BITMAP
0000
37C0
34C0
6CC0
EFC0
6000
6D40
6D40
6B40
7340
0000
ENDCHAR
STARTCHAR 0x3427
ENCODING 13351
SWIDTH 960 0
DWIDTH 10 0
BBX 10 11 0 -2
BITMAP
0000
FFC0
C0C0
F980
07C0
FD80
6A80
6B80
D8C0
DFC0
0000
ENDCHAR
STARTCHAR 0x3428
ENCODING 13352
SWIDTH 960 0
DWIDTH 10 0
BBX 10 11 0 -2
BITMAP
0C00
0C00
FFC0
DAC0
7F80
1A00
FFC0
3680
ECC0
0700
0000
ENDCHAR
STARTCHAR 0x3429
ENCODING 13353
SWIDTH 960 0
DWIDTH 10 0
BBX 10 11 0 -2
BITMAP
0000
FCC0
36C0
36C0
36C0
FEC0
36C0
36C0
30C0
31C0
0000
ENDCHAR
STARTCHAR 0x342A
ENCODING 13354
SWIDTH 960 0
DWIDTH 10 0
BBX 10 11 0 -2
BITMAP
0300
6D00
FD00
6FC0
7D40
6D40
FD40
D6C0
C0C0
FD80
0000
ENDCHAR
STARTCHAR 0x342B
ENCODING 13355
SWIDTH 960 0
DWIDTH 10 0
BBX 10 11 0 -2
BITMAP
6300
6300
7D00
D7C0
FD40
D340
FEC0
D6C0
D0C0
FD80
0000
ENDCHAR
STARTCHAR 0x342C
ENCODING 13356
SWIDTH 960 0
DWIDTH 10 0
BBX 10 11 0 -2
BITMAP
0C00
3580
3500
FFC0
1B00
FFC0
6680
DEC0
3180
3F80
0000
ENDCHAR
STARTCHAR 0x342D
ENCODING 13357
SWIDTH 960 0
DWIDTH 10 0
BBX 10 11 0 -2
BITMAP
0000
0F80
F980
DFC0
D540
DBC0
D6C0
DFC0
ED80
38C0
0000
ENDCHAR
STARTCHAR 0x342E
ENCODING 13358
SWIDTH 960 0
DWIDTH 10 0
BBX 10 11 0 -2
BITMAP
0D80
6D80
6FC0
F580
6F80
6D80
6F80
6AC0
F800
1FC0
0000
ENDCHAR
STARTCHAR 0x342F
ENCODING 13359
SWIDTH 960 0
DWIDTH 10 0
BBX 10 11 0 -2
BITMAP
0C00
0C00
FFC0
1B00
1E00
3300
FFC0
6D80
7B00
DDC0
0000
ENDCHAR
STARTCHAR 0x3430
ENCODING 13360
SWIDTH 960 0
DWIDTH 10 0
BBX 10 11 0 -2
BITMAP
0C00
0C00
FFC0
C0C0
3F00
0000
FFC0
1A00
36C0
E7C0
0000
ENDCHAR
STARTCHAR 0x3431
ENCODING 13361
SWIDTH 960 0
DWIDTH 10 0
BBX 10 11 0 -2
BITMAP
0C00
0C00
FFC0
D340
DF40
3000
3F80
3180
3180
3F80
0000
ENDCHAR
STARTCHAR 0x3432
ENCODING 13362
SWIDTH 960 0
DWIDTH 10 0
BBX 10 11 0 -2
BITMAP
0C00
0C00
FFC0
DB40
7F80
3300
3F00
3300
3F40
E3C0
0000
ENDCHAR
STARTCHAR 0x3433
ENCODING 13363
SWIDTH 960 0
DWIDTH 10 0
BBX 10 11 0 -2
BITMAP
0000
7F80
0C00
0C00
0C00
FFC0
0C00
0C00
0C00
0C00
0000
ENDCHAR
STARTCHAR 0x3434
ENCODING 13364
SWIDTH 960 0
DWIDTH 10 0
BBX 10 11 0 -2
BITMAP
0000
6780
FCC0
6000
FFC0
DB00
FB00
DFC0
FB00
6300
0000
ENDCHAR
STARTCHAR 0x3435
ENCODING 13365
SWIDTH 960 0
DWIDTH 10 0
BBX 10 11 0 -2
BITMAP
0C00
0C00
3F00
3500
7F80
6D80
7F80
3600
D180
DF40
0000
ENDCHAR
STARTCHAR 0x3436
ENCODING 13366
SWIDTH 960 0
DWIDTH 10 0
BBX 10 11 0 -2
BITMAP
0600
06C0
FFC0
D500
D540
DD80
C340
1A00
6980
CF40
0000
ENDCHAR
STARTCHAR 0x3437
ENCODING 13367
SWIDTH 960 0
DWIDTH 10 0
BBX 10 11 0 -2
BITMAP
0000
37C0
3540
DFC0
D540
D7C0
D4C0
D7C0
3680
3CC0
0000
ENDCHAR
STARTCHAR 0x3438
ENCODING 13368
SWIDTH 960 0
DWIDTH 10 0
BBX 10 11 0 -2
BITMAP
0300
3340
3FC0
D500
D540
DD80
D340
0600
6980
DF40
0000
ENDCHAR
STARTCHAR 0x3439
ENCODING 13369
SWIDTH 960 0
DWIDTH 10 0
BBX 10 11 0 -2
BITMAP
0000
6F80
6980
FFC0
6AC0
6DC0
E8C0
7FC0
6680
ECC0
0000
ENDCHAR
STARTCHAR 0x343A
ENCODING 13370
SWIDTH 960 0
DWIDTH 10 0
BBX 10 11 0 -2
BITMAP
0600
FE00
37C0
FD80
D980
FA80
DA80
DB00
FB00
1DC0
0000
ENDCHAR
STARTCHAR 0x343B
ENCODING 13371
SWIDTH 960 0
DWIDTH 10 0
BBX 10 11 0 -2
BITMAP
0C00
34C0
34C0
FFC0
34C0
74C0
77C0
D4C0
D4C0
37C0
0000
ENDCHAR
STARTCHAR 0x343C
ENCODING 13372
SWIDTH 960 0
DWIDTH 10 0
BBX 10 11 0 -2
BITMAP
0000
37C0
3000
FFC0
34C0
77C0
74C0
D7C0
D000
37C0
0000
ENDCHAR
STARTCHAR 0x343D
ENCODING 13373
SWIDTH 960 0
DWIDTH 10 0
BBX 10 11 0 -2
BITMAP
0300
3300
3FC0
F4C0
37C0
7400
77C0
DCC0
D4C0
37C0
0000
ENDCHAR
STARTCHAR 0x343E
ENCODING 13374
SWIDTH 960 0
DWIDTH 10 0
BBX 10 11 0 -2
BITMAP
0600
3600
FFC0
3340
FD40
0300
FD00
3300
D680
DCC0
0000
ENDCHAR
STARTCHAR 0x343F
ENCODING 13375
SWIDTH 960 0
DWIDTH 10 0
BBX 10 11 0 -2
BITMAP
6600
6600
7FC0
D540
FD40
D300
FD00
D300
D680
FCC0
0000
ENDCHAR
STARTCHAR 0x3440
ENCODING 13376
SWIDTH 960 0
DWIDTH 10 0
BBX 10 11 0 -2
BITMAP
0000
DFC0
6300
0300
C300
6FC0
0300
0300
6300
C300
0000
ENDCHAR
STARTCHAR 0x3441
ENCODING 13377
SWIDTH 960 0
DWIDTH 10 0
BBX 10 11 0 -2
BITMAP
0680
DFC0
6680
1FC0
DB40
6FC0
0300
1FC0
6680
DCC0
0000
ENDCHAR
STARTCHAR 0x3442
ENCODING 13378
SWIDTH 960 0
DWIDTH 10 0
BBX 10 11 0 -2
BITMAP
0000
DDC0
7540
3DC0
D540
7FC0
3540
3740
D540
D740
0000
ENDCHAR
STARTCHAR 0x3443
ENCODING 13379
SWIDTH 960 0
DWIDTH 10 0
BBX 10 11 0 -2
BITMAP
0C00
CC00
6FC0
1980
DFC0
6B00
3FC0
1B00
6B00
DFC0
0000
ENDCHAR
STARTCHAR 0x3444
ENCODING 13380
SWIDTH 960 0
DWIDTH 10 0
BBX 10 11 0 -2
BITMAP
0000
1FC0
F540
6FC0
6000
FFC0
6D80
6FC0
FA80
36C0
0000
ENDCHAR
STARTCHAR 0x3445
ENCODING 13381
SWIDTH 960 0
DWIDTH 10 0
BBX 10 11 0 -2
BITMAP
3180
3180
3180
FFC0
3180
3180
3F80
3180
3180
3F80
0000
ENDCHAR
STARTCHAR 0x3446
ENCODING 13382
SWIDTH 960 0
DWIDTH 10 0
BBX 10 11 0 -2
BITMAP
0600
FA00
D7C0
FC00
DBC0
D800
FF80
6A80
6A80
FFC0
0000
ENDCHAR
STARTCHAR 0x3447
ENCODING 13383
SWIDTH 960 0
DWIDTH 10 0
BBX 10 11 0 -2
BITMAP
0000
FFC0
0C00
7F80
1800
FFC0
3180
7F80
D180
3F80
0000
ENDCHAR
STARTCHAR 0x3448
ENCODING 13384
SWIDTH 960 0
DWIDTH 10 0
BBX 10 11 0 -2
BITMAP
0600
6600
7BC0
D580
0000
7F80
0C00
FFC0
0C00
0C00
0000
ENDCHAR
STARTCHAR 0x3449
ENCODING 13385
SWIDTH 960 0
DWIDTH 10 0
BBX 10 11 0 -2
BITMAP
0600
6600
7BC0
D580
0C00
FFC0
D6C0
DF40
3300
3F00
0000
ENDCHAR
STARTCHAR 0x344A
ENCODING 13386
SWIDTH 960 0
DWIDTH 10 0
BBX 10 11 0 -2
BITMAP
0600
6600
7BC0
D580
FBC0
DAC0
FBC0
DEC0
DAC0
DEC0
0000
ENDCHAR
STARTCHAR 0x344B
ENCODING 13387
SWIDTH 960 0
DWIDTH 10 0
BBX 10 11 0 -2
BITMAP
0000
6FC0
CD40
F180
6FC0
C600
FFC0
3580
D700
D9C0
0000
ENDCHAR
STARTCHAR 0x344C
ENCODING 13388
SWIDTH 960 0
DWIDTH 10 0
BBX 10 11 0 -2
BITMAP
3000
3000
3F80
6C00
CC00
FFC0
0C00
6D80
6D80
7F80
0000
ENDCHAR
STARTCHAR 0x344D
ENCODING 13389
SWIDTH 960 0
DWIDTH 10 0
BBX 10 11 0 -2
BITMAP
0000
6F80
F8C0
6FC0
F6C0
DB40
F6C0
DB40
F6C0
6EC0
0000
ENDCHAR
STARTCHAR 0x344E
ENCODING 13390
SWIDTH 960 0
DWIDTH 10 0
BBX 10 11 0 -2
BITMAP
0000
FFC0
DB00
FB00
DB00
DFC0
FB00
DB00
DB00
DB00
0000
ENDCHAR
STARTCHAR 0x344F
ENCODING 13391
SWIDTH 960 0
DWIDTH 10 0
BBX 10 11 0 -2
BITMAP
6300
DF00
F5C0
DE00
F7C0
D600
DFC0
F540
D540
DFC0
0000
ENDCHAR
STARTCHAR 0x3450
ENCODING 13392
SWIDTH 960 0
DWIDTH 10 0
BBX 10 11 0 -2
BITMAP
3300
3300
FFC0
3300
FFC0
C0C0
7F80
1A00
36C0
E7C0
0000
ENDCHAR
STARTCHAR 0x3451
ENCODING 13393
SWIDTH 960 0
DWIDTH 10 0
BBX 10 11 0 -2
BITMAP
6000
67C0
7EC0
D7C0
FEC0
D6C0
FFC0
D380
D680
FDC0
0000
ENDCHAR
STARTCHAR 0x3452
ENCODING 13394
SWIDTH 960 0
DWIDTH 10 0
BBX 10 11 0 -2
BITMAP
0300
F300
1FC0
F540
0FC0
F540
0FC0
F700
D540
FB40
0000
ENDCHAR
STARTCHAR 0x3453
ENCODING 13395
SWIDTH 960 0
DWIDTH 10 0
BBX 10 11 0 -2
BITMAP
0000
7F80
6D80
FFC0
6D80
7F80
3300
3300
3F00
E1C0
0000
ENDCHAR
STARTCHAR 0x3454
ENCODING 13396
SWIDTH 960 0
DWIDTH 10 0
BBX 10 11 0 -2
BITMAP
0000
DFC0
7540
3FC0
0D80
EFC0
6A80
76C0
D000
DFC0
0000
ENDCHAR
STARTCHAR 0x3455
ENCODING 13397
SWIDTH 960 0
DWIDTH 10 0
BBX 10 11 0 -2
BITMAP
0300
7F00
D5C0
FE00
37C0
F600
3FC0
D540
3540
FFC0
0000
ENDCHAR
STARTCHAR 0x3456
ENCODING 13398
SWIDTH 960 0
DWIDTH 10 0
BBX 10 11 0 -2
BITMAP
0000
FBC0
DAC0
FBC0
DAC0
FFC0
D340
DF40
D340
DF40
0000
ENDCHAR
STARTCHAR 0x3457
ENCODING 13399
SWIDTH 960 0
DWIDTH 10 0
BBX 10 11 0 -2
BITMAP
0000
FBC0
DAC0
FBC0
DAC0
FFC0
CCC0
DEC0
D540
CDC0
0000
ENDCHAR
STARTCHAR 0x3458
ENCODING 13400
SWIDTH 960 0
DWIDTH 10 0
BBX 10 11 0 -2
BITMAP
0000
FBC0
DAC0
FBC0
DAC0
FFC0
CCC0
DF40
DAC0
D340
0000
ENDCHAR
STARTCHAR 0x3459
ENCODING 13401
SWIDTH 960 0
DWIDTH 10 0
BBX 10 11 0 -2
BITMAP
0000
F7C0
D4C0
D980
E7C0
D6C0
DBC0
EAC0
DAC0
DBC0
0000
ENDCHAR
STARTCHAR 0x345A
ENCODING 13402
SWIDTH 960 0
DWIDTH 10 0
BBX 10 11 0 -2
BITMAP
0600
6600
FFC0
66C0
FFC0
D580
FFC0
6B00
FFC0
6300
0000
ENDCHAR
STARTCHAR 0x345B
ENCODING 13403
SWIDTH 960 0
DWIDTH 10 0
BBX 10 11 0 -2
BITMAP
0300
7300
CFC0
FAC0
DBC0
FA00
DBC0
FAC0
D6C0
EBC0
0000
ENDCHAR
STARTCHAR 0x345C
ENCODING 13404
SWIDTH 960 0
DWIDTH 10 0
BBX 10 11 0 -2
BITMAP
0300
7300
DFC0
FAC0
67C0
FA00
67C0
FAC0
DAC0
FBC0
0000
ENDCHAR
STARTCHAR 0x345D
ENCODING 13405
SWIDTH 960 0
DWIDTH 10 0
BBX 10 11 0 -2
BITMAP
1800
1800
1800
FF00
1B00
6B00
3B00
1B40
3540
E3C0
0000
ENDCHAR
STARTCHAR 0x345E
ENCODING 13406
SWIDTH 960 0
DWIDTH 10 0
BBX 10 11 0 -2
BITMAP
0000
1E00
3300
7F80
C0C0
3F00
0600
7F80
6180
7F80
0000
ENDCHAR
STARTCHAR 0x345F
ENCODING 13407
SWIDTH 960 0
DWIDTH 10 0
BBX 10 11 0 -2
BITMAP
0C00
CCC0
FFC0
0000
7FC0
6000
7FC0
6600
DFC0
C600
0000
ENDCHAR
STARTCHAR 0x3460
ENCODING 13408
SWIDTH 960 0
DWIDTH 10 0
BBX 10 11 0 -2
BITMAP
0C00
CCC0
FFC0
6D80
FFC0
DA00
FFC0
DAC0
FB80
DEC0
0000
ENDCHAR
STARTCHAR 0x3461
ENCODING 13409
SWIDTH 960 0
DWIDTH 10 0
BBX 10 11 0 -2
BITMAP
0000
1FC0
F000
6000
6FC0
F680
6680
6680
F580
39C0
0000
ENDCHAR
STARTCHAR 0x3462
ENCODING 13410
SWIDTH 960 0
DWIDTH 10 0
BBX 10 11 0 -2
BITMAP
0600
0600
7FC0
ED00
7FC0
6D40
FDC0
6600
D6C0
DFC0
0000
ENDCHAR
STARTCHAR 0x3463
ENCODING 13411
SWIDTH 960 0
DWIDTH 10 0
BBX 10 11 0 -2
BITMAP
0000
F7C0
D4C0
F7C0
D4C0
D7C0
F500
D540
D580
F6C0
0000
ENDCHAR
STARTCHAR 0x3464
ENCODING 13412
SWIDTH 960 0
DWIDTH 10 0
BBX 10 11 0 -2
BITMAP
0C00
CCC0
FFC0
0000
FFC0
1800
3F80
F180
3180
3F80
0000
ENDCHAR
STARTCHAR 0x3465
ENCODING 13413
SWIDTH 960 0
DWIDTH 10 0
BBX 10 11 0 -2
BITMAP
0000
FFC0
6800
F800
6FC0
FA80
DA80
FA80
DA80
FDC0
0000
ENDCHAR
STARTCHAR 0x3466
ENCODING 13414
SWIDTH 960 0
DWIDTH 10 0
BBX 10 11 0 -2
BITMAP
0000
FFC0
DA80
F7C0
D580
DFC0
D180
DF80
1B00
71C0
0000
ENDCHAR
STARTCHAR 0x3467
ENCODING 13415
SWIDTH 960 0
DWIDTH 10 0
BBX 10 11 0 -2
BITMAP
0000
FFC0
DA80
DA80
D7C0
F580
DFC0
D580
D580
D7C0
0000
ENDCHAR
STARTCHAR 0x3468
ENCODING 13416
SWIDTH 960 0
DWIDTH 10 0
BBX 10 11 0 -2
BITMAP
0000
F7C0
0300
0FC0
FCC0
37C0
74C0
DFC0
C680
1CC0
0000
ENDCHAR
STARTCHAR 0x3469
ENCODING 13417
SWIDTH 960 0
DWIDTH 10 0
BBX 10 11 0 -2
BITMAP
3000
37C0
FB00
6FC0
68C0
FFC0
D4C0
EFC0
3680
ECC0
0000
ENDCHAR
STARTCHAR 0x346A
ENCODING 13418
SWIDTH 960 0
DWIDTH 10 0
BBX 10 11 0 -2
BITMAP
0000
FFC0
D300
FFC0
CCC0
FFC0
CCC0
FFC0
3680
DCC0
0000
ENDCHAR
STARTCHAR 0x346B
ENCODING 13419
SWIDTH 960 0
DWIDTH 10 0
BBX 10 11 0 -2
BITMAP
0000
1E00
3300
6D80
CCC0
0F00
3400
3400
3400
FFC0
0000
ENDCHAR
STARTCHAR 0x346C
ENCODING 13420
SWIDTH 960 0
DWIDTH 10 0
BBX 10 11 0 -2
BITMAP
0300
3300
3FC0
6300
E300
6FC0
6CC0
6D80
6700
6DC0
0000
ENDCHAR
STARTCHAR 0x346D
ENCODING 13421
SWIDTH 960 0
DWIDTH 10 0
BBX 10 11 0 -2
BITMAP
0000
3F00
6600
FFC0
6000
6F80
6980
6B80
D8C0
DFC0
0000
ENDCHAR
STARTCHAR 0x346E
ENCODING 13422
SWIDTH 960 0
DWIDTH 10 0
BBX 10 11 0 -2
BITMAP
0C00
0C00
FFC0
0C00
7F80
3300
1A00
FFC0
6180
7F80
0000
ENDCHAR
STARTCHAR 0x346F
ENCODING 13423
SWIDTH 960 0
DWIDTH 10 0
BBX 10 11 0 -2
BITMAP
0000
7B80
6A80
7B80
0C00
FFC0
3300
FBC0
6A80
7B80
0000
ENDCHAR
STARTCHAR 0x3470
ENCODING 13424
SWIDTH 960 0
DWIDTH 10 0
BBX 10 11 0 -2
BITMAP
3300
FFC0
3300
3F00
3300
FFC0
6D80
DF40
0C00
FFC0
0000
ENDCHAR
STARTCHAR 0x3471
ENCODING 13425
SWIDTH 960 0
DWIDTH 10 0
BBX 10 11 0 -2
BITMAP
0C00
0C00
FFC0
1A00
3300
FFC0
0180
7D80
6D80
7D80
0000
ENDCHAR
STARTCHAR 0x3472
ENCODING 13426
SWIDTH 960 0
DWIDTH 10 0
BBX 10 11 0 -2
BITMAP
0300
6300
6FC0
F300
6FC0
6CC0
D680
FFC0
68C0
6FC0
0000
ENDCHAR
STARTCHAR 0x3473
ENCODING 13427
SWIDTH 960 0
DWIDTH 10 0
BBX 10 11 0 -2
BITMAP
0C00
0C00
FFC0
DAC0
3300
FFC0
0180
7D80
6D80
7D80
0000
ENDCHAR
STARTCHAR 0x3474
ENCODING 13428
SWIDTH 960 0
DWIDTH 10 0
BBX 10 11 0 -2
BITMAP
0300
3300
3FC0
3300
D300
DFC0
D4C0
D580
F700
1DC0
0000
ENDCHAR
STARTCHAR 0x3475
ENCODING 13429
SWIDTH 960 0
DWIDTH 10 0
BBX 10 11 0 -2
BITMAP
0000
7380
1E00
3300
FFC0
1A00
3FC0
76C0
D6C0
0600
0000
ENDCHAR
STARTCHAR 0x3476
ENCODING 13430
SWIDTH 960 0
DWIDTH 10 0
BBX 10 11 0 -2
BITMAP
0C00
6D80
CD00
F5C0
6D80
D540
FFC0
6D80
7700
DDC0
0000
ENDCHAR
STARTCHAR 0x3477
ENCODING 13431
SWIDTH 960 0
DWIDTH 10 0
BBX 10 11 0 -2
BITMAP
0000
7F80
0180
7F80
6000
7F80
0C00
3680
D0C0
DF00
0000
ENDCHAR
STARTCHAR 0x3478
ENCODING 13432
SWIDTH 960 0
DWIDTH 10 0
BBX 10 11 0 -2
BITMAP
0000
6FC0
6B40
FFC0
6D40
6FC0
7540
ED40
6FC0
E300
0000
ENDCHAR
STARTCHAR 0x3479
ENCODING 13433
SWIDTH 960 0
DWIDTH 10 0
BBX 10 11 0 -2
BITMAP
0000
3780
3580
FD80
3580
7580
7580
D580
D4C0
38C0
0000
ENDCHAR
STARTCHAR 0x347A
ENCODING 13434
SWIDTH 960 0
DWIDTH 10 0
BBX 10 11 0 -2
BITMAP
0C00
6C00
FFC0
6D80
6F80
7580
DFC0
D000
3680
74C0
0000
ENDCHAR
STARTCHAR 0x347B
ENCODING 13435
SWIDTH 960 0
DWIDTH 10 0
BBX 10 11 0 -2
BITMAP
0000
FBC0
DA80
FA80
DA80
FFC0
C180
D380
EA80
CDC0
0000
ENDCHAR
STARTCHAR 0x347C
ENCODING 13436
SWIDTH 960 0
DWIDTH 10 0
BBX 10 11 0 -2
BITMAP
0000
6BC0
FEC0
6BC0
7AC0
6AC0
FFC0
06C0
6AC0
CDC0
0000
ENDCHAR
STARTCHAR 0x347D
ENCODING 13437
SWIDTH 960 0
DWIDTH 10 0
BBX 10 11 0 -2
BITMAP
0D80
3580
3FC0
F580
3780
7580
7FC0
D000
D680
34C0
0000
ENDCHAR
STARTCHAR 0x347E
ENCODING 13438
SWIDTH 960 0
DWIDTH 10 0
BBX 10 11 0 -2
BITMAP
0C00
0C00
FFC0
3300
7F80
3500
FFC0
1D00
3580
ECC0
0000
ENDCHAR
STARTCHAR 0x3521
ENCODING 13601
SWIDTH 960 0
DWIDTH 10 0
BBX 10 11 0 -2
BITMAP
0300
3580
3B40
F580
3B40
7300
7FC0
D540
DB80
36C0
0000
ENDCHAR
STARTCHAR 0x3522
ENCODING 13602
SWIDTH 960 0
DWIDTH 10 0
BBX 10 11 0 -2
BITMAP
0000
37C0
D0C0
D7C0
D000
DFC0
3340
3FC0
6B40
6B40
0000
ENDCHAR
STARTCHAR 0x3523
ENCODING 13603
SWIDTH 960 0
DWIDTH 10 0
BBX 10 11 0 -2
BITMAP
3000
37C0
FAC0
6AC0
FEC0
6800
D7C0
7AC0
D380
76C0
0000
ENDCHAR
STARTCHAR 0x3524
ENCODING 13604
SWIDTH 960 0
DWIDTH 10 0
BBX 10 11 0 -2
BITMAP
3000
3000
3FC0
6000
DF80
0000
7F80
6680
3CC0
E740
0000
ENDCHAR
STARTCHAR 0x3525
ENCODING 13605
SWIDTH 960 0
DWIDTH 10 0
BBX 10 11 0 -2
BITMAP
1800
D800
6FC0
3000
DF80
6000
1F80
0180
60C0
C0C0
0000
ENDCHAR
STARTCHAR 0x3526
ENCODING 13606
SWIDTH 960 0
DWIDTH 10 0
BBX 10 11 0 -2
BITMAP
0C00
6D80
CD00
FDC0
6D80
FFC0
D500
FD40
D580
FF40
0000
ENDCHAR
STARTCHAR 0x3527
ENCODING 13607
SWIDTH 960 0
DWIDTH 10 0
BBX 10 11 0 -2
BITMAP
0000
31C0
3700
FE00
1BC0
36C0
76C0
DAC0
34C0
34C0
0000
ENDCHAR
STARTCHAR 0x3528
ENCODING 13608
SWIDTH 960 0
DWIDTH 10 0
BBX 10 11 0 -2
BITMAP
0000
7F80
0C00
FFC0
3580
6F40
C600
FFC0
0C00
1C00
0000
ENDCHAR
STARTCHAR 0x3529
ENCODING 13609
SWIDTH 960 0
DWIDTH 10 0
BBX 10 11 0 -2
BITMAP
0000
1DC0
F700
3580
FFC0
3600
77C0
DD40
3540
3540
0000
ENDCHAR
STARTCHAR 0x352A
ENCODING 13610
SWIDTH 960 0
DWIDTH 10 0
BBX 10 11 0 -2
BITMAP
0000
6FC0
C0C0
F8C0
37C0
6C00
FC00
34C0
D4C0
D7C0
0000
ENDCHAR
STARTCHAR 0x352B
ENCODING 13611
SWIDTH 960 0
DWIDTH 10 0
BBX 10 11 0 -2
BITMAP
0D00
7500
D5C0
3EC0
0D40
6B40
EE80
6D80
6D40
76C0
0000
ENDCHAR
STARTCHAR 0x352C
ENCODING 13612
SWIDTH 960 0
DWIDTH 10 0
BBX 10 11 0 -2
BITMAP
0000
6FC0
6CC0
FFC0
6CC0
FCC0
6FC0
6680
D580
D9C0
0000
ENDCHAR
STARTCHAR 0x352D
ENCODING 13613
SWIDTH 960 0
DWIDTH 10 0
BBX 10 11 0 -2
BITMAP
0000
F7C0
00C0
F0C0
0FC0
F400
0C00
F4C0
D4C0
F7C0
0000
ENDCHAR
STARTCHAR 0x352E
ENCODING 13614
SWIDTH 960 0
DWIDTH 10 0
BBX 10 11 0 -2
BITMAP
0C00
0C00
7F80
6D80
FFC0
3300
3F00
3300
3F00
E1C0
0000
ENDCHAR
STARTCHAR 0x352F
ENCODING 13615
SWIDTH 960 0
DWIDTH 10 0
BBX 10 11 0 -2
BITMAP
3000
37C0
FCC0
30C0
FFC0
3600
3EC0
D7C0
F000
DFC0
0000
ENDCHAR
STARTCHAR 0x3530
ENCODING 13616
SWIDTH 960 0
DWIDTH 10 0
BBX 10 11 0 -2
BITMAP
0300
3300
FD00
37C0
FD40
D540
FD40
D540
FEC0
36C0
0000
ENDCHAR
STARTCHAR 0x3531
ENCODING 13617
SWIDTH 960 0
DWIDTH 10 0
BBX 10 11 0 -2
BITMAP
0000
3FC0
D340
D7C0
3540
FFC0
6D40
7540
DFC0
C300
0000
ENDCHAR
STARTCHAR 0x3532
ENCODING 13618
SWIDTH 960 0
DWIDTH 10 0
BBX 10 11 0 -2
BITMAP
0000
7B80
C680
FA80
DA80
FA80
DA80
FA80
D680
EDC0
0000
ENDCHAR
STARTCHAR 0x3533
ENCODING 13619
SWIDTH 960 0
DWIDTH 10 0
BBX 10 11 0 -2
BITMAP
0300
FB00
D7C0
FB00
D680
D4C0
FFC0
1B40
EF40
39C0
0000
ENDCHAR
STARTCHAR 0x3534
ENCODING 13620
SWIDTH 960 0
DWIDTH 10 0
BBX 10 11 0 -2
BITMAP
0C00
1800
7F80
6D80
7F80
6D80
7F80
1A80
36C0
E7C0
0000
ENDCHAR
STARTCHAR 0x3535
ENCODING 13621
SWIDTH 960 0
DWIDTH 10 0
BBX 10 11 0 -2
BITMAP
0000
3F00
6600
FF80
6D80
FF80
CD80
FF80
CCC0
0FC0
0000
ENDCHAR
STARTCHAR 0x3536
ENCODING 13622
SWIDTH 960 0
DWIDTH 10 0
BBX 10 11 0 -2
BITMAP
0D80
3580
3300
6F80
ED80
6FC0
68C0
7FC0
60C0
6AC0
0000
ENDCHAR
STARTCHAR 0x3537
ENCODING 13623
SWIDTH 960 0
DWIDTH 10 0
BBX 10 11 0 -2
BITMAP
0D80
3300
3FC0
6300
EFC0
6300
7FC0
6B40
7D80
6AC0
0000
ENDCHAR
STARTCHAR 0x3538
ENCODING 13624
SWIDTH 960 0
DWIDTH 10 0
BBX 10 11 0 -2
BITMAP
0300
6300
6FC0
FB00
6B00
6FC0
D6C0
FAC0
6380
6EC0
0000
ENDCHAR
STARTCHAR 0x3539
ENCODING 13625
SWIDTH 960 0
DWIDTH 10 0
BBX 10 11 0 -2
BITMAP
0C00
0C00
FFC0
C0C0
3F00
3300
3F00
3300
3300
FFC0
0000
ENDCHAR
STARTCHAR 0x353A
ENCODING 13626
SWIDTH 960 0
DWIDTH 10 0
BBX 10 11 0 -2
BITMAP
3300
3D40
3340
FFC0
D300
FF40
D1C0
DE80
6B40
FEC0
0000
ENDCHAR
STARTCHAR 0x353B
ENCODING 13627
SWIDTH 960 0
DWIDTH 10 0
BBX 10 11 0 -2
BITMAP
0300
6300
6FC0
F300
6300
6FC0
74C0
ED80
6700
EDC0
0000
ENDCHAR
STARTCHAR 0x353C
ENCODING 13628
SWIDTH 960 0
DWIDTH 10 0
BBX 10 11 0 -2
BITMAP
0000
6BC0
6EC0
F980
6FC0
7540
7F00
EDC0
6D00
F7C0
0000
ENDCHAR
STARTCHAR 0x353D
ENCODING 13629
SWIDTH 960 0
DWIDTH 10 0
BBX 10 11 0 -2
BITMAP
0C00
6C00
FFC0
6D40
7D40
6D00
FD00
0300
6A80
CCC0
0000
ENDCHAR
STARTCHAR 0x353E
ENCODING 13630
SWIDTH 960 0
DWIDTH 10 0
BBX 10 11 0 -2
BITMAP
0D80
D300
D7C0
FB00
D7C0
D300
3FC0
F540
3E80
3540
0000
ENDCHAR
STARTCHAR 0x353F
ENCODING 13631
SWIDTH 960 0
DWIDTH 10 0
BBX 10 11 0 -2
BITMAP
0000
CFC0
F980
C300
FFC0
D340
FD00
35C0
7500
DFC0
0000
ENDCHAR
STARTCHAR 0x3540
ENCODING 13632
SWIDTH 960 0
DWIDTH 10 0
BBX 10 11 0 -2
BITMAP
0000
61C0
6F80
FD80
1D80
37C0
6D80
F580
6CC0
6F40
0000
ENDCHAR
STARTCHAR 0x3541
ENCODING 13633
SWIDTH 960 0
DWIDTH 10 0
BBX 10 11 0 -2
BITMAP
3300
3600
FFC0
0C00
7F80
0CC0
FFC0
6D80
F700
6DC0
0000
ENDCHAR
STARTCHAR 0x3542
ENCODING 13634
SWIDTH 960 0
DWIDTH 10 0
BBX 10 11 0 -2
BITMAP
0D80
6300
6FC0
FB00
EFC0
EB00
FFC0
6D40
6E80
F540
0000
ENDCHAR
STARTCHAR 0x3543
ENCODING 13635
SWIDTH 960 0
DWIDTH 10 0
BBX 10 11 0 -2
BITMAP
0300
F300
1FC0
F8C0
0F80
F580
0F80
F580
D580
FFC0
0000
ENDCHAR
STARTCHAR 0x3544
ENCODING 13636
SWIDTH 960 0
DWIDTH 10 0
BBX 10 11 0 -2
BITMAP
0D80
F300
1FC0
F300
0FC0
F300
1FC0
F540
DE80
F540
0000
ENDCHAR
STARTCHAR 0x3545
ENCODING 13637
SWIDTH 960 0
DWIDTH 10 0
BBX 10 11 0 -2
BITMAP
0C00
6C00
6FC0
FAC0
6B40
66C0
7FC0
EEC0
6B40
E6C0
0000
ENDCHAR
STARTCHAR 0x3546
ENCODING 13638
SWIDTH 960 0
DWIDTH 10 0
BBX 10 11 0 -2
BITMAP
3300
3300
FFC0
3300
7FC0
DAC0
18C0
FF40
6AC0
DB80
0000
ENDCHAR
STARTCHAR 0x3547
ENCODING 13639
SWIDTH 960 0
DWIDTH 10 0
BBX 10 11 0 -2
BITMAP
0C00
6C00
FFC0
6AC0
FB40
D6C0
FFC0
36C0
FB40
36C0
0000
ENDCHAR
STARTCHAR 0x3548
ENCODING 13640
SWIDTH 960 0
DWIDTH 10 0
BBX 10 11 0 -2
BITMAP
0C00
0C00
FFC0
0C00
7F80
0000
7F80
6180
6180
7F80
0000
ENDCHAR
STARTCHAR 0x3549
ENCODING 13641
SWIDTH 960 0
DWIDTH 10 0
BBX 10 11 0 -2
BITMAP
0C00
0C00
F7C0
D800
D7C0
D300
D600
D4C0
F4C0
0FC0
0000
ENDCHAR
STARTCHAR 0x354A
ENCODING 13642
SWIDTH 960 0
DWIDTH 10 0
BBX 10 11 0 -2
BITMAP
0C00
0DC0
FF40
D4C0
DEC0
D500
DFC0
D300
F680
1CC0
0000
ENDCHAR
STARTCHAR 0x354B
ENCODING 13643
SWIDTH 960 0
DWIDTH 10 0
BBX 10 11 0 -2
BITMAP
0300
3300
3FC0
F300
37C0
7000
77C0
DCC0
D4C0
37C0
0000
ENDCHAR
STARTCHAR 0x354C
ENCODING 13644
SWIDTH 960 0
DWIDTH 10 0
BBX 10 11 0 -2
BITMAP
0000
3780
3300
FFC0
3680
7FC0
7540
DFC0
D540
3740
0000
ENDCHAR
STARTCHAR 0x354D
ENCODING 13645
SWIDTH 960 0
DWIDTH 10 0
BBX 10 11 0 -2
BITMAP
0300
F300
0FC0
F300
0FC0
F000
0FC0
F4C0
D4C0
F7C0
0000
ENDCHAR
STARTCHAR 0x354E
ENCODING 13646
SWIDTH 960 0
DWIDTH 10 0
BBX 10 11 0 -2
BITMAP
0600
F600
67C0
6600
C600
F7C0
D4C0
D4C0
D4C0
F7C0
0000
ENDCHAR
STARTCHAR 0x354F
ENCODING 13647
SWIDTH 960 0
DWIDTH 10 0
BBX 10 11 0 -2
BITMAP
0C00
3400
37C0
FB00
3300
7300
77C0
DB00
D300
3300
0000
ENDCHAR
STARTCHAR 0x3550
ENCODING 13648
SWIDTH 960 0
DWIDTH 10 0
BBX 10 11 0 -2
BITMAP
0000
7F80
0C00
FFC0
6D80
DAC0
3500
EDC0
3500
EDC0
0000
ENDCHAR
STARTCHAR 0x3551
ENCODING 13649
SWIDTH 960 0
DWIDTH 10 0
BBX 10 11 0 -2
BITMAP
3000
37C0
FEC0
36C0
36C0
FEC0
66C0
CEC0
FAC0
0600
0000
ENDCHAR
STARTCHAR 0x3552
ENCODING 13650
SWIDTH 960 0
DWIDTH 10 0
BBX 10 11 0 -2
BITMAP
0C00
0C00
FFC0
DB40
D340
6A00
1E00
F3C0
3300
3F00
0000
ENDCHAR
STARTCHAR 0x3553
ENCODING 13651
SWIDTH 960 0
DWIDTH 10 0
BBX 10 11 0 -2
BITMAP
0C00
F5C0
DF40
F540
D540
DF40
F540
DB40
DFC0
D300
0000
ENDCHAR
STARTCHAR 0x3554
ENCODING 13652
SWIDTH 960 0
DWIDTH 10 0
BBX 10 11 0 -2
BITMAP
0C00
0F80
0C00
7FC0
6600
6FC0
6800
DFC0
D800
1FC0
0000
ENDCHAR
STARTCHAR 0x3555
ENCODING 13653
SWIDTH 960 0
DWIDTH 10 0
BBX 10 11 0 -2
BITMAP
0D80
CD00
6000
1FC0
0300
ED40
6FC0
6300
D000
DFC0
0000
ENDCHAR
STARTCHAR 0x3556
ENCODING 13654
SWIDTH 960 0
DWIDTH 10 0
BBX 10 11 0 -2
BITMAP
0000
0700
3C00
3000
3F80
3300
3300
3300
3300
FFC0
0000
ENDCHAR
STARTCHAR 0x3557
ENCODING 13655
SWIDTH 960 0
DWIDTH 10 0
BBX 10 11 0 -2
BITMAP
1800
1800
1F80
1980
3180
6300
0600
0D00
3980
E0C0
0000
ENDCHAR
STARTCHAR 0x3558
ENCODING 13656
SWIDTH 960 0
DWIDTH 10 0
BBX 10 11 0 -2
BITMAP
0600
3600
3600
3FC0
66C0
66C0
6CC0
6CC0
68C0
68C0
0000
ENDCHAR
STARTCHAR 0x3559
ENCODING 13657
SWIDTH 960 0
DWIDTH 10 0
BBX 10 11 0 -2
BITMAP
0300
3300
3300
6FC0
E300
6700
6D80
6B40
6300
6300
0000
ENDCHAR
STARTCHAR 0x355A
ENCODING 13658
SWIDTH 960 0
DWIDTH 10 0
BBX 10 11 0 -2
BITMAP
0000
7F80
1980
1B00
33C0
34C0
6680
6300
0E80
78C0
0000
ENDCHAR
STARTCHAR 0x355B
ENCODING 13659
SWIDTH 960 0
DWIDTH 10 0
BBX 10 11 0 -2
BITMAP
0000
1FC0
F580
D500
D5C0
D4C0
DAC0
D380
F680
1CC0
0000
ENDCHAR
STARTCHAR 0x355C
ENCODING 13660
SWIDTH 960 0
DWIDTH 10 0
BBX 10 11 0 -2
BITMAP
0C00
0C00
FFC0
D340
DF40
1800
7F80
6180
6180
7F80
0000
ENDCHAR
STARTCHAR 0x355D
ENCODING 13661
SWIDTH 960 0
DWIDTH 10 0
BBX 10 11 0 -2
BITMAP
0000
3F80
0180
0180
3F80
3000
3FC0
60C0
60C0
0380
0000
ENDCHAR
STARTCHAR 0x355E
ENCODING 13662
SWIDTH 960 0
DWIDTH 10 0
BBX 10 11 0 -2
BITMAP
0000
3F00
6600
DF80
0180
7F80
0180
7F00
D180
DF40
0000
ENDCHAR
STARTCHAR 0x355F
ENCODING 13663
SWIDTH 960 0
DWIDTH 10 0
BBX 10 11 0 -2
BITMAP
3300
3500
35C0
FEC0
3340
D540
D980
3180
7540
D6C0
0000
ENDCHAR
STARTCHAR 0x3560
ENCODING 13664
SWIDTH 960 0
DWIDTH 10 0
BBX 10 11 0 -2
BITMAP
0000
37C0
3600
FA00
37C0
76C0
7AC0
D4C0
D4C0
3380
0000
ENDCHAR
STARTCHAR 0x3561
ENCODING 13665
SWIDTH 960 0
DWIDTH 10 0
BBX 10 11 0 -2
BITMAP
0C00
0CC0
FFC0
0C00
6CC0
3680
1D00
3580
ECC0
1C00
0000
ENDCHAR
STARTCHAR 0x3562
ENCODING 13666
SWIDTH 960 0
DWIDTH 10 0
BBX 10 11 0 -2
BITMAP
0000
DFC0
6D80
0D00
CDC0
6CC0
1AC0
1B80
6680
DCC0
0000
ENDCHAR
STARTCHAR 0x3563
ENCODING 13667
SWIDTH 960 0
DWIDTH 10 0
BBX 10 11 0 -2
BITMAP
0600
C600
6FC0
0000
CD80
6D80
0D80
0D00
6300
DFC0
0000
ENDCHAR
STARTCHAR 0x3564
ENCODING 13668
SWIDTH 960 0
DWIDTH 10 0
BBX 10 11 0 -2
BITMAP
0000
3F80
E300
1E00
F3C0
0C00
6CC0
CD80
3B00
E1C0
0000
ENDCHAR
STARTCHAR 0x3565
ENCODING 13669
SWIDTH 960 0
DWIDTH 10 0
BBX 10 11 0 -2
BITMAP
0300
0340
FFC0
6300
6B40
F580
6300
6D80
FB40
0700
0000
ENDCHAR
STARTCHAR 0x3566
ENCODING 13670
SWIDTH 960 0
DWIDTH 10 0
BBX 10 11 0 -2
BITMAP
0C00
0C00
FFC0
DAC0
1A00
7780
0C00
7F00
1B40
F3C0
0000
ENDCHAR
STARTCHAR 0x3567
ENCODING 13671
SWIDTH 960 0
DWIDTH 10 0
BBX 10 11 0 -2
BITMAP
0C00
0C00
FFC0
DAC0
3340
FBC0
DA00
FFC0
68C0
DB80
0000
ENDCHAR
STARTCHAR 0x3568
ENCODING 13672
SWIDTH 960 0
DWIDTH 10 0
BBX 10 11 0 -2
BITMAP
0600
6600
7BC0
D580
7FC0
3300
37C0
6980
CF00
D9C0
0000
ENDCHAR
STARTCHAR 0x3569
ENCODING 13673
SWIDTH 960 0
DWIDTH 10 0
BBX 10 11 0 -2
BITMAP
0000
6FC0
CD80
F500
35C0
6CC0
FAC0
3380
D680
DCC0
0000
ENDCHAR
STARTCHAR 0x356A
ENCODING 13674
SWIDTH 960 0
DWIDTH 10 0
BBX 10 11 0 -2
BITMAP
0000
6180
CD80
F580
3580
6D80
F5C0
3780
DD80
D180
0000
ENDCHAR
STARTCHAR 0x356B
ENCODING 13675
SWIDTH 960 0
DWIDTH 10 0
BBX 10 11 0 -2
BITMAP
0000
6780
CCC0
F800
37C0
6000
FFC0
34C0
D4C0
D7C0
0000
ENDCHAR
STARTCHAR 0x356C
ENCODING 13676
SWIDTH 960 0
DWIDTH 10 0
BBX 10 11 0 -2
BITMAP
0000
6FC0
68C0
68C0
68C0
6FC0
68C0
68C0
68C0
6FC0
0000
ENDCHAR
STARTCHAR 0x356D
ENCODING 13677
SWIDTH 960 0
DWIDTH 10 0
BBX 10 11 0 -2
BITMAP
0C00
6C00
7F80
CC00
CC00
0C00
FFC0
0C00
0C00
0C00
0000
ENDCHAR
STARTCHAR 0x356E
ENCODING 13678
SWIDTH 960 0
DWIDTH 10 0
BBX 10 11 0 -2
BITMAP
0C00
0C00
7F80
0C00
0C00
FFC0
1B00
3300
6680
7D80
0000
ENDCHAR
STARTCHAR 0x356F
ENCODING 13679
SWIDTH 960 0
DWIDTH 10 0
BBX 10 11 0 -2
BITMAP
0000
7FC0
60C0
7FC0
6600
7FC0
6600
DFC0
D8C0
1FC0
0000
ENDCHAR
STARTCHAR 0x3570
ENCODING 13680
SWIDTH 960 0
DWIDTH 10 0
BBX 10 11 0 -2
BITMAP
0000
7FC0
6000
7F80
6180
6180
7F80
6000
6000
7FC0
0000
ENDCHAR
STARTCHAR 0x3571
ENCODING 13681
SWIDTH 960 0
DWIDTH 10 0
BBX 10 11 0 -2
BITMAP
0000
6FC0
6C00
FFC0
6CC0
6CC0
77C0
EC00
6C00
EFC0
0000
ENDCHAR
STARTCHAR 0x3572
ENCODING 13682
SWIDTH 960 0
DWIDTH 10 0
BBX 10 11 0 -2
BITMAP
1800
6B80
6E80
EA80
7680
6A80
EA80
6DC0
6E00
FBC0
0000
ENDCHAR
STARTCHAR 0x3573
ENCODING 13683
SWIDTH 960 0
DWIDTH 10 0
BBX 10 11 0 -2
BITMAP
1980
6D00
3600
FFC0
3580
7F40
CC00
FFC0
0C00
1C00
0000
ENDCHAR
STARTCHAR 0x3574
ENCODING 13684
SWIDTH 960 0
DWIDTH 10 0
BBX 10 11 0 -2
BITMAP
0000
6FC0
3400
CFC0
6CC0
37C0
6C00
FFC0
3580
ECC0
0000
ENDCHAR
STARTCHAR 0x3575
ENCODING 13685
SWIDTH 960 0
DWIDTH 10 0
BBX 10 11 0 -2
BITMAP
0F00
0C00
7FC0
6CC0
7F80
6C00
6FC0
DB40
DB00
7FC0
0000
ENDCHAR
STARTCHAR 0x3576
ENCODING 13686
SWIDTH 960 0
DWIDTH 10 0
BBX 10 11 0 -2
BITMAP
0C00
F400
0FC0
FB00
0300
F300
1FC0
F300
D300
F300
0000
ENDCHAR
STARTCHAR 0x3577
ENCODING 13687
SWIDTH 960 0
DWIDTH 10 0
BBX 10 11 0 -2
BITMAP
0000
FBC0
DA00
DBC0
FAC0
36C0
3FC0
D600
D600
FFC0
0000
ENDCHAR
STARTCHAR 0x3578
ENCODING 13688
SWIDTH 960 0
DWIDTH 10 0
BBX 10 11 0 -2
BITMAP
0000
77C0
CCC0
FFC0
3500
F7C0
3B00
D7C0
34C0
FFC0
0000
ENDCHAR
STARTCHAR 0x3579
ENCODING 13689
SWIDTH 960 0
DWIDTH 10 0
BBX 10 11 0 -2
BITMAP
0000
CF80
6B00
3FC0
DB40
6FC0
1B40
1FC0
6D80
D6C0
0000
ENDCHAR
STARTCHAR 0x357A
ENCODING 13690
SWIDTH 960 0
DWIDTH 10 0
BBX 10 11 0 -2
BITMAP
1800
6FC0
D540
6F40
ED40
7FC0
0000
FFC0
6D80
DCC0
0000
ENDCHAR
STARTCHAR 0x357B
ENCODING 13691
SWIDTH 960 0
DWIDTH 10 0
BBX 10 11 0 -2
BITMAP
0000
3F00
6600
FF80
6D80
7F80
6D80
7F80
6D80
D6C0
0000
ENDCHAR
STARTCHAR 0x357C
ENCODING 13692
SWIDTH 960 0
DWIDTH 10 0
BBX 10 11 0 -2
BITMAP
0C00
0C00
FFC0
3300
3F00
0000
FFC0
0600
0C00
1C00
0000
ENDCHAR
STARTCHAR 0x357D
ENCODING 13693
SWIDTH 960 0
DWIDTH 10 0
BBX 10 11 0 -2
BITMAP
0C00
0C00
FFC0
3300
3300
7F80
0600
FFC0
0C00
1C00
0000
ENDCHAR
STARTCHAR 0x357E
ENCODING 13694
SWIDTH 960 0
DWIDTH 10 0
BBX 10 11 0 -2
BITMAP
0C00
0C00
FFC0
0000
7F80
6180
7F80
0C00
6D80
DCC0
0000
ENDCHAR
STARTCHAR 0x3621
ENCODING 13857
SWIDTH 960 0
DWIDTH 10 0
BBX 10 11 0 -2
BITMAP
0D80
3580
3580
6FC0
ED80
6D80
7FC0
6000
6D80
68C0
0000
ENDCHAR
STARTCHAR 0x3622
ENCODING 13858
SWIDTH 960 0
DWIDTH 10 0
BBX 10 11 0 -2
BITMAP
0300
3300
3FC0
6B40
ED80
6300
7FC0
6300
6680
6CC0
0000
ENDCHAR
STARTCHAR 0x3623
ENCODING 13859
SWIDTH 960 0
DWIDTH 10 0
BBX 10 11 0 -2
BITMAP
0000
3FC0
3600
6FC0
ED80
6B40
7000
6FC0
6B40
69C0
0000
ENDCHAR
STARTCHAR 0x3624
ENCODING 13860
SWIDTH 960 0
DWIDTH 10 0
BBX 10 11 0 -2
BITMAP
0000
6A80
6D80
6A80
7180
6180
7F80
1A00
36C0
E7C0
0000
ENDCHAR
STARTCHAR 0x3625
ENCODING 13861
SWIDTH 960 0
DWIDTH 10 0
BBX 10 11 0 -2
BITMAP
3300
3300
FBC0
6A80
FFC0
DAC0
FBC0
7700
D540
DDC0
0000
ENDCHAR
STARTCHAR 0x3626
ENCODING 13862
SWIDTH 960 0
DWIDTH 10 0
BBX 10 11 0 -2
BITMAP
1B00
1B00
1B00
FFC0
1B00
1B00
FFC0
0000
3180
E0C0
0000
ENDCHAR
STARTCHAR 0x3627
ENCODING 13863
SWIDTH 960 0
DWIDTH 10 0
BBX 10 11 0 -2
BITMAP
0000
C0C0
D340
DAC0
CCC0
DAC0
D340
C0C0
C0C0
FFC0
0000
ENDCHAR
STARTCHAR 0x3628
ENCODING 13864
SWIDTH 960 0
DWIDTH 10 0
BBX 10 11 0 -2
BITMAP
0600
6600
6FC0
66C0
F6C0
6D80
7FC0
6AC0
6AC0
76C0
0000
ENDCHAR
STARTCHAR 0x3629
ENCODING 13865
SWIDTH 960 0
DWIDTH 10 0
BBX 10 11 0 -2
BITMAP
0000
FFC0
C000
DFC0
C600
DF80
C600
DFC0
C000
FFC0
0000
ENDCHAR
STARTCHAR 0x362A
ENCODING 13866
SWIDTH 960 0
DWIDTH 10 0
BBX 10 11 0 -2
BITMAP
0000
FDC0
D540
DD40
D540
DD40
D340
F540
3DC0
7300
0000
ENDCHAR
STARTCHAR 0x362B
ENCODING 13867
SWIDTH 960 0
DWIDTH 10 0
BBX 10 11 0 -2
BITMAP
0000
0180
F580
D580
D580
D580
D5C0
D780
FD80
0180
0000
ENDCHAR
STARTCHAR 0x362C
ENCODING 13868
SWIDTH 960 0
DWIDTH 10 0
BBX 10 11 0 -2
BITMAP
0000
7F80
0C00
FFC0
3300
6E80
C0C0
7F80
6A80
6E80
0000
ENDCHAR
STARTCHAR 0x362D
ENCODING 13869
SWIDTH 960 0
DWIDTH 10 0
BBX 10 11 0 -2
BITMAP
0600
6600
6FC0
F580
6D80
6FC0
6980
6F80
ED40
3BC0
0000
ENDCHAR
STARTCHAR 0x362E
ENCODING 13870
SWIDTH 960 0
DWIDTH 10 0
BBX 10 11 0 -2
BITMAP
0300
3300
3FC0
DB40
D580
D300
DFC0
D300
F680
1CC0
0000
ENDCHAR
STARTCHAR 0x362F
ENCODING 13871
SWIDTH 960 0
DWIDTH 10 0
BBX 10 11 0 -2
BITMAP
0300
F6C0
37C0
F300
CFC0
CD40
F7C0
3300
3340
EFC0
0000
ENDCHAR
STARTCHAR 0x3630
ENCODING 13872
SWIDTH 960 0
DWIDTH 10 0
BBX 10 11 0 -2
BITMAP
0000
FFC0
3540
F7C0
C000
DFC0
F540
37C0
3540
EFC0
0000
ENDCHAR
STARTCHAR 0x3631
ENCODING 13873
SWIDTH 960 0
DWIDTH 10 0
BBX 10 11 0 -2
BITMAP
0300
3300
3FC0
D300
D300
DFC0
D600
D600
34C0
37C0
0000
ENDCHAR
STARTCHAR 0x3632
ENCODING 13874
SWIDTH 960 0
DWIDTH 10 0
BBX 10 11 0 -2
BITMAP
0000
F780
6D80
6E80
6D80
F9C0
0C00
3680
D0C0
DF00
0000
ENDCHAR
STARTCHAR 0x3633
ENCODING 13875
SWIDTH 960 0
DWIDTH 10 0
BBX 10 11 0 -2
BITMAP
3300
3300
7F80
3300
FFC0
3580
ECC0
3680
6D40
DD80
0000
ENDCHAR
STARTCHAR 0x3634
ENCODING 13876
SWIDTH 960 0
DWIDTH 10 0
BBX 10 11 0 -2
BITMAP
0300
6300
7FC0
EB40
6D80
6300
7FC0
E300
6680
ECC0
0000
ENDCHAR
STARTCHAR 0x3635
ENCODING 13877
SWIDTH 960 0
DWIDTH 10 0
BBX 10 11 0 -2
BITMAP
3600
3600
FFC0
36C0
FD40
6D40
D980
FE80
3340
76C0
0000
ENDCHAR
STARTCHAR 0x3636
ENCODING 13878
SWIDTH 960 0
DWIDTH 10 0
BBX 10 11 0 -2
BITMAP
0000
3FC0
3600
FFC0
3580
7B40
7000
DFC0
D540
3740
0000
ENDCHAR
STARTCHAR 0x3637
ENCODING 13879
SWIDTH 960 0
DWIDTH 10 0
BBX 10 11 0 -2
BITMAP
0000
DFC0
68C0
18C0
D8C0
6FC0
0D00
0D00
6B40
DBC0
0000
ENDCHAR
STARTCHAR 0x3638
ENCODING 13880
SWIDTH 960 0
DWIDTH 10 0
BBX 10 11 0 -2
BITMAP
0000
37C0
D300
6300
D300
37C0
7300
D300
3300
EFC0
0000
ENDCHAR
STARTCHAR 0x3639
ENCODING 13881
SWIDTH 960 0
DWIDTH 10 0
BBX 10 11 0 -2
BITMAP
0300
3300
DFC0
6B40
D580
3300
7FC0
D300
3680
ECC0
0000
ENDCHAR
STARTCHAR 0x363A
ENCODING 13882
SWIDTH 960 0
DWIDTH 10 0
BBX 10 11 0 -2
BITMAP
0000
DFC0
F600
6FC0
F580
6B40
7000
DFC0
D540
3740
0000
ENDCHAR
STARTCHAR 0x363B
ENCODING 13883
SWIDTH 960 0
DWIDTH 10 0
BBX 10 11 0 -2
BITMAP
0C00
F400
D7C0
FAC0
D4C0
D540
FB40
D340
DF40
D1C0
0000
ENDCHAR
STARTCHAR 0x363C
ENCODING 13884
SWIDTH 960 0
DWIDTH 10 0
BBX 10 11 0 -2
BITMAP
0C00
0C00
7F80
0D80
FBC0
6B40
FFC0
6180
7F80
6180
0000
ENDCHAR
STARTCHAR 0x363D
ENCODING 13885
SWIDTH 960 0
DWIDTH 10 0
BBX 10 11 0 -2
BITMAP
0000
EEC0
DAC0
EEC0
DAC0
DAC0
FFC0
0000
6180
C0C0
0000
ENDCHAR
STARTCHAR 0x363E
ENCODING 13886
SWIDTH 960 0
DWIDTH 10 0
BBX 10 11 0 -2
BITMAP
3300
3300
FFC0
0C00
FFC0
6A80
DAC0
FFC0
DAC0
DEC0
0000
ENDCHAR
STARTCHAR 0x363F
ENCODING 13887
SWIDTH 960 0
DWIDTH 10 0
BBX 10 11 0 -2
BITMAP
0000
6FC0
DB40
FF40
6B80
DF40
FB40
3B40
6D80
6300
0000
ENDCHAR
STARTCHAR 0x3640
ENCODING 13888
SWIDTH 960 0
DWIDTH 10 0
BBX 10 11 0 -2
BITMAP
0300
7B00
CFC0
FA80
3680
FFC0
34C0
D7C0
3680
FDC0
0000
ENDCHAR
STARTCHAR 0x3641
ENCODING 13889
SWIDTH 960 0
DWIDTH 10 0
BBX 10 11 0 -2
BITMAP
0000
6FC0
DB40
FF80
6B40
FFC0
3300
FFC0
6180
7F80
0000
ENDCHAR
STARTCHAR 0x3642
ENCODING 13890
SWIDTH 960 0
DWIDTH 10 0
BBX 10 11 0 -2
BITMAP
0000
6FC0
DB40
FF80
6B40
FFC0
7380
DF40
3300
FDC0
0000
ENDCHAR
STARTCHAR 0x3643
ENCODING 13891
SWIDTH 960 0
DWIDTH 10 0
BBX 10 11 0 -2
BITMAP
0600
D600
FFC0
D540
F580
7F40
6C00
7FC0
00C0
D580
0000
ENDCHAR
STARTCHAR 0x3644
ENCODING 13892
SWIDTH 960 0
DWIDTH 10 0
BBX 10 11 0 -2
BITMAP
0000
3DC0
6B40
EB40
6B40
6B40
6B40
6B40
7DC0
6300
0000
ENDCHAR
STARTCHAR 0x3645
ENCODING 13893
SWIDTH 960 0
DWIDTH 10 0
BBX 10 11 0 -2
BITMAP
0000
37C0
DEC0
7180
3FC0
3540
7F00
6DC0
DD00
D7C0
0000
ENDCHAR
STARTCHAR 0x3646
ENCODING 13894
SWIDTH 960 0
DWIDTH 10 0
BBX 10 11 0 -2
BITMAP
0C00
0C00
FFC0
0C00
FFC0
3300
FFC0
1A00
36C0
E7C0
0000
ENDCHAR
STARTCHAR 0x3647
ENCODING 13895
SWIDTH 960 0
DWIDTH 10 0
BBX 10 11 0 -2
BITMAP
0600
0600
FFC0
D600
DFC0
F580
DFC0
D700
F540
3BC0
0000
ENDCHAR
STARTCHAR 0x3648
ENCODING 13896
SWIDTH 960 0
DWIDTH 10 0
BBX 10 11 0 -2
BITMAP
1A00
6A80
FFC0
3300
7F80
0C00
FFC0
1C00
3500
EDC0
0000
ENDCHAR
STARTCHAR 0x3649
ENCODING 13897
SWIDTH 960 0
DWIDTH 10 0
BBX 10 11 0 -2
BITMAP
0000
7F80
6180
7F80
6000
7FC0
6AC0
6AC0
DEC0
C380
0000
ENDCHAR
STARTCHAR 0x364A
ENCODING 13898
SWIDTH 960 0
DWIDTH 10 0
BBX 10 11 0 -2
BITMAP
3600
3600
3600
FFC0
D6C0
D6C0
FFC0
D6C0
D6C0
FFC0
0000
ENDCHAR
STARTCHAR 0x364B
ENCODING 13899
SWIDTH 960 0
DWIDTH 10 0
BBX 10 11 0 -2
BITMAP
0000
3FC0
3600
FEC0
3740
7540
7580
DD40
D600
3FC0
0000
ENDCHAR
STARTCHAR 0x364C
ENCODING 13900
SWIDTH 960 0
DWIDTH 10 0
BBX 10 11 0 -2
BITMAP
0000
FFC0
0C00
0C00
0C00
7F80
0C00
0D00
0D80
FFC0
0000
ENDCHAR
STARTCHAR 0x364D
ENCODING 13901
SWIDTH 960 0
DWIDTH 10 0
BBX 10 11 0 -2
BITMAP
0000
37C0
34C0
FF40
34C0
7740
7540
DD40
D740
35C0
0000
ENDCHAR
STARTCHAR 0x364E
ENCODING 13902
SWIDTH 960 0
DWIDTH 10 0
BBX 10 11 0 -2
BITMAP
0000
37C0
DB00
D300
3300
FFC0
3300
7B00
D300
3300
0000
ENDCHAR
STARTCHAR 0x364F
ENCODING 13903
SWIDTH 960 0
DWIDTH 10 0
BBX 10 11 0 -2
BITMAP
0680
3FC0
3680
6FC0
EB40
6FC0
6300
6FC0
6300
6FC0
0000
ENDCHAR
STARTCHAR 0x3650
ENCODING 13904
SWIDTH 960 0
DWIDTH 10 0
BBX 10 11 0 -2
BITMAP
6B00
FD00
6B00
FFC0
D540
FD40
3340
FEC0
30C0
FD80
0000
ENDCHAR
STARTCHAR 0x3651
ENCODING 13905
SWIDTH 960 0
DWIDTH 10 0
BBX 10 11 0 -2
BITMAP
0C00
6C00
6FC0
F8C0
6F40
60C0
63C0
6EC0
F0C0
0380
0000
ENDCHAR
STARTCHAR 0x3652
ENCODING 13906
SWIDTH 960 0
DWIDTH 10 0
BBX 10 11 0 -2
BITMAP
0C00
0C00
FFC0
CCC0
CCC0
CCC0
CCC0
CDC0
0C00
0C00
0000
ENDCHAR
STARTCHAR 0x3653
ENCODING 13907
SWIDTH 960 0
DWIDTH 10 0
BBX 10 11 0 -2
BITMAP
0300
7A00
CFC0
FCC0
37C0
FCC0
37C0
D300
37C0
FD40
0000
ENDCHAR
STARTCHAR 0x3654
ENCODING 13908
SWIDTH 960 0
DWIDTH 10 0
BBX 10 11 0 -2
BITMAP
0000
0380
7E00
6000
6000
7FC0
6600
C600
C600
0600
0000
ENDCHAR
STARTCHAR 0x3655
ENCODING 13909
SWIDTH 960 0
DWIDTH 10 0
BBX 10 11 0 -2
BITMAP
0C00
3C00
EFC0
CD40
FB40
D300
D300
D300
D680
3CC0
0000
ENDCHAR
STARTCHAR 0x3656
ENCODING 13910
SWIDTH 960 0
DWIDTH 10 0
BBX 10 11 0 -2
BITMAP
0600
7A00
C7C0
FD40
3340
FD00
3300
DB00
3680
FCC0
0000
ENDCHAR
STARTCHAR 0x3657
ENCODING 13911
SWIDTH 960 0
DWIDTH 10 0
BBX 10 11 0 -2
BITMAP
0000
FBC0
3300
FBC0
3300
FFC0
6180
DF40
0300
1E00
0000
ENDCHAR
STARTCHAR 0x3658
ENCODING 13912
SWIDTH 960 0
DWIDTH 10 0
BBX 10 11 0 -2
BITMAP
3300
3300
FFC0
3700
7580
DF40
0000
FFC0
6D80
DCC0
0000
ENDCHAR
STARTCHAR 0x3659
ENCODING 13913
SWIDTH 960 0
DWIDTH 10 0
BBX 10 11 0 -2
BITMAP
0000
3F00
6D80
FFC0
1A00
6D80
6A80
FFC0
DB40
DEC0
0000
ENDCHAR
STARTCHAR 0x365A
ENCODING 13914
SWIDTH 960 0
DWIDTH 10 0
BBX 10 11 0 -2
BITMAP
0600
6600
7BC0
D580
FA00
DFC0
FAC0
DAC0
FCC0
DB80
0000
ENDCHAR
STARTCHAR 0x365B
ENCODING 13915
SWIDTH 960 0
DWIDTH 10 0
BBX 10 11 0 -2
BITMAP
0000
FBC0
D0C0
FA80
DB80
FAC0
D580
FFC0
3500
EDC0
0000
ENDCHAR
STARTCHAR 0x365C
ENCODING 13916
SWIDTH 960 0
DWIDTH 10 0
BBX 10 11 0 -2
BITMAP
3300
3300
FFC0
3300
7F80
6000
7FC0
6600
C600
C600
0000
ENDCHAR
STARTCHAR 0x365D
ENCODING 13917
SWIDTH 960 0
DWIDTH 10 0
BBX 10 11 0 -2
BITMAP
3300
3300
FFC0
3300
FFC0
CCC0
DF40
DCC0
D540
FFC0
0000
ENDCHAR
STARTCHAR 0x365E
ENCODING 13918
SWIDTH 960 0
DWIDTH 10 0
BBX 10 11 0 -2
BITMAP
0000
6780
6CC0
F800
1FC0
3000
6FC0
F0C0
6980
6700
0000
ENDCHAR
STARTCHAR 0x365F
ENCODING 13919
SWIDTH 960 0
DWIDTH 10 0
BBX 10 11 0 -2
BITMAP
0D80
6D80
6FC0
F580
3DC0
3780
6000
EFC0
6D00
6B40
0000
ENDCHAR
STARTCHAR 0x3660
ENCODING 13920
SWIDTH 960 0
DWIDTH 10 0
BBX 10 11 0 -2
BITMAP
0680
FFC0
0680
F7C0
0D40
F7C0
0300
F7C0
D300
F7C0
0000
ENDCHAR
STARTCHAR 0x3661
ENCODING 13921
SWIDTH 960 0
DWIDTH 10 0
BBX 10 11 0 -2
BITMAP
0000
6380
3600
0C00
0FC0
F580
3580
3180
6800
CFC0
0000
ENDCHAR
STARTCHAR 0x3662
ENCODING 13922
SWIDTH 960 0
DWIDTH 10 0
BBX 10 11 0 -2
BITMAP
0000
1E00
3300
7F80
CCC0
7F80
0C00
6D80
3500
FFC0
0000
ENDCHAR
STARTCHAR 0x3663
ENCODING 13923
SWIDTH 960 0
DWIDTH 10 0
BBX 10 11 0 -2
BITMAP
0000
0780
F4C0
D800
D7C0
D000
D7C0
D0C0
F180
0700
0000
ENDCHAR
STARTCHAR 0x3664
ENCODING 13924
SWIDTH 960 0
DWIDTH 10 0
BBX 10 11 0 -2
BITMAP
0000
77C0
CCC0
FFC0
34C0
FFC0
3500
D540
3580
FEC0
0000
ENDCHAR
STARTCHAR 0x3665
ENCODING 13925
SWIDTH 960 0
DWIDTH 10 0
BBX 10 11 0 -2
BITMAP
1800
1800
1800
FF00
1B00
1B00
1B40
3340
3340
E3C0
0000
ENDCHAR
STARTCHAR 0x3666
ENCODING 13926
SWIDTH 960 0
DWIDTH 10 0
BBX 10 11 0 -2
BITMAP
0000
37C0
34C0
6FC0
ECC0
6FC0
6000
6FC0
6680
6CC0
0000
ENDCHAR
STARTCHAR 0x3667
ENCODING 13927
SWIDTH 960 0
DWIDTH 10 0
BBX 10 11 0 -2
BITMAP
3000
3000
3FC0
60C0
7EC0
D6C0
D6C0
3EC0
0180
0700
0000
ENDCHAR
STARTCHAR 0x3668
ENCODING 13928
SWIDTH 960 0
DWIDTH 10 0
BBX 10 11 0 -2
BITMAP
0000
FFC0
C000
D980
CD00
C600
CD00
D980
C000
FFC0
0000
ENDCHAR
STARTCHAR 0x3669
ENCODING 13929
SWIDTH 960 0
DWIDTH 10 0
BBX 10 11 0 -2
BITMAP
0C00
3400
D7C0
68C0
D740
3540
7540
D740
30C0
E380
0000
ENDCHAR
STARTCHAR 0x366A
ENCODING 13930
SWIDTH 960 0
DWIDTH 10 0
BBX 10 11 0 -2
BITMAP
0600
0600
F7C0
6CC0
6CC0
F180
6180
6300
F680
1CC0
0000
ENDCHAR
STARTCHAR 0x366B
ENCODING 13931
SWIDTH 960 0
DWIDTH 10 0
BBX 10 11 0 -2
BITMAP
0000
CFC0
FC00
D7C0
34C0
FCC0
37C0
3400
6C00
CFC0
0000
ENDCHAR
STARTCHAR 0x366C
ENCODING 13932
SWIDTH 960 0
DWIDTH 10 0
BBX 10 11 0 -2
BITMAP
3300
3300
FFC0
3300
0C00
FFC0
0C00
7F80
6180
7F80
0000
ENDCHAR
STARTCHAR 0x366D
ENCODING 13933
SWIDTH 960 0
DWIDTH 10 0
BBX 10 11 0 -2
BITMAP
3000
67C0
FAC0
DB40
FA80
DE80
FB40
6AC0
DA00
DBC0
0000
ENDCHAR
STARTCHAR 0x366E
ENCODING 13934
SWIDTH 960 0
DWIDTH 10 0
BBX 10 11 0 -2
BITMAP
0000
FBC0
D6C0
FB40
D680
D680
FB40
1AC0
EA00
3BC0
0000
ENDCHAR
STARTCHAR 0x366F
ENCODING 13935
SWIDTH 960 0
DWIDTH 10 0
BBX 10 11 0 -2
BITMAP
0000
F9C0
D700
FA00
D7C0
D680
FA80
1A80
EA80
3FC0
0000
ENDCHAR
STARTCHAR 0x3670
ENCODING 13936
SWIDTH 960 0
DWIDTH 10 0
BBX 10 11 0 -2
BITMAP
0C00
FC00
D7C0
F8C0
D740
D540
FD40
1F40
E8C0
3B80
0000
ENDCHAR
STARTCHAR 0x3671
ENCODING 13937
SWIDTH 960 0
DWIDTH 10 0
BBX 10 11 0 -2
BITMAP
0000
3F00
3300
3F00
3300
3F00
0000
FFC0
3300
E1C0
0000
ENDCHAR
STARTCHAR 0x3672
ENCODING 13938
SWIDTH 960 0
DWIDTH 10 0
BBX 10 11 0 -2
BITMAP
0000
7F80
6D80
7F80
6D80
FFC0
CCC0
3700
D180
DF40
0000
ENDCHAR
STARTCHAR 0x3673
ENCODING 13939
SWIDTH 960 0
DWIDTH 10 0
BBX 10 11 0 -2
BITMAP
0F00
0C00
FFC0
CD40
D500
DF80
C180
FFC0
DB00
71C0
0000
ENDCHAR
STARTCHAR 0x3674
ENCODING 13940
SWIDTH 960 0
DWIDTH 10 0
BBX 10 11 0 -2
BITMAP
0000
0780
F4C0
DFC0
D4C0
D7C0
D4C0
D7C0
F580
0EC0
0000
ENDCHAR
STARTCHAR 0x3675
ENCODING 13941
SWIDTH 960 0
DWIDTH 10 0
BBX 10 11 0 -2
BITMAP
0C00
0C00
FFC0
DAC0
1A00
7780
0000
7F80
0C00
FFC0
0000
ENDCHAR
STARTCHAR 0x3676
ENCODING 13942
SWIDTH 960 0
DWIDTH 10 0
BBX 10 11 0 -2
BITMAP
0000
1FC0
3B40
6FC0
EB40
6FC0
6300
6FC0
6AC0
6B40
0000
ENDCHAR
STARTCHAR 0x3677
ENCODING 13943
SWIDTH 960 0
DWIDTH 10 0
BBX 10 11 0 -2
BITMAP
0C00
0C00
FFC0
D540
3F00
3500
FFC0
CCC0
DF40
C1C0
0000
ENDCHAR
STARTCHAR 0x3678
ENCODING 13944
SWIDTH 960 0
DWIDTH 10 0
BBX 10 11 0 -2
BITMAP
0000
DF80
6A80
1F80
1A80
EFC0
6AC0
6B40
D000
DFC0
0000
ENDCHAR
STARTCHAR 0x3679
ENCODING 13945
SWIDTH 960 0
DWIDTH 10 0
BBX 10 11 0 -2
BITMAP
0000
F7C0
D540
D7C0
ED40
D7C0
D300
EFC0
DAC0
DB40
0000
ENDCHAR
STARTCHAR 0x367A
ENCODING 13946
SWIDTH 960 0
DWIDTH 10 0
BBX 10 11 0 -2
BITMAP
0C00
0C00
7F80
6D80
7F80
0C00
FFC0
CCC0
FFC0
0C00
0000
ENDCHAR
STARTCHAR 0x367B
ENCODING 13947
SWIDTH 960 0
DWIDTH 10 0
BBX 10 11 0 -2
BITMAP
0300
6B00
6FC0
F580
6FC0
6B40
EF40
FB40
6BC0
6D00
0000
ENDCHAR
STARTCHAR 0x367C
ENCODING 13948
SWIDTH 960 0
DWIDTH 10 0
BBX 10 11 0 -2
BITMAP
0000
74C0
CD40
FD40
3540
FD40
3540
D540
34C0
F8C0
0000
ENDCHAR
STARTCHAR 0x367D
ENCODING 13949
SWIDTH 960 0
DWIDTH 10 0
BBX 10 11 0 -2
BITMAP
0000
7FC0
60C0
7FC0
76C0
6A80
7FC0
D0C0
DFC0
30C0
0000
ENDCHAR
STARTCHAR 0x367E
ENCODING 13950
SWIDTH 960 0
DWIDTH 10 0
BBX 10 11 0 -2
BITMAP
0000
7FC0
60C0
7FC0
6600
6AC0
6FC0
C600
D6C0
3FC0
0000
ENDCHAR
STARTCHAR 0x3721
ENCODING 14113
SWIDTH 960 0
DWIDTH 10 0
BBX 10 11 0 -2
BITMAP
0000
6FC0
68C0
FFC0
6B00
6D40
77C0
E300
6B40
EFC0
0000
ENDCHAR
STARTCHAR 0x3722
ENCODING 14114
SWIDTH 960 0
DWIDTH 10 0
BBX 10 11 0 -2
BITMAP
0C00
0C00
FFC0
DAC0
D680
7FC0
6A80
DF80
D6C0
3FC0
0000
ENDCHAR
STARTCHAR 0x3723
ENCODING 14115
SWIDTH 960 0
DWIDTH 10 0
BBX 10 11 0 -2
BITMAP
0C00
0C00
F6C0
3500
6D80
FFC0
6180
7F80
6180
7F80
0000
ENDCHAR
STARTCHAR 0x3724
ENCODING 14116
SWIDTH 960 0
DWIDTH 10 0
BBX 10 11 0 -2
BITMAP
0300
6B00
FF00
6D40
FD80
D500
FD00
3540
FD40
35C0
0000
ENDCHAR
STARTCHAR 0x3725
ENCODING 14117
SWIDTH 960 0
DWIDTH 10 0
BBX 10 11 0 -2
BITMAP
0C00
6E80
D540
6E80
D540
6E80
EDC0
7F80
6180
7F80
0000
ENDCHAR
STARTCHAR 0x3726
ENCODING 14118
SWIDTH 960 0
DWIDTH 10 0
BBX 10 11 0 -2
BITMAP
0C00
0C00
FFC0
DAC0
3600
DFC0
6600
1F80
6600
DFC0
0000
ENDCHAR
STARTCHAR 0x3727
ENCODING 14119
SWIDTH 960 0
DWIDTH 10 0
BBX 10 11 0 -2
BITMAP
3000
66C0
DB80
FA00
DBC0
FA00
DBC0
0000
6A80
CD40
0000
ENDCHAR
STARTCHAR 0x3728
ENCODING 14120
SWIDTH 960 0
DWIDTH 10 0
BBX 10 11 0 -2
BITMAP
0000
F7C0
D540
D7C0
ED40
D7C0
D000
EFC0
CD80
DEC0
0000
ENDCHAR
STARTCHAR 0x3729
ENCODING 14121
SWIDTH 960 0
DWIDTH 10 0
BBX 10 11 0 -2
BITMAP
0000
1F80
7300
0E00
3B00
EDC0
3500
FFC0
3500
EDC0
0000
ENDCHAR
STARTCHAR 0x372A
ENCODING 14122
SWIDTH 960 0
DWIDTH 10 0
BBX 10 11 0 -2
BITMAP
0000
FFC0
1A00
7F80
6A80
7F80
0C00
FFC0
3500
EDC0
0000
ENDCHAR
STARTCHAR 0x372B
ENCODING 14123
SWIDTH 960 0
DWIDTH 10 0
BBX 10 11 0 -2
BITMAP
0000
6F80
CD80
FFC0
6B40
DFC0
F300
3FC0
D500
DB40
0000
ENDCHAR
STARTCHAR 0x372C
ENCODING 14124
SWIDTH 960 0
DWIDTH 10 0
BBX 10 11 0 -2
BITMAP
0000
7F80
3300
1E00
FBC0
6A80
3500
FFC0
3580
ECC0
0000
ENDCHAR
STARTCHAR 0x372D
ENCODING 14125
SWIDTH 960 0
DWIDTH 10 0
BBX 10 11 0 -2
BITMAP
0300
7F00
CD40
F540
6F40
F580
6D00
ED00
6E80
FCC0
0000
ENDCHAR
STARTCHAR 0x372E
ENCODING 14126
SWIDTH 960 0
DWIDTH 10 0
BBX 10 11 0 -2
BITMAP
0300
FD00
37C0
FD40
D540
FEC0
30C0
FD80
0000
DAC0
0000
ENDCHAR
STARTCHAR 0x372F
ENCODING 14127
SWIDTH 960 0
DWIDTH 10 0
BBX 10 11 0 -2
BITMAP
0000
7F80
1980
FFC0
1980
7F80
3000
7F80
D180
3F80
0000
ENDCHAR
STARTCHAR 0x3730
ENCODING 14128
SWIDTH 960 0
DWIDTH 10 0
BBX 10 11 0 -2
BITMAP
3300
3300
FFC0
6D80
7F80
0C00
FFC0
0000
6A80
CD40
0000
ENDCHAR
STARTCHAR 0x3731
ENCODING 14129
SWIDTH 960 0
DWIDTH 10 0
BBX 10 11 0 -2
BITMAP
0000
F4C0
0D40
F540
0D40
F540
0D40
F540
D4C0
F8C0
0000
ENDCHAR
STARTCHAR 0x3732
ENCODING 14130
SWIDTH 960 0
DWIDTH 10 0
BBX 10 11 0 -2
BITMAP
06C0
FA80
6800
FFC0
6B00
FBC0
6300
7FC0
EB00
7B00
0000
ENDCHAR
STARTCHAR 0x3733
ENCODING 14131
SWIDTH 960 0
DWIDTH 10 0
BBX 10 11 0 -2
BITMAP
0000
FFC0
CCC0
FFC0
D540
3F00
3500
3500
FFC0
0C00
0000
ENDCHAR
STARTCHAR 0x3734
ENCODING 14132
SWIDTH 960 0
DWIDTH 10 0
BBX 10 11 0 -2
BITMAP
0000
FDC0
3540
FF40
3580
FD40
3340
7D40
ED80
7D00
0000
ENDCHAR
STARTCHAR 0x3735
ENCODING 14133
SWIDTH 960 0
DWIDTH 10 0
BBX 10 11 0 -2
BITMAP
3300
3300
FD00
3300
FD80
3340
FD40
3300
3300
FD00
0000
ENDCHAR
STARTCHAR 0x3736
ENCODING 14134
SWIDTH 960 0
DWIDTH 10 0
BBX 10 11 0 -2
BITMAP
6000
67C0
FAC0
6AC0
DBC0
0C00
FFC0
3580
E700
79C0
0000
ENDCHAR
STARTCHAR 0x3737
ENCODING 14135
SWIDTH 960 0
DWIDTH 10 0
BBX 10 11 0 -2
BITMAP
6000
67C0
FAC0
1A80
3700
6680
E6C0
76C0
6B80
6600
0000
ENDCHAR
STARTCHAR 0x3738
ENCODING 14136
SWIDTH 960 0
DWIDTH 10 0
BBX 10 11 0 -2
BITMAP
0000
3FC0
36C0
6D80
ED00
66C0
6FC0
6300
6D40
6B40
0000
ENDCHAR
STARTCHAR 0x3739
ENCODING 14137
SWIDTH 960 0
DWIDTH 10 0
BBX 10 11 0 -2
BITMAP
0000
37C0
3300
6BC0
EEC0
6BC0
6AC0
6FC0
6680
6CC0
0000
ENDCHAR
STARTCHAR 0x373A
ENCODING 14138
SWIDTH 960 0
DWIDTH 10 0
BBX 10 11 0 -2
BITMAP
0000
FEC0
6B40
6B40
6B40
FF40
6B40
6B40
D8C0
D9C0
0000
ENDCHAR
STARTCHAR 0x373B
ENCODING 14139
SWIDTH 960 0
DWIDTH 10 0
BBX 10 11 0 -2
BITMAP
0000
3F80
3180
3180
3180
3F80
1A00
1AC0
36C0
E7C0
0000
ENDCHAR
STARTCHAR 0x373C
ENCODING 14140
SWIDTH 960 0
DWIDTH 10 0
BBX 10 11 0 -2
BITMAP
0600
FA00
07C0
FD80
DA80
FB00
CDC0
7F80
6180
7F80
0000
ENDCHAR
STARTCHAR 0x373D
ENCODING 14141
SWIDTH 960 0
DWIDTH 10 0
BBX 10 11 0 -2
BITMAP
0C00
0C00
7F80
0C00
FFC0
0C00
7F80
0C00
0C00
FFC0
0000
ENDCHAR
STARTCHAR 0x373E
ENCODING 14142
SWIDTH 960 0
DWIDTH 10 0
BBX 10 11 0 -2
BITMAP
0300
0300
F7C0
6300
6FC0
F300
6FC0
6300
F300
1FC0
0000
ENDCHAR
STARTCHAR 0x373F
ENCODING 14143
SWIDTH 960 0
DWIDTH 10 0
BBX 10 11 0 -2
BITMAP
0000
FD40
6B40
FD40
68C0
D9C0
0C00
7F80
0C00
FFC0
0000
ENDCHAR
STARTCHAR 0x3740
ENCODING 14144
SWIDTH 960 0
DWIDTH 10 0
BBX 10 11 0 -2
BITMAP
3000
37C0
FB40
3340
FAC0
3580
FFC0
0C00
3B00
E1C0
0000
ENDCHAR
STARTCHAR 0x3741
ENCODING 14145
SWIDTH 960 0
DWIDTH 10 0
BBX 10 11 0 -2
BITMAP
0000
FEC0
6980
6B00
68C0
FE80
6B00
68C0
D980
DB00
0000
ENDCHAR
STARTCHAR 0x3742
ENCODING 14146
SWIDTH 960 0
DWIDTH 10 0
BBX 10 11 0 -2
BITMAP
0000
6FC0
C0C0
0D80
0700
6DC0
E300
6FC0
6300
6FC0
0000
ENDCHAR
STARTCHAR 0x3743
ENCODING 14147
SWIDTH 960 0
DWIDTH 10 0
BBX 10 11 0 -2
BITMAP
0C00
0C00
FFC0
6D80
7F80
6D80
7F80
3600
D180
DF40
0000
ENDCHAR
STARTCHAR 0x3744
ENCODING 14148
SWIDTH 960 0
DWIDTH 10 0
BBX 10 11 0 -2
BITMAP
0600
0600
FFC0
DB00
FFC0
D540
EF80
D980
0F00
79C0
0000
ENDCHAR
STARTCHAR 0x3745
ENCODING 14149
SWIDTH 960 0
DWIDTH 10 0
BBX 10 11 0 -2
BITMAP
3300
3300
FBC0
3300
FBC0
0180
7F80
3600
D180
DF40
0000
ENDCHAR
STARTCHAR 0x3746
ENCODING 14150
SWIDTH 960 0
DWIDTH 10 0
BBX 10 11 0 -2
BITMAP
0180
FD00
37C0
FEC0
37C0
FAC0
DBC0
FB00
68C0
DF40
0000
ENDCHAR
STARTCHAR 0x3747
ENCODING 14151
SWIDTH 960 0
DWIDTH 10 0
BBX 10 11 0 -2
BITMAP
0000
6F80
6980
FF80
6980
6FC0
74C0
EB40
6EC0
E380
0000
ENDCHAR
STARTCHAR 0x3748
ENCODING 14152
SWIDTH 960 0
DWIDTH 10 0
BBX 10 11 0 -2
BITMAP
0D80
6D80
6FC0
FB00
6FC0
6B00
7FC0
E680
6CC0
EB80
0000
ENDCHAR
STARTCHAR 0x3749
ENCODING 14153
SWIDTH 960 0
DWIDTH 10 0
BBX 10 11 0 -2
BITMAP
0300
6B00
FDC0
6AC0
7D40
CD40
F580
D580
F540
1EC0
0000
ENDCHAR
STARTCHAR 0x374A
ENCODING 14154
SWIDTH 960 0
DWIDTH 10 0
BBX 10 11 0 -2
BITMAP
0000
7F80
6180
7F80
6180
FFC0
3300
3F00
6D80
DCC0
0000
ENDCHAR
STARTCHAR 0x374B
ENCODING 14155
SWIDTH 960 0
DWIDTH 10 0
BBX 10 11 0 -2
BITMAP
0300
3300
37C0
F300
3FC0
7300
77C0
D300
D300
3FC0
0000
ENDCHAR
STARTCHAR 0x374C
ENCODING 14156
SWIDTH 960 0
DWIDTH 10 0
BBX 10 11 0 -2
BITMAP
0000
DFC0
6B40
0D80
C300
6FC0
0300
1FC0
6680
DCC0
0000
ENDCHAR
STARTCHAR 0x374D
ENCODING 14157
SWIDTH 960 0
DWIDTH 10 0
BBX 10 11 0 -2
BITMAP
0300
0300
FFC0
D300
D7C0
FB00
D7C0
D300
FB00
0FC0
0000
ENDCHAR
STARTCHAR 0x374E
ENCODING 14158
SWIDTH 960 0
DWIDTH 10 0
BBX 10 11 0 -2
BITMAP
0300
3B40
EFC0
6680
F4C0
6F80
ECC0
7FC0
68C0
6FC0
0000
ENDCHAR
STARTCHAR 0x374F
ENCODING 14159
SWIDTH 960 0
DWIDTH 10 0
BBX 10 11 0 -2
BITMAP
0000
7F80
1800
3300
1A00
0CC0
FFC0
0C00
6D80
CCC0
0000
ENDCHAR
STARTCHAR 0x3750
ENCODING 14160
SWIDTH 960 0
DWIDTH 10 0
BBX 10 11 0 -2
BITMAP
0000
6FC0
C0C0
FA80
3700
6DC0
FB00
37C0
D300
D7C0
0000
ENDCHAR
STARTCHAR 0x3751
ENCODING 14161
SWIDTH 960 0
DWIDTH 10 0
BBX 10 11 0 -2
BITMAP
0300
6B40
DD80
FB00
6FC0
DB00
FB80
6D40
EB00
6FC0
0000
ENDCHAR
STARTCHAR 0x3752
ENCODING 14162
SWIDTH 960 0
DWIDTH 10 0
BBX 10 11 0 -2
BITMAP
3000
37C0
FEC0
6B80
FEC0
6B00
36C0
FFC0
3500
EDC0
0000
ENDCHAR
STARTCHAR 0x3753
ENCODING 14163
SWIDTH 960 0
DWIDTH 10 0
BBX 10 11 0 -2
BITMAP
0000
FFC0
DAC0
FFC0
3300
FD00
3380
FD40
3300
FD00
0000
ENDCHAR
STARTCHAR 0x3754
ENCODING 14164
SWIDTH 960 0
DWIDTH 10 0
BBX 10 11 0 -2
BITMAP
3300
3300
FFC0
3300
1E00
F3C0
0C00
7F80
0C00
FFC0
0000
ENDCHAR
STARTCHAR 0x3755
ENCODING 14165
SWIDTH 960 0
DWIDTH 10 0
BBX 10 11 0 -2
BITMAP
3300
3300
FFC0
3000
FD40
6B40
FF40
6B40
D8C0
D9C0
0000
ENDCHAR
STARTCHAR 0x3756
ENCODING 14166
SWIDTH 960 0
DWIDTH 10 0
BBX 10 11 0 -2
BITMAP
1980
6D00
3600
FFC0
CCC0
DF40
3500
3F00
0CC0
FFC0
0000
ENDCHAR
STARTCHAR 0x3757
ENCODING 14167
SWIDTH 960 0
DWIDTH 10 0
BBX 10 11 0 -2
BITMAP
0180
F980
0180
F980
0FC0
F980
0180
F980
D980
F980
0000
ENDCHAR
STARTCHAR 0x3758
ENCODING 14168
SWIDTH 960 0
DWIDTH 10 0
BBX 10 11 0 -2
BITMAP
0000
F5C0
0F00
F4C0
0FC0
F4C0
0FC0
F4C0
D4C0
F7C0
0000
ENDCHAR
STARTCHAR 0x3759
ENCODING 14169
SWIDTH 960 0
DWIDTH 10 0
BBX 10 11 0 -2
BITMAP
0600
D600
FFC0
D540
F580
3F40
0000
FFC0
3300
3F00
0000
ENDCHAR
STARTCHAR 0x375A
ENCODING 14170
SWIDTH 960 0
DWIDTH 10 0
BBX 10 11 0 -2
BITMAP
0000
37C0
F8C0
3680
FB00
D5C0
FB00
D7C0
FB00
37C0
0000
ENDCHAR
STARTCHAR 0x375B
ENCODING 14171
SWIDTH 960 0
DWIDTH 10 0
BBX 10 11 0 -2
BITMAP
0000
FFC0
1B00
D7C0
74C0
DFC0
34C0
FFC0
3680
FCC0
0000
ENDCHAR
STARTCHAR 0x375C
ENCODING 14172
SWIDTH 960 0
DWIDTH 10 0
BBX 10 11 0 -2
BITMAP
0300
FA00
6F80
D580
6F80
FD80
6FC0
F8C0
6D40
DAC0
0000
ENDCHAR
STARTCHAR 0x375D
ENCODING 14173
SWIDTH 960 0
DWIDTH 10 0
BBX 10 11 0 -2
BITMAP
3300
3300
FFC0
3300
7F80
0000
FFC0
3300
6680
7D80
0000
ENDCHAR
STARTCHAR 0x375E
ENCODING 14174
SWIDTH 960 0
DWIDTH 10 0
BBX 10 11 0 -2
BITMAP
0000
DDC0
6B40
1B40
1B40
EB40
6DC0
6300
D000
DFC0
0000
ENDCHAR
STARTCHAR 0x375F
ENCODING 14175
SWIDTH 960 0
DWIDTH 10 0
BBX 10 11 0 -2
BITMAP
0300
7B00
DFC0
F800
D7C0
FCC0
D7C0
FB00
0740
D540
0000
ENDCHAR
STARTCHAR 0x3760
ENCODING 14176
SWIDTH 960 0
DWIDTH 10 0
BBX 10 11 0 -2
BITMAP
3000
3CC0
3340
FF40
D340
DD40
EB40
DB40
ECC0
DAC0
0000
ENDCHAR
STARTCHAR 0x3761
ENCODING 14177
SWIDTH 960 0
DWIDTH 10 0
BBX 10 11 0 -2
BITMAP
0300
3340
FFC0
3300
FD40
CD40
FD80
CD80
FD40
36C0
0000
ENDCHAR
STARTCHAR 0x3762
ENCODING 14178
SWIDTH 960 0
DWIDTH 10 0
BBX 10 11 0 -2
BITMAP
3000
3780
FD80
6BC0
7D80
6B00
FEC0
0C00
FFC0
0C00
0000
ENDCHAR
STARTCHAR 0x3763
ENCODING 14179
SWIDTH 960 0
DWIDTH 10 0
BBX 10 11 0 -2
BITMAP
1B00
DB00
7FC0
36C0
DF40
6B40
3E80
1A80
D740
D6C0
0000
ENDCHAR
STARTCHAR 0x3764
ENCODING 14180
SWIDTH 960 0
DWIDTH 10 0
BBX 10 11 0 -2
BITMAP
0300
F540
D540
DB00
EFC0
D4C0
D7C0
E300
DB40
D740
0000
ENDCHAR
STARTCHAR 0x3765
ENCODING 14181
SWIDTH 960 0
DWIDTH 10 0
BBX 10 11 0 -2
BITMAP
0000
36C0
3400
F800
37C0
76C0
7AC0
D6C0
D6C0
36C0
0000
ENDCHAR
STARTCHAR 0x3766
ENCODING 14182
SWIDTH 960 0
DWIDTH 10 0
BBX 10 11 0 -2
BITMAP
0180
6E80
6BC0
7680
E7C0
6D80
6300
7FC0
6D00
6B40
0000
ENDCHAR
STARTCHAR 0x3767
ENCODING 14183
SWIDTH 960 0
DWIDTH 10 0
BBX 10 11 0 -2
BITMAP
3000
3000
3FC0
6CC0
CD80
CC00
0C00
1A00
3300
E1C0
0000
ENDCHAR
STARTCHAR 0x3768
ENCODING 14184
SWIDTH 960 0
DWIDTH 10 0
BBX 10 11 0 -2
BITMAP
0300
C300
6FC0
0340
C340
6FC0
0300
0300
6680
DCC0
0000
ENDCHAR
STARTCHAR 0x3769
ENCODING 14185
SWIDTH 960 0
DWIDTH 10 0
BBX 10 11 0 -2
BITMAP
1800
DBC0
7D40
1B40
DEC0
6D00
1AC0
7FC0
DA80
D6C0
0000
ENDCHAR
STARTCHAR 0x376A
ENCODING 14186
SWIDTH 960 0
DWIDTH 10 0
BBX 10 11 0 -2
BITMAP
0C00
0C00
FFC0
C0C0
C0C0
3700
3300
3300
6180
C0C0
0000
ENDCHAR
STARTCHAR 0x376B
ENCODING 14187
SWIDTH 960 0
DWIDTH 10 0
BBX 10 11 0 -2
BITMAP
0300
6300
DFC0
F300
37C0
6000
FFC0
34C0
D4C0
D7C0
0000
ENDCHAR
STARTCHAR 0x376C
ENCODING 14188
SWIDTH 960 0
DWIDTH 10 0
BBX 10 11 0 -2
BITMAP
0600
0C00
1800
7F80
6A80
6A80
6A80
6A80
6A80
FFC0
0000
ENDCHAR
STARTCHAR 0x376D
ENCODING 14189
SWIDTH 960 0
DWIDTH 10 0
BBX 10 11 0 -2
BITMAP
0300
F300
0FC0
F340
0340
F7C0
0300
F300
D680
FCC0
0000
ENDCHAR
STARTCHAR 0x376E
ENCODING 14190
SWIDTH 960 0
DWIDTH 10 0
BBX 10 11 0 -2
BITMAP
0000
3F80
3180
3F80
3180
3180
3F80
3180
6180
6380
0000
ENDCHAR
STARTCHAR 0x376F
ENCODING 14191
SWIDTH 960 0
DWIDTH 10 0
BBX 10 11 0 -2
BITMAP
0300
3500
37C0
6B00
EB00
6300
6FC0
6300
6300
6300
0000
ENDCHAR
STARTCHAR 0x3770
ENCODING 14192
SWIDTH 960 0
DWIDTH 10 0
BBX 10 11 0 -2
BITMAP
0000
3780
34C0
6FC0
E300
6FC0
6B40
6FC0
6680
6CC0
0000
ENDCHAR
STARTCHAR 0x3771
ENCODING 14193
SWIDTH 960 0
DWIDTH 10 0
BBX 10 11 0 -2
BITMAP
0600
6B40
6D80
7FC0
ED80
7FC0
6980
7780
6CC0
6FC0
0000
ENDCHAR
STARTCHAR 0x3772
ENCODING 14194
SWIDTH 960 0
DWIDTH 10 0
BBX 10 11 0 -2
BITMAP
0300
3300
3FC0
6B40
EFC0
7340
6FC0
6B00
6C00
77C0
0000
ENDCHAR
STARTCHAR 0x3773
ENCODING 14195
SWIDTH 960 0
DWIDTH 10 0
BBX 10 11 0 -2
BITMAP
3180
3300
FFC0
1A80
FFC0
1A80
7F80
1A00
3A80
EAC0
0000
ENDCHAR
STARTCHAR 0x3774
ENCODING 14196
SWIDTH 960 0
DWIDTH 10 0
BBX 10 11 0 -2
BITMAP
0C00
3580
3500
FFC0
1B00
FFC0
6180
DF40
1B00
7700
0000
ENDCHAR
STARTCHAR 0x3775
ENCODING 14197
SWIDTH 960 0
DWIDTH 10 0
BBX 10 11 0 -2
BITMAP
0000
78C0
CD40
FD40
3340
FD40
D540
FD40
68C0
CEC0
0000
ENDCHAR
STARTCHAR 0x3776
ENCODING 14198
SWIDTH 960 0
DWIDTH 10 0
BBX 10 11 0 -2
BITMAP
0600
0600
FFC0
D0C0
D780
D580
D780
D580
F580
1FC0
0000
ENDCHAR
STARTCHAR 0x3777
ENCODING 14199
SWIDTH 960 0
DWIDTH 10 0
BBX 10 11 0 -2
BITMAP
0000
FFC0
D540
DAC0
FFC0
DAC0
D740
EEC0
DB40
FFC0
0000
ENDCHAR
STARTCHAR 0x3778
ENCODING 14200
SWIDTH 960 0
DWIDTH 10 0
BBX 10 11 0 -2
BITMAP
0000
FBC0
D0C0
FA80
DB00
FA80
D4C0
FF80
0C00
FFC0
0000
ENDCHAR
STARTCHAR 0x3779
ENCODING 14201
SWIDTH 960 0
DWIDTH 10 0
BBX 10 11 0 -2
BITMAP
0D80
6300
7FC0
ED40
7FC0
6D40
DFC0
F500
6D80
7540
0000
ENDCHAR
STARTCHAR 0x377A
ENCODING 14202
SWIDTH 960 0
DWIDTH 10 0
BBX 10 11 0 -2
BITMAP
0300
F300
37C0
6340
FFC0
3340
D7C0
6300
D800
CFC0
0000
ENDCHAR
STARTCHAR 0x377B
ENCODING 14203
SWIDTH 960 0
DWIDTH 10 0
BBX 10 11 0 -2
BITMAP
0C00
FFC0
CCC0
3F00
0C00
FFC0
6A80
7F80
D180
DF40
0000
ENDCHAR
STARTCHAR 0x377C
ENCODING 14204
SWIDTH 960 0
DWIDTH 10 0
BBX 10 11 0 -2
BITMAP
0000
3FC0
D580
DD40
D7C0
FD00
6B40
1A00
D180
DF40
0000
ENDCHAR
STARTCHAR 0x377D
ENCODING 14205
SWIDTH 960 0
DWIDTH 10 0
BBX 10 11 0 -2
BITMAP
0C00
3580
6CC0
FFC0
1B00
FFC0
6D80
FFC0
CCC0
1C00
0000
ENDCHAR
STARTCHAR 0x377E
ENCODING 14206
SWIDTH 960 0
DWIDTH 10 0
BBX 10 11 0 -2
BITMAP
0600
6B40
6D80
FFC0
6D80
7FC0
E980
7780
6CC0
EFC0
0000
ENDCHAR
STARTCHAR 0x3821
ENCODING 14369
SWIDTH 960 0
DWIDTH 10 0
BBX 10 11 0 -2
BITMAP
0000
3780
34C0
FFC0
3300
77C0
7540
D7C0
D680
3CC0
0000
ENDCHAR
STARTCHAR 0x3822
ENCODING 14370
SWIDTH 960 0
DWIDTH 10 0
BBX 10 11 0 -2
BITMAP
0600
3600
37C0
FD00
37C0
7580
7FC0
D580
D580
37C0
0000
ENDCHAR
STARTCHAR 0x3823
ENCODING 14371
SWIDTH 960 0
DWIDTH 10 0
BBX 10 11 0 -2
BITMAP
0C00
0C00
7F80
3600
FFC0
DB40
3F80
6C00
FFC0
0C00
0000
ENDCHAR
STARTCHAR 0x3824
ENCODING 14372
SWIDTH 960 0
DWIDTH 10 0
BBX 10 11 0 -2
BITMAP
0D80
0CC0
0C00
FFC0
0C00
0C00
0C00
1A00
3300
E1C0
0000
ENDCHAR
STARTCHAR 0x3825
ENCODING 14373
SWIDTH 960 0
DWIDTH 10 0
BBX 10 11 0 -2
BITMAP
0300
3340
FD40
37C0
FD00
D500
ED00
D500
FE80
D4C0
0000
ENDCHAR
STARTCHAR 0x3826
ENCODING 14374
SWIDTH 960 0
DWIDTH 10 0
BBX 10 11 0 -2
BITMAP
0000
FFC0
6D80
6D80
CD80
FFC0
D580
D580
D580
F980
0000
ENDCHAR
STARTCHAR 0x3827
ENCODING 14375
SWIDTH 960 0
DWIDTH 10 0
BBX 10 11 0 -2
BITMAP
0000
F7C0
6CC0
6FC0
CCC0
F4C0
D7C0
D680
D580
F9C0
0000
ENDCHAR
STARTCHAR 0x3828
ENCODING 14376
SWIDTH 960 0
DWIDTH 10 0
BBX 10 11 0 -2
BITMAP
0000
6FC0
CCC0
FFC0
3000
6FC0
FCC0
37C0
D4C0
D5C0
0000
ENDCHAR
STARTCHAR 0x3829
ENCODING 14377
SWIDTH 960 0
DWIDTH 10 0
BBX 10 11 0 -2
BITMAP
0000
3F80
D180
DF80
D180
D180
FFC0
0C00
6D80
CCC0
0000
ENDCHAR
STARTCHAR 0x382A
ENCODING 14378
SWIDTH 960 0
DWIDTH 10 0
BBX 10 11 0 -2
BITMAP
0000
FFC0
0000
7FC0
60C0
7FC0
70C0
DFC0
D0C0
31C0
0000
ENDCHAR
STARTCHAR 0x382B
ENCODING 14379
SWIDTH 960 0
DWIDTH 10 0
BBX 10 11 0 -2
BITMAP
0000
3F80
3180
3F80
3180
3180
3F80
1A00
36C0
E7C0
0000
ENDCHAR
STARTCHAR 0x382C
ENCODING 14380
SWIDTH 960 0
DWIDTH 10 0
BBX 10 11 0 -2
BITMAP
0D80
E300
3FC0
ED40
3FC0
ED40
3FC0
ED00
DD80
F540
0000
ENDCHAR
STARTCHAR 0x382D
ENCODING 14381
SWIDTH 960 0
DWIDTH 10 0
BBX 10 11 0 -2
BITMAP
0000
FBC0
D0C0
FA80
DF00
F380
DF40
3300
3F00
E1C0
0000
ENDCHAR
STARTCHAR 0x382E
ENCODING 14382
SWIDTH 960 0
DWIDTH 10 0
BBX 10 11 0 -2
BITMAP
0000
37C0
FD80
3180
FD80
D7C0
FD80
D580
FD80
3180
0000
ENDCHAR
STARTCHAR 0x382F
ENCODING 14383
SWIDTH 960 0
DWIDTH 10 0
BBX 10 11 0 -2
BITMAP
0300
C300
6FC0
1B40
3FC0
EF80
6CC0
6FC0
D000
DFC0
0000
ENDCHAR
STARTCHAR 0x3830
ENCODING 14384
SWIDTH 960 0
DWIDTH 10 0
BBX 10 11 0 -2
BITMAP
0300
7300
DFC0
FB40
6FC0
FB40
6FC0
EB00
6C00
F7C0
0000
ENDCHAR
STARTCHAR 0x3831
ENCODING 14385
SWIDTH 960 0
DWIDTH 10 0
BBX 10 11 0 -2
BITMAP
0000
F780
D4C0
DFC0
E300
D7C0
D540
EFC0
C680
DCC0
0000
ENDCHAR
STARTCHAR 0x3832
ENCODING 14386
SWIDTH 960 0
DWIDTH 10 0
BBX 10 11 0 -2
BITMAP
0000
FFC0
DB00
FFC0
D8C0
FFC0
68C0
EFC0
7680
ECC0
0000
ENDCHAR
STARTCHAR 0x3833
ENCODING 14387
SWIDTH 960 0
DWIDTH 10 0
BBX 10 11 0 -2
BITMAP
0000
FB80
D4C0
FFC0
D300
DFC0
FB40
1FC0
EA80
3CC0
0000
ENDCHAR
STARTCHAR 0x3834
ENCODING 14388
SWIDTH 960 0
DWIDTH 10 0
BBX 10 11 0 -2
BITMAP
0000
7780
6CC0
FFC0
DB00
EFC0
DB40
EFC0
D680
FCC0
0000
ENDCHAR
STARTCHAR 0x3835
ENCODING 14389
SWIDTH 960 0
DWIDTH 10 0
BBX 10 11 0 -2
BITMAP
0000
7F80
0000
0000
FFC0
1A00
1A00
1A00
36C0
E7C0
0000
ENDCHAR
STARTCHAR 0x3836
ENCODING 14390
SWIDTH 960 0
DWIDTH 10 0
BBX 10 11 0 -2
BITMAP
0000
7FC0
6600
6F80
6980
6F80
D980
DF80
3680
6EC0
0000
ENDCHAR
STARTCHAR 0x3837
ENCODING 14391
SWIDTH 960 0
DWIDTH 10 0
BBX 10 11 0 -2
BITMAP
0600
3680
FFC0
DB00
FFC0
D4C0
DD40
D540
FD80
CEC0
0000
ENDCHAR
STARTCHAR 0x3838
ENCODING 14392
SWIDTH 960 0
DWIDTH 10 0
BBX 10 11 0 -2
BITMAP
0000
37C0
60C0
D8C0
68C0
30C0
30C0
60C0
D980
FB00
0000
ENDCHAR
STARTCHAR 0x3839
ENCODING 14393
SWIDTH 960 0
DWIDTH 10 0
BBX 10 11 0 -2
BITMAP
0300
F300
3FC0
3600
F4C0
C680
F300
36C0
34C0
EFC0
0000
ENDCHAR
STARTCHAR 0x383A
ENCODING 14394
SWIDTH 960 0
DWIDTH 10 0
BBX 10 11 0 -2
BITMAP
0300
C340
6FC0
1B00
DF40
6B40
1A80
1E80
D340
D6C0
0000
ENDCHAR
STARTCHAR 0x383B
ENCODING 14395
SWIDTH 960 0
DWIDTH 10 0
BBX 10 11 0 -2
BITMAP
0000
DFC0
6B00
1BC0
DAC0
6BC0
1AC0
07C0
DB00
D740
0000
ENDCHAR
STARTCHAR 0x383C
ENCODING 14396
SWIDTH 960 0
DWIDTH 10 0
BBX 10 11 0 -2
BITMAP
0C00
0C00
FFC0
1800
3300
6600
3580
1980
3340
FEC0
0000
ENDCHAR
STARTCHAR 0x383D
ENCODING 14397
SWIDTH 960 0
DWIDTH 10 0
BBX 10 11 0 -2
BITMAP
0000
0FC0
FCC0
6FC0
6CC0
FCC0
6FC0
6680
FD80
19C0
0000
ENDCHAR
STARTCHAR 0x383E
ENCODING 14398
SWIDTH 960 0
DWIDTH 10 0
BBX 10 11 0 -2
BITMAP
0300
6300
DFC0
F600
6CC0
C680
FB00
36C0
D4C0
D7C0
0000
ENDCHAR
STARTCHAR 0x383F
ENCODING 14399
SWIDTH 960 0
DWIDTH 10 0
BBX 10 11 0 -2
BITMAP
3300
6300
FFC0
D600
F4C0
D680
FB00
D6C0
D4C0
D7C0
0000
ENDCHAR
STARTCHAR 0x3840
ENCODING 14400
SWIDTH 960 0
DWIDTH 10 0
BBX 10 11 0 -2
BITMAP
0000
3F00
0000
FFC0
0000
3F00
0000
7F80
6180
7F80
0000
ENDCHAR
STARTCHAR 0x3841
ENCODING 14401
SWIDTH 960 0
DWIDTH 10 0
BBX 10 11 0 -2
BITMAP
0300
F300
1FC0
F680
0680
F7C0
0D80
F700
D9C0
F700
0000
ENDCHAR
STARTCHAR 0x3842
ENCODING 14402
SWIDTH 960 0
DWIDTH 10 0
BBX 10 11 0 -2
BITMAP
0000
F7C0
D4C0
D7C0
ECC0
D7C0
D500
ED40
CD80
CEC0
0000
ENDCHAR
STARTCHAR 0x3843
ENCODING 14403
SWIDTH 960 0
DWIDTH 10 0
BBX 10 11 0 -2
BITMAP
0000
0780
FC00
6D80
3500
0C00
FFC0
0C00
0C00
1C00
0000
ENDCHAR
STARTCHAR 0x3844
ENCODING 14404
SWIDTH 960 0
DWIDTH 10 0
BBX 10 11 0 -2
BITMAP
0000
1FC0
3B40
6FC0
EB40
6BC0
6AC0
6BC0
68C0
6FC0
0000
ENDCHAR
STARTCHAR 0x3845
ENCODING 14405
SWIDTH 960 0
DWIDTH 10 0
BBX 10 11 0 -2
BITMAP
0C00
0C00
0C00
FFC0
0C00
0C00
7F80
6180
6180
7F80
0000
ENDCHAR
STARTCHAR 0x3846
ENCODING 14406
SWIDTH 960 0
DWIDTH 10 0
BBX 10 11 0 -2
BITMAP
0000
1FC0
F300
D540
D580
D300
DFC0
D300
F300
0700
0000
ENDCHAR
STARTCHAR 0x3847
ENCODING 14407
SWIDTH 960 0
DWIDTH 10 0
BBX 10 11 0 -2
BITMAP
0000
FFC0
CCC0
DF40
CCC0
DF40
D340
DF40
C0C0
FFC0
0000
ENDCHAR
STARTCHAR 0x3848
ENCODING 14408
SWIDTH 960 0
DWIDTH 10 0
BBX 10 11 0 -2
BITMAP
0300
6300
6300
FFC0
6B00
6B00
D7C0
F4C0
6CC0
6FC0
0000
ENDCHAR
STARTCHAR 0x3849
ENCODING 14409
SWIDTH 960 0
DWIDTH 10 0
BBX 10 11 0 -2
BITMAP
0000
FFC0
1A80
3A80
6A80
6A80
EA80
6AC0
6FC0
F0C0
0000
ENDCHAR
STARTCHAR 0x384A
ENCODING 14410
SWIDTH 960 0
DWIDTH 10 0
BBX 10 11 0 -2
BITMAP
0000
7F80
0180
0180
7F80
6000
6000
60C0
60C0
7FC0
0000
ENDCHAR
STARTCHAR 0x384B
ENCODING 14411
SWIDTH 960 0
DWIDTH 10 0
BBX 10 11 0 -2
BITMAP
0600
0600
7FC0
6B40
6FC0
6B40
6FC0
6300
DFC0
C300
0000
ENDCHAR
STARTCHAR 0x384C
ENCODING 14412
SWIDTH 960 0
DWIDTH 10 0
BBX 10 11 0 -2
BITMAP
0000
FFC0
3580
3580
F580
CD80
F580
3540
3F40
E0C0
0000
ENDCHAR
STARTCHAR 0x384D
ENCODING 14413
SWIDTH 960 0
DWIDTH 10 0
BBX 10 11 0 -2
BITMAP
0000
FFC0
0000
7F80
6180
6180
7F80
6000
C000
C000
0000
ENDCHAR
STARTCHAR 0x384E
ENCODING 14414
SWIDTH 960 0
DWIDTH 10 0
BBX 10 11 0 -2
BITMAP
0C00
6C00
6FC0
FD80
6980
6680
FA80
DB00
DB00
FDC0
0000
ENDCHAR
STARTCHAR 0x384F
ENCODING 14415
SWIDTH 960 0
DWIDTH 10 0
BBX 10 11 0 -2
BITMAP
0300
3300
3300
FFC0
3300
7300
77C0
DCC0
D4C0
37C0
0000
ENDCHAR
ENDFONT
